<svg width="64" height="64" viewBox="0 0 64 64" fill="none" xmlns="http://www.w3.org/2000/svg">
<rect width="64" height="64" rx="8" fill="#0066FF" fill-opacity="0.93"/>
<ellipse cx="32" cy="32" rx="25" ry="26" fill="url(#paint0_linear_2253_5796)"/>
<path d="M43.7935 33.3123C43.2644 35.3959 40.7611 36.8682 35.753 39.8129C30.9113 42.6598 28.4904 44.0824 26.5402 43.5115C25.7319 43.2744 24.9966 42.8249 24.4057 42.2068C22.9727 40.7096 22.9727 37.8069 22.9727 31.9998C22.9727 26.1928 22.9727 23.29 24.4057 21.7929C24.9968 21.1753 25.7321 20.7264 26.5402 20.4897C28.4904 19.9157 30.9113 21.3399 35.753 24.1868C40.7596 27.1314 43.2644 28.6037 43.795 30.6873C44.0154 31.5475 44.0154 32.4522 43.795 33.3123" stroke="white" stroke-width="1.5" stroke-linecap="round" stroke-linejoin="round"/>
<defs>
<linearGradient id="paint0_linear_2253_5796" x1="32" y1="6" x2="32" y2="58" gradientUnits="userSpaceOnUse">
<stop stop-color="#0066FF" stop-opacity="0.93"/>
<stop offset="1"/>
</linearGradient>
</defs>
</svg>
