<svg width="1789" height="473" viewBox="0 0 1789 473" fill="none" xmlns="http://www.w3.org/2000/svg">
<path d="M586.36 124.16C586.36 128.64 585.28 132.84 583.12 136.76C581.04 140.68 577.72 143.84 573.16 146.24C568.68 148.64 563 149.84 556.12 149.84H542.08V182H525.28V98.24H556.12C562.6 98.24 568.12 99.36 572.68 101.6C577.24 103.84 580.64 106.92 582.88 110.84C585.2 114.76 586.36 119.2 586.36 124.16ZM555.4 136.28C560.04 136.28 563.48 135.24 565.72 133.16C567.96 131 569.08 128 569.08 124.16C569.08 116 564.52 111.92 555.4 111.92H542.08V136.28H555.4ZM615.088 93.2V182H598.288V93.2H615.088ZM627.366 148.52C627.366 141.8 628.686 135.84 631.326 130.64C634.046 125.44 637.686 121.44 642.246 118.64C646.886 115.84 652.046 114.44 657.726 114.44C662.686 114.44 667.006 115.44 670.686 117.44C674.446 119.44 677.446 121.96 679.686 125V115.52H696.606V182H679.686V172.28C677.526 175.4 674.526 178 670.686 180.08C666.926 182.08 662.566 183.08 657.606 183.08C652.006 183.08 646.886 181.64 642.246 178.76C637.686 175.88 634.046 171.84 631.326 166.64C628.686 161.36 627.366 155.32 627.366 148.52ZM679.686 148.76C679.686 144.68 678.886 141.2 677.286 138.32C675.686 135.36 673.526 133.12 670.806 131.6C668.086 130 665.166 129.2 662.046 129.2C658.926 129.2 656.046 129.96 653.406 131.48C650.766 133 648.606 135.24 646.926 138.2C645.326 141.08 644.526 144.52 644.526 148.52C644.526 152.52 645.326 156.04 646.926 159.08C648.606 162.04 650.766 164.32 653.406 165.92C656.126 167.52 659.006 168.32 662.046 168.32C665.166 168.32 668.086 167.56 670.806 166.04C673.526 164.44 675.686 162.2 677.286 159.32C678.886 156.36 679.686 152.84 679.686 148.76ZM732.574 129.32V161.48C732.574 163.72 733.094 165.36 734.134 166.4C735.254 167.36 737.094 167.84 739.654 167.84H747.454V182H736.894C722.734 182 715.654 175.12 715.654 161.36V129.32H707.734V115.52H715.654V99.08H732.574V115.52H747.454V129.32H732.574ZM755.218 148.52C755.218 141.8 756.538 135.84 759.178 130.64C761.898 125.44 765.538 121.44 770.098 118.64C774.738 115.84 779.898 114.44 785.578 114.44C790.538 114.44 794.858 115.44 798.538 117.44C802.298 119.44 805.298 121.96 807.538 125V115.52H824.458V182H807.538V172.28C805.378 175.4 802.378 178 798.538 180.08C794.778 182.08 790.418 183.08 785.458 183.08C779.858 183.08 774.738 181.64 770.098 178.76C765.538 175.88 761.898 171.84 759.178 166.64C756.538 161.36 755.218 155.32 755.218 148.52ZM807.538 148.76C807.538 144.68 806.738 141.2 805.138 138.32C803.538 135.36 801.378 133.12 798.658 131.6C795.938 130 793.018 129.2 789.898 129.2C786.778 129.2 783.898 129.96 781.258 131.48C778.618 133 776.458 135.24 774.778 138.2C773.178 141.08 772.378 144.52 772.378 148.52C772.378 152.52 773.178 156.04 774.778 159.08C776.458 162.04 778.618 164.32 781.258 165.92C783.978 167.52 786.858 168.32 789.898 168.32C793.018 168.32 795.938 167.56 798.658 166.04C801.378 164.44 803.538 162.2 805.138 159.32C806.738 156.36 807.538 152.84 807.538 148.76ZM871.346 129.32H859.706V182H842.666V129.32H835.106V115.52H842.666V112.16C842.666 104 844.986 98 849.626 94.16C854.266 90.32 861.266 88.52 870.626 88.76V102.92C866.546 102.84 863.706 103.52 862.106 104.96C860.506 106.4 859.706 109 859.706 112.76V115.52H871.346V129.32ZM911.753 183.08C905.353 183.08 899.593 181.68 894.473 178.88C889.353 176 885.313 171.96 882.353 166.76C879.473 161.56 878.033 155.56 878.033 148.76C878.033 141.96 879.513 135.96 882.473 130.76C885.513 125.56 889.633 121.56 894.833 118.76C900.033 115.88 905.833 114.44 912.233 114.44C918.633 114.44 924.433 115.88 929.633 118.76C934.833 121.56 938.913 125.56 941.873 130.76C944.913 135.96 946.433 141.96 946.433 148.76C946.433 155.56 944.873 161.56 941.753 166.76C938.713 171.96 934.553 176 929.273 178.88C924.073 181.68 918.233 183.08 911.753 183.08ZM911.753 168.44C914.793 168.44 917.633 167.72 920.273 166.28C922.993 164.76 925.153 162.52 926.753 159.56C928.353 156.6 929.153 153 929.153 148.76C929.153 142.44 927.473 137.6 924.113 134.24C920.833 130.8 916.793 129.08 911.993 129.08C907.193 129.08 903.153 130.8 899.873 134.24C896.673 137.6 895.073 142.44 895.073 148.76C895.073 155.08 896.633 159.96 899.753 163.4C902.953 166.76 906.953 168.44 911.753 168.44ZM975.557 125.84C977.717 122.32 980.517 119.56 983.957 117.56C987.477 115.56 991.477 114.56 995.957 114.56V132.2H991.517C986.237 132.2 982.237 133.44 979.517 135.92C976.877 138.4 975.557 142.72 975.557 148.88V182H958.757V115.52H975.557V125.84ZM1089.83 114.56C1097.99 114.56 1104.55 117.08 1109.51 122.12C1114.55 127.08 1117.07 134.04 1117.07 143V182H1100.27V145.28C1100.27 140.08 1098.95 136.12 1096.31 133.4C1093.67 130.6 1090.07 129.2 1085.51 129.2C1080.95 129.2 1077.31 130.6 1074.59 133.4C1071.95 136.12 1070.63 140.08 1070.63 145.28V182H1053.83V145.28C1053.83 140.08 1052.51 136.12 1049.87 133.4C1047.23 130.6 1043.63 129.2 1039.07 129.2C1034.43 129.2 1030.75 130.6 1028.03 133.4C1025.39 136.12 1024.07 140.08 1024.07 145.28V182H1007.27V115.52H1024.07V123.56C1026.23 120.76 1028.99 118.56 1032.35 116.96C1035.79 115.36 1039.55 114.56 1043.63 114.56C1048.83 114.56 1053.47 115.68 1057.55 117.92C1061.63 120.08 1064.79 123.2 1067.03 127.28C1069.19 123.44 1072.31 120.36 1076.39 118.04C1080.55 115.72 1085.03 114.56 1089.83 114.56ZM1128.69 148.52C1128.69 141.8 1130.01 135.84 1132.65 130.64C1135.37 125.44 1139.01 121.44 1143.57 118.64C1148.21 115.84 1153.37 114.44 1159.05 114.44C1164.01 114.44 1168.33 115.44 1172.01 117.44C1175.77 119.44 1178.77 121.96 1181.01 125V115.52H1197.93V182H1181.01V172.28C1178.85 175.4 1175.85 178 1172.01 180.08C1168.25 182.08 1163.89 183.08 1158.93 183.08C1153.33 183.08 1148.21 181.64 1143.57 178.76C1139.01 175.88 1135.37 171.84 1132.65 166.64C1130.01 161.36 1128.69 155.32 1128.69 148.52ZM1181.01 148.76C1181.01 144.68 1180.21 141.2 1178.61 138.32C1177.01 135.36 1174.85 133.12 1172.13 131.6C1169.41 130 1166.49 129.2 1163.37 129.2C1160.25 129.2 1157.37 129.96 1154.73 131.48C1152.09 133 1149.93 135.24 1148.25 138.2C1146.65 141.08 1145.85 144.52 1145.85 148.52C1145.85 152.52 1146.65 156.04 1148.25 159.08C1149.93 162.04 1152.09 164.32 1154.73 165.92C1157.45 167.52 1160.33 168.32 1163.37 168.32C1166.49 168.32 1169.41 167.56 1172.13 166.04C1174.85 164.44 1177.01 162.2 1178.61 159.32C1180.21 156.36 1181.01 152.84 1181.01 148.76ZM1238.62 148.52C1238.62 141.8 1239.94 135.84 1242.58 130.64C1245.3 125.44 1248.98 121.44 1253.62 118.64C1258.26 115.84 1263.42 114.44 1269.1 114.44C1273.42 114.44 1277.54 115.4 1281.46 117.32C1285.38 119.16 1288.5 121.64 1290.82 124.76V93.2H1307.86V182H1290.82V172.16C1288.74 175.44 1285.82 178.08 1282.06 180.08C1278.3 182.08 1273.94 183.08 1268.98 183.08C1263.38 183.08 1258.26 181.64 1253.62 178.76C1248.98 175.88 1245.3 171.84 1242.58 166.64C1239.94 161.36 1238.62 155.32 1238.62 148.52ZM1290.94 148.76C1290.94 144.68 1290.14 141.2 1288.54 138.32C1286.94 135.36 1284.78 133.12 1282.06 131.6C1279.34 130 1276.42 129.2 1273.3 129.2C1270.18 129.2 1267.3 129.96 1264.66 131.48C1262.02 133 1259.86 135.24 1258.18 138.2C1256.58 141.08 1255.78 144.52 1255.78 148.52C1255.78 152.52 1256.58 156.04 1258.18 159.08C1259.86 162.04 1262.02 164.32 1264.66 165.92C1267.38 167.52 1270.26 168.32 1273.3 168.32C1276.42 168.32 1279.34 167.56 1282.06 166.04C1284.78 164.44 1286.94 162.2 1288.54 159.32C1290.14 156.36 1290.94 152.84 1290.94 148.76ZM1386.06 147.32C1386.06 149.72 1385.9 151.88 1385.58 153.8H1336.98C1337.38 158.6 1339.06 162.36 1342.02 165.08C1344.98 167.8 1348.62 169.16 1352.94 169.16C1359.18 169.16 1363.62 166.48 1366.26 161.12H1384.38C1382.46 167.52 1378.78 172.8 1373.34 176.96C1367.9 181.04 1361.22 183.08 1353.3 183.08C1346.9 183.08 1341.14 181.68 1336.02 178.88C1330.98 176 1327.02 171.96 1324.14 166.76C1321.34 161.56 1319.94 155.56 1319.94 148.76C1319.94 141.88 1321.34 135.84 1324.14 130.64C1326.94 125.44 1330.86 121.44 1335.9 118.64C1340.94 115.84 1346.74 114.44 1353.3 114.44C1359.62 114.44 1365.26 115.8 1370.22 118.52C1375.26 121.24 1379.14 125.12 1381.86 130.16C1384.66 135.12 1386.06 140.84 1386.06 147.32ZM1368.66 142.52C1368.58 138.2 1367.02 134.76 1363.98 132.2C1360.94 129.56 1357.22 128.24 1352.82 128.24C1348.66 128.24 1345.14 129.52 1342.26 132.08C1339.46 134.56 1337.74 138.04 1337.1 142.52H1368.66ZM582.28 278.24V291.8H559.96V362H543.16V291.8H520.84V278.24H582.28ZM611.338 305.84C613.498 302.32 616.298 299.56 619.738 297.56C623.258 295.56 627.258 294.56 631.738 294.56V312.2H627.298C622.018 312.2 618.018 313.44 615.298 315.92C612.658 318.4 611.338 322.72 611.338 328.88V362H594.538V295.52H611.338V305.84ZM704.853 327.32C704.853 329.72 704.693 331.88 704.373 333.8H655.773C656.173 338.6 657.853 342.36 660.813 345.08C663.773 347.8 667.413 349.16 671.733 349.16C677.973 349.16 682.413 346.48 685.053 341.12H703.173C701.253 347.52 697.573 352.8 692.133 356.96C686.693 361.04 680.013 363.08 672.093 363.08C665.693 363.08 659.933 361.68 654.813 358.88C649.773 356 645.813 351.96 642.933 346.76C640.133 341.56 638.733 335.56 638.733 328.76C638.733 321.88 640.133 315.84 642.933 310.64C645.733 305.44 649.653 301.44 654.693 298.64C659.733 295.84 665.533 294.44 672.093 294.44C678.413 294.44 684.053 295.8 689.013 298.52C694.053 301.24 697.933 305.12 700.653 310.16C703.453 315.12 704.853 320.84 704.853 327.32ZM687.453 322.52C687.373 318.2 685.813 314.76 682.773 312.2C679.733 309.56 676.013 308.24 671.613 308.24C667.453 308.24 663.933 309.52 661.053 312.08C658.253 314.56 656.533 318.04 655.893 322.52H687.453ZM725.636 287.6C722.676 287.6 720.196 286.68 718.196 284.84C716.276 282.92 715.316 280.56 715.316 277.76C715.316 274.96 716.276 272.64 718.196 270.8C720.196 268.88 722.676 267.92 725.636 267.92C728.596 267.92 731.036 268.88 732.956 270.8C734.956 272.64 735.956 274.96 735.956 277.76C735.956 280.56 734.956 282.92 732.956 284.84C731.036 286.68 728.596 287.6 725.636 287.6ZM733.916 295.52V362H717.116V295.52H733.916ZM787.354 294.56C795.274 294.56 801.674 297.08 806.554 302.12C811.434 307.08 813.874 314.04 813.874 323V362H797.074V325.28C797.074 320 795.754 315.96 793.114 313.16C790.474 310.28 786.874 308.84 782.314 308.84C777.674 308.84 773.994 310.28 771.274 313.16C768.634 315.96 767.314 320 767.314 325.28V362H750.514V295.52H767.314V303.8C769.554 300.92 772.394 298.68 775.834 297.08C779.354 295.4 783.194 294.56 787.354 294.56ZM825.53 328.52C825.53 321.8 826.85 315.84 829.49 310.64C832.21 305.44 835.85 301.44 840.41 298.64C845.05 295.84 850.21 294.44 855.89 294.44C860.85 294.44 865.17 295.44 868.85 297.44C872.61 299.44 875.61 301.96 877.85 305V295.52H894.77V362H877.85V352.28C875.69 355.4 872.69 358 868.85 360.08C865.09 362.08 860.73 363.08 855.77 363.08C850.17 363.08 845.05 361.64 840.41 358.76C835.85 355.88 832.21 351.84 829.49 346.64C826.85 341.36 825.53 335.32 825.53 328.52ZM877.85 328.76C877.85 324.68 877.05 321.2 875.45 318.32C873.85 315.36 871.69 313.12 868.97 311.6C866.25 310 863.33 309.2 860.21 309.2C857.09 309.2 854.21 309.96 851.57 311.48C848.93 313 846.77 315.24 845.09 318.2C843.49 321.08 842.69 324.52 842.69 328.52C842.69 332.52 843.49 336.04 845.09 339.08C846.77 342.04 848.93 344.32 851.57 345.92C854.29 347.52 857.17 348.32 860.21 348.32C863.33 348.32 866.25 347.56 868.97 346.04C871.69 344.44 873.85 342.2 875.45 339.32C877.05 336.36 877.85 332.84 877.85 328.76ZM993.738 294.56C1001.9 294.56 1008.46 297.08 1013.42 302.12C1018.46 307.08 1020.98 314.04 1020.98 323V362H1004.18V325.28C1004.18 320.08 1002.86 316.12 1000.22 313.4C997.578 310.6 993.978 309.2 989.418 309.2C984.858 309.2 981.218 310.6 978.498 313.4C975.858 316.12 974.538 320.08 974.538 325.28V362H957.738V325.28C957.738 320.08 956.418 316.12 953.778 313.4C951.138 310.6 947.538 309.2 942.978 309.2C938.338 309.2 934.658 310.6 931.938 313.4C929.298 316.12 927.978 320.08 927.978 325.28V362H911.178V295.52H927.978V303.56C930.138 300.76 932.898 298.56 936.258 296.96C939.698 295.36 943.458 294.56 947.538 294.56C952.738 294.56 957.378 295.68 961.458 297.92C965.538 300.08 968.698 303.2 970.938 307.28C973.098 303.44 976.218 300.36 980.298 298.04C984.458 295.72 988.938 294.56 993.738 294.56ZM1098.72 327.32C1098.72 329.72 1098.56 331.88 1098.24 333.8H1049.64C1050.04 338.6 1051.72 342.36 1054.68 345.08C1057.64 347.8 1061.28 349.16 1065.6 349.16C1071.84 349.16 1076.28 346.48 1078.92 341.12H1097.04C1095.12 347.52 1091.44 352.8 1086 356.96C1080.56 361.04 1073.88 363.08 1065.96 363.08C1059.56 363.08 1053.8 361.68 1048.68 358.88C1043.64 356 1039.68 351.96 1036.8 346.76C1034 341.56 1032.6 335.56 1032.6 328.76C1032.6 321.88 1034 315.84 1036.8 310.64C1039.6 305.44 1043.52 301.44 1048.56 298.64C1053.6 295.84 1059.4 294.44 1065.96 294.44C1072.28 294.44 1077.92 295.8 1082.88 298.52C1087.92 301.24 1091.8 305.12 1094.52 310.16C1097.32 315.12 1098.72 320.84 1098.72 327.32ZM1081.32 322.52C1081.24 318.2 1079.68 314.76 1076.64 312.2C1073.6 309.56 1069.88 308.24 1065.48 308.24C1061.32 308.24 1057.8 309.52 1054.92 312.08C1052.12 314.56 1050.4 318.04 1049.76 322.52H1081.32ZM1147.82 294.56C1155.74 294.56 1162.14 297.08 1167.02 302.12C1171.9 307.08 1174.34 314.04 1174.34 323V362H1157.54V325.28C1157.54 320 1156.22 315.96 1153.58 313.16C1150.94 310.28 1147.34 308.84 1142.78 308.84C1138.14 308.84 1134.46 310.28 1131.74 313.16C1129.1 315.96 1127.78 320 1127.78 325.28V362H1110.98V295.52H1127.78V303.8C1130.02 300.92 1132.86 298.68 1136.3 297.08C1139.82 295.4 1143.66 294.56 1147.82 294.56ZM1209.88 309.32V341.48C1209.88 343.72 1210.4 345.36 1211.44 346.4C1212.56 347.36 1214.4 347.84 1216.96 347.84H1224.76V362H1214.2C1200.04 362 1192.96 355.12 1192.96 341.36V309.32H1185.04V295.52H1192.96V279.08H1209.88V295.52H1224.76V309.32H1209.88ZM1266.36 363.08C1259.96 363.08 1254.2 361.68 1249.08 358.88C1243.96 356 1239.92 351.96 1236.96 346.76C1234.08 341.56 1232.64 335.56 1232.64 328.76C1232.64 321.96 1234.12 315.96 1237.08 310.76C1240.12 305.56 1244.24 301.56 1249.44 298.76C1254.64 295.88 1260.44 294.44 1266.84 294.44C1273.24 294.44 1279.04 295.88 1284.24 298.76C1289.44 301.56 1293.52 305.56 1296.48 310.76C1299.52 315.96 1301.04 321.96 1301.04 328.76C1301.04 335.56 1299.48 341.56 1296.36 346.76C1293.32 351.96 1289.16 356 1283.88 358.88C1278.68 361.68 1272.84 363.08 1266.36 363.08ZM1266.36 348.44C1269.4 348.44 1272.24 347.72 1274.88 346.28C1277.6 344.76 1279.76 342.52 1281.36 339.56C1282.96 336.6 1283.76 333 1283.76 328.76C1283.76 322.44 1282.08 317.6 1278.72 314.24C1275.44 310.8 1271.4 309.08 1266.6 309.08C1261.8 309.08 1257.76 310.8 1254.48 314.24C1251.28 317.6 1249.68 322.44 1249.68 328.76C1249.68 335.08 1251.24 339.96 1254.36 343.4C1257.56 346.76 1261.56 348.44 1266.36 348.44ZM1338.81 363.08C1333.37 363.08 1328.49 362.12 1324.17 360.2C1319.85 358.2 1316.41 355.52 1313.85 352.16C1311.37 348.8 1310.01 345.08 1309.77 341H1326.69C1327.01 343.56 1328.25 345.68 1330.41 347.36C1332.65 349.04 1335.41 349.88 1338.69 349.88C1341.89 349.88 1344.37 349.24 1346.13 347.96C1347.97 346.68 1348.89 345.04 1348.89 343.04C1348.89 340.88 1347.77 339.28 1345.53 338.24C1343.37 337.12 1339.89 335.92 1335.09 334.64C1330.13 333.44 1326.05 332.2 1322.85 330.92C1319.73 329.64 1317.01 327.68 1314.69 325.04C1312.45 322.4 1311.33 318.84 1311.33 314.36C1311.33 310.68 1312.37 307.32 1314.45 304.28C1316.61 301.24 1319.65 298.84 1323.57 297.08C1327.57 295.32 1332.25 294.44 1337.61 294.44C1345.53 294.44 1351.85 296.44 1356.57 300.44C1361.29 304.36 1363.89 309.68 1364.37 316.4H1348.29C1348.05 313.76 1346.93 311.68 1344.93 310.16C1343.01 308.56 1340.41 307.76 1337.13 307.76C1334.09 307.76 1331.73 308.32 1330.05 309.44C1328.45 310.56 1327.65 312.12 1327.65 314.12C1327.65 316.36 1328.77 318.08 1331.01 319.28C1333.25 320.4 1336.73 321.56 1341.45 322.76C1346.25 323.96 1350.21 325.2 1353.33 326.48C1356.45 327.76 1359.13 329.76 1361.37 332.48C1363.69 335.12 1364.89 338.64 1364.97 343.04C1364.97 346.88 1363.89 350.32 1361.73 353.36C1359.65 356.4 1356.61 358.8 1352.61 360.56C1348.69 362.24 1344.09 363.08 1338.81 363.08ZM1446.23 362.84C1438.39 362.84 1431.19 361 1424.63 357.32C1418.07 353.64 1412.87 348.56 1409.03 342.08C1405.19 335.52 1403.27 328.12 1403.27 319.88C1403.27 311.72 1405.19 304.4 1409.03 297.92C1412.87 291.36 1418.07 286.24 1424.63 282.56C1431.19 278.88 1438.39 277.04 1446.23 277.04C1454.15 277.04 1461.35 278.88 1467.83 282.56C1474.39 286.24 1479.55 291.36 1483.31 297.92C1487.15 304.4 1489.07 311.72 1489.07 319.88C1489.07 328.12 1487.15 335.52 1483.31 342.08C1479.55 348.56 1474.39 353.64 1467.83 357.32C1461.27 361 1454.07 362.84 1446.23 362.84ZM1446.23 347.84C1451.27 347.84 1455.71 346.72 1459.55 344.48C1463.39 342.16 1466.39 338.88 1468.55 334.64C1470.71 330.4 1471.79 325.48 1471.79 319.88C1471.79 314.28 1470.71 309.4 1468.55 305.24C1466.39 301 1463.39 297.76 1459.55 295.52C1455.71 293.28 1451.27 292.16 1446.23 292.16C1441.19 292.16 1436.71 293.28 1432.79 295.52C1428.95 297.76 1425.95 301 1423.79 305.24C1421.63 309.4 1420.55 314.28 1420.55 319.88C1420.55 325.48 1421.63 330.4 1423.79 334.64C1425.95 338.88 1428.95 342.16 1432.79 344.48C1436.71 346.72 1441.19 347.84 1446.23 347.84ZM1538.41 294.56C1546.33 294.56 1552.73 297.08 1557.61 302.12C1562.49 307.08 1564.93 314.04 1564.93 323V362H1548.13V325.28C1548.13 320 1546.81 315.96 1544.17 313.16C1541.53 310.28 1537.93 308.84 1533.37 308.84C1528.73 308.84 1525.05 310.28 1522.33 313.16C1519.69 315.96 1518.37 320 1518.37 325.28V362H1501.57V295.52H1518.37V303.8C1520.61 300.92 1523.45 298.68 1526.89 297.08C1530.41 295.4 1534.25 294.56 1538.41 294.56ZM1597.71 273.2V362H1580.91V273.2H1597.71ZM1622.82 287.6C1619.86 287.6 1617.38 286.68 1615.38 284.84C1613.46 282.92 1612.5 280.56 1612.5 277.76C1612.5 274.96 1613.46 272.64 1615.38 270.8C1617.38 268.88 1619.86 267.92 1622.82 267.92C1625.78 267.92 1628.22 268.88 1630.14 270.8C1632.14 272.64 1633.14 274.96 1633.14 277.76C1633.14 280.56 1632.14 282.92 1630.14 284.84C1628.22 286.68 1625.78 287.6 1622.82 287.6ZM1631.1 295.52V362H1614.3V295.52H1631.1ZM1684.54 294.56C1692.46 294.56 1698.86 297.08 1703.74 302.12C1708.62 307.08 1711.06 314.04 1711.06 323V362H1694.26V325.28C1694.26 320 1692.94 315.96 1690.3 313.16C1687.66 310.28 1684.06 308.84 1679.5 308.84C1674.86 308.84 1671.18 310.28 1668.46 313.16C1665.82 315.96 1664.5 320 1664.5 325.28V362H1647.7V295.52H1664.5V303.8C1666.74 300.92 1669.58 298.68 1673.02 297.08C1676.54 295.4 1680.38 294.56 1684.54 294.56ZM1788.84 327.32C1788.84 329.72 1788.68 331.88 1788.36 333.8H1739.76C1740.16 338.6 1741.84 342.36 1744.8 345.08C1747.76 347.8 1751.4 349.16 1755.72 349.16C1761.96 349.16 1766.4 346.48 1769.04 341.12H1787.16C1785.24 347.52 1781.56 352.8 1776.12 356.96C1770.68 361.04 1764 363.08 1756.08 363.08C1749.68 363.08 1743.92 361.68 1738.8 358.88C1733.76 356 1729.8 351.96 1726.92 346.76C1724.12 341.56 1722.72 335.56 1722.72 328.76C1722.72 321.88 1724.12 315.84 1726.92 310.64C1729.72 305.44 1733.64 301.44 1738.68 298.64C1743.72 295.84 1749.52 294.44 1756.08 294.44C1762.4 294.44 1768.04 295.8 1773 298.52C1778.04 301.24 1781.92 305.12 1784.64 310.16C1787.44 315.12 1788.84 320.84 1788.84 327.32ZM1771.44 322.52C1771.36 318.2 1769.8 314.76 1766.76 312.2C1763.72 309.56 1760 308.24 1755.6 308.24C1751.44 308.24 1747.92 309.52 1745.04 312.08C1742.24 314.56 1740.52 318.04 1739.88 322.52H1771.44Z" fill="#FFFEFE"/>
<g filter="url(#filter0_d_2037_8163)">
<rect x="4" width="464" height="464.221" rx="40" fill="url(#paint0_linear_2037_8163)" shape-rendering="crispEdges"/>
</g>
<g filter="url(#filter1_d_2037_8163)">
<rect x="4" width="464" height="464.221" rx="40" fill="url(#paint1_linear_2037_8163)" shape-rendering="crispEdges"/>
</g>
<path d="M84.9864 244.455V223.295H75.3864V216.455H102.786V223.295H92.9064V244.455H84.9864ZM107.637 244.455V223.135H114.557L114.957 230.535L113.077 229.895C113.45 228.562 114.063 227.348 114.917 226.255C115.797 225.162 116.823 224.295 117.997 223.655C119.197 223.015 120.45 222.695 121.757 222.695C122.45 222.695 123.117 222.762 123.757 222.895C124.397 223.002 124.957 223.162 125.437 223.375L123.397 231.535C123.023 231.242 122.463 231.002 121.717 230.815C120.997 230.628 120.25 230.535 119.477 230.535C118.757 230.535 118.117 230.655 117.557 230.895C117.023 231.108 116.57 231.415 116.197 231.815C115.823 232.188 115.543 232.628 115.357 233.135C115.17 233.615 115.077 234.148 115.077 234.735V244.455H107.637ZM139.74 244.815C137.66 244.815 135.834 244.348 134.26 243.415C132.687 242.482 131.46 241.188 130.58 239.535C129.7 237.855 129.26 235.935 129.26 233.775C129.26 231.588 129.7 229.668 130.58 228.015C131.46 226.362 132.687 225.068 134.26 224.135C135.86 223.175 137.714 222.695 139.82 222.695C140.994 222.695 142.074 222.842 143.06 223.135C144.074 223.402 144.94 223.802 145.66 224.335C146.407 224.842 147.02 225.402 147.5 226.015C148.007 226.602 148.38 227.228 148.62 227.895L147.02 227.975V223.135H154.3V244.455H146.86V238.935L148.42 239.255C148.234 239.975 147.887 240.668 147.38 241.335C146.9 242.002 146.274 242.602 145.5 243.135C144.727 243.642 143.86 244.055 142.9 244.375C141.94 244.668 140.887 244.815 139.74 244.815ZM141.82 238.695C142.887 238.695 143.807 238.508 144.58 238.135C145.38 237.735 145.994 237.162 146.42 236.415C146.847 235.668 147.06 234.788 147.06 233.775C147.06 232.762 146.847 231.882 146.42 231.135C145.994 230.388 145.38 229.815 144.58 229.415C143.807 229.015 142.887 228.815 141.82 228.815C140.727 228.815 139.794 229.015 139.02 229.415C138.247 229.815 137.647 230.388 137.22 231.135C136.82 231.882 136.62 232.762 136.62 233.775C136.62 234.788 136.82 235.668 137.22 236.415C137.647 237.162 138.247 237.735 139.02 238.135C139.794 238.508 140.727 238.695 141.82 238.695ZM164.362 244.455V223.135H171.802V244.455H164.362ZM168.082 218.935C166.749 218.935 165.695 218.628 164.922 218.015C164.175 217.375 163.802 216.482 163.802 215.335C163.802 214.268 164.189 213.402 164.962 212.735C165.735 212.042 166.775 211.695 168.082 211.695C169.442 211.695 170.495 212.015 171.242 212.655C172.015 213.268 172.402 214.162 172.402 215.335C172.402 216.402 172.015 217.268 171.242 217.935C170.469 218.602 169.415 218.935 168.082 218.935ZM182.051 244.455V223.135H188.971L189.331 228.095L187.571 228.575C187.891 227.508 188.464 226.535 189.291 225.655C190.117 224.748 191.144 224.028 192.371 223.495C193.597 222.962 194.944 222.695 196.411 222.695C198.197 222.695 199.717 223.055 200.971 223.775C202.251 224.495 203.211 225.522 203.851 226.855C204.491 228.162 204.811 229.722 204.811 231.535V244.455H197.371V232.655C197.371 231.828 197.224 231.135 196.931 230.575C196.637 230.015 196.197 229.588 195.611 229.295C195.051 228.975 194.384 228.815 193.611 228.815C192.944 228.815 192.357 228.922 191.851 229.135C191.344 229.348 190.917 229.642 190.571 230.015C190.224 230.362 189.957 230.762 189.771 231.215C189.584 231.642 189.491 232.082 189.491 232.535V244.455H185.771C184.731 244.455 183.904 244.455 183.291 244.455C182.677 244.455 182.264 244.455 182.051 244.455ZM214.636 244.455V223.135H222.076V244.455H214.636ZM218.356 218.935C217.022 218.935 215.969 218.628 215.196 218.015C214.449 217.375 214.076 216.482 214.076 215.335C214.076 214.268 214.462 213.402 215.236 212.735C216.009 212.042 217.049 211.695 218.356 211.695C219.716 211.695 220.769 212.015 221.516 212.655C222.289 213.268 222.676 214.162 222.676 215.335C222.676 216.402 222.289 217.268 221.516 217.935C220.742 218.602 219.689 218.935 218.356 218.935ZM232.324 244.455V223.135H239.244L239.604 228.095L237.844 228.575C238.164 227.508 238.738 226.535 239.564 225.655C240.391 224.748 241.418 224.028 242.644 223.495C243.871 222.962 245.218 222.695 246.684 222.695C248.471 222.695 249.991 223.055 251.244 223.775C252.524 224.495 253.484 225.522 254.124 226.855C254.764 228.162 255.084 229.722 255.084 231.535V244.455H247.644V232.655C247.644 231.828 247.498 231.135 247.204 230.575C246.911 230.015 246.471 229.588 245.884 229.295C245.324 228.975 244.658 228.815 243.884 228.815C243.218 228.815 242.631 228.922 242.124 229.135C241.618 229.348 241.191 229.642 240.844 230.015C240.498 230.362 240.231 230.762 240.044 231.215C239.858 231.642 239.764 232.082 239.764 232.535V244.455H236.044C235.004 244.455 234.178 244.455 233.564 244.455C232.951 244.455 232.538 244.455 232.324 244.455ZM275.549 253.655C273.336 253.655 271.269 253.388 269.349 252.855C267.456 252.322 265.909 251.655 264.709 250.855L267.229 245.695C267.816 246.015 268.456 246.322 269.149 246.615C269.869 246.908 270.656 247.135 271.509 247.295C272.389 247.482 273.336 247.575 274.349 247.575C275.682 247.575 276.789 247.362 277.669 246.935C278.549 246.535 279.216 245.908 279.669 245.055C280.149 244.202 280.389 243.135 280.389 241.855V239.135L281.989 239.335C281.749 240.188 281.202 240.975 280.349 241.695C279.496 242.388 278.429 242.948 277.149 243.375C275.896 243.802 274.536 244.015 273.069 244.015C270.989 244.015 269.162 243.588 267.589 242.735C266.016 241.855 264.776 240.642 263.869 239.095C262.962 237.548 262.509 235.735 262.509 233.655C262.509 231.495 262.962 229.602 263.869 227.975C264.802 226.322 266.069 225.028 267.669 224.095C269.269 223.162 271.109 222.695 273.189 222.695C273.909 222.695 274.669 222.775 275.469 222.935C276.269 223.068 277.042 223.268 277.789 223.535C278.536 223.802 279.216 224.148 279.829 224.575C280.442 224.975 280.949 225.428 281.349 225.935C281.749 226.415 281.989 226.948 282.069 227.535L280.549 227.895L280.949 223.135H287.869V241.855C287.869 243.802 287.562 245.495 286.949 246.935C286.336 248.402 285.469 249.628 284.349 250.615C283.256 251.628 281.949 252.388 280.429 252.895C278.936 253.402 277.309 253.655 275.549 253.655ZM275.309 238.575C276.402 238.575 277.349 238.375 278.149 237.975C278.949 237.575 279.549 237.015 279.949 236.295C280.376 235.575 280.589 234.708 280.589 233.695C280.589 232.682 280.376 231.815 279.949 231.095C279.549 230.348 278.949 229.788 278.149 229.415C277.349 229.015 276.402 228.815 275.309 228.815C274.162 228.815 273.189 229.015 272.389 229.415C271.589 229.788 270.962 230.348 270.509 231.095C270.056 231.815 269.829 232.682 269.829 233.695C269.829 234.708 270.056 235.575 270.509 236.295C270.962 237.015 271.589 237.575 272.389 237.975C273.189 238.375 274.162 238.575 275.309 238.575ZM305.489 244.855C303.009 244.855 300.809 244.508 298.889 243.815C296.969 243.122 295.436 242.175 294.289 240.975L298.689 237.135C299.569 237.935 300.662 238.562 301.969 239.015C303.276 239.442 304.596 239.655 305.929 239.655C306.329 239.655 306.702 239.628 307.049 239.575C307.396 239.495 307.689 239.402 307.929 239.295C308.169 239.188 308.356 239.055 308.489 238.895C308.649 238.708 308.729 238.508 308.729 238.295C308.729 237.895 308.462 237.575 307.929 237.335C307.529 237.202 306.969 237.068 306.249 236.935C305.556 236.775 304.782 236.615 303.929 236.455C302.516 236.188 301.262 235.882 300.169 235.535C299.076 235.162 298.142 234.695 297.369 234.135C296.676 233.575 296.129 232.908 295.729 232.135C295.329 231.362 295.129 230.482 295.129 229.495C295.129 228.428 295.396 227.482 295.929 226.655C296.489 225.802 297.236 225.082 298.169 224.495C299.129 223.908 300.222 223.468 301.449 223.175C302.676 222.855 303.942 222.695 305.249 222.695C306.609 222.695 307.916 222.815 309.169 223.055C310.449 223.295 311.662 223.642 312.809 224.095C313.956 224.548 314.969 225.135 315.849 225.855L312.129 230.175C311.542 229.775 310.862 229.402 310.089 229.055C309.316 228.682 308.476 228.375 307.569 228.135C306.662 227.895 305.782 227.775 304.929 227.775C304.529 227.775 304.156 227.802 303.809 227.855C303.489 227.908 303.209 227.988 302.969 228.095C302.756 228.202 302.582 228.335 302.449 228.495C302.316 228.655 302.249 228.828 302.249 229.015C302.222 229.255 302.276 229.455 302.409 229.615C302.542 229.775 302.716 229.922 302.929 230.055C303.302 230.268 303.849 230.455 304.569 230.615C305.289 230.775 306.209 230.975 307.329 231.215C309.062 231.562 310.516 231.975 311.689 232.455C312.862 232.908 313.809 233.442 314.529 234.055C315.009 234.508 315.369 235.042 315.609 235.655C315.876 236.242 316.009 236.895 316.009 237.615C316.009 239.002 315.556 240.242 314.649 241.335C313.769 242.428 312.542 243.295 310.969 243.935C309.422 244.548 307.596 244.855 305.489 244.855Z" fill="white"/>
<path d="M68.68 164V80H112.36C118.28 80 123.56 81.24 128.2 83.72C132.84 86.2 136.48 89.6 139.12 93.92C141.84 98.24 143.2 103.2 143.2 108.8C143.2 114.72 141.8 120 139 124.64C136.28 129.28 132.52 132.92 127.72 135.56C122.92 138.2 117.48 139.52 111.4 139.52H94.6V164H68.68ZM94.12 117.44H106.24C108.08 117.44 109.76 117.12 111.28 116.48C112.88 115.84 114.12 114.92 115 113.72C115.88 112.52 116.32 111.04 116.32 109.28C116.32 107.6 115.88 106.24 115 105.2C114.12 104.16 112.88 103.4 111.28 102.92C109.76 102.36 108.08 102.08 106.24 102.08H94.12V117.44ZM199.426 165.2C192.626 165.2 186.546 164.56 181.186 163.28C175.826 161.92 171.066 160.08 166.906 157.76C162.826 155.44 159.106 152.84 155.746 149.96L168.826 131.72C174.266 136.44 179.786 139.68 185.386 141.44C191.066 143.12 196.186 143.96 200.746 143.96C202.266 143.96 203.826 143.88 205.426 143.72C207.026 143.48 208.306 143 209.266 142.28C210.306 141.56 210.826 140.48 210.826 139.04C210.826 138.08 210.506 137.28 209.866 136.64C209.226 135.92 208.306 135.36 207.106 134.96C205.986 134.48 204.666 134.08 203.146 133.76C201.626 133.44 200.026 133.16 198.346 132.92C196.666 132.68 194.866 132.44 192.946 132.2C187.746 131.4 183.106 130.28 179.026 128.84C175.026 127.32 171.626 125.44 168.826 123.2C166.106 120.96 164.026 118.36 162.586 115.4C161.146 112.44 160.426 109.08 160.426 105.32C160.426 101.08 161.426 97.24 163.426 93.8C165.506 90.36 168.306 87.44 171.826 85.04C175.426 82.64 179.506 80.8 184.066 79.52C188.626 78.24 193.426 77.6 198.466 77.6C204.866 77.6 210.306 78.16 214.786 79.28C219.346 80.4 223.226 81.92 226.426 83.84C229.706 85.76 232.466 87.88 234.706 90.2L221.386 105.92C219.306 104.4 216.986 103.16 214.426 102.2C211.866 101.16 209.226 100.4 206.506 99.92C203.866 99.36 201.306 99.08 198.826 99.08C196.506 99.08 194.466 99.24 192.706 99.56C191.026 99.8 189.666 100.28 188.626 101C187.666 101.64 187.186 102.56 187.186 103.76C187.186 104.88 187.746 105.8 188.866 106.52C190.066 107.16 191.546 107.72 193.306 108.2C195.066 108.6 196.826 108.92 198.586 109.16C200.426 109.32 201.946 109.48 203.146 109.64C207.706 110.28 212.026 111.16 216.106 112.28C220.266 113.4 223.946 114.92 227.146 116.84C230.346 118.76 232.826 121.36 234.586 124.64C236.426 127.84 237.346 131.88 237.346 136.76C237.346 142.92 235.626 148.12 232.186 152.36C228.826 156.6 224.266 159.8 218.506 161.96C212.826 164.12 206.466 165.2 199.426 165.2Z" fill="url(#paint2_linear_2037_8163)"/>
<path d="M371 309C385.056 309 398.537 314.584 408.477 324.523C418.416 334.463 424 347.944 424 362C424 376.056 418.416 389.537 408.477 399.477C398.537 409.416 385.056 415 371 415C356.944 415 343.463 409.416 333.523 399.477C323.584 389.537 318 376.056 318 362C318 347.944 323.584 334.463 333.523 324.523C343.463 314.584 356.944 309 371 309ZM327.938 362C327.938 373.421 332.474 384.374 340.55 392.45C348.626 400.526 359.579 405.062 371 405.062C382.421 405.062 393.374 400.526 401.45 392.45C409.526 384.374 414.062 373.421 414.062 362C414.062 350.579 409.526 339.626 401.45 331.55C393.374 323.474 382.421 318.938 371 318.938C359.579 318.938 348.626 323.474 340.55 331.55C332.474 339.626 327.938 350.579 327.938 362ZM360.261 343.629L388.51 360.582C388.754 360.73 388.956 360.938 389.096 361.186C389.236 361.434 389.31 361.715 389.31 362C389.31 362.285 389.236 362.566 389.096 362.814C388.956 363.062 388.754 363.27 388.51 363.418L360.261 380.371C360.01 380.522 359.723 380.604 359.43 380.608C359.136 380.613 358.847 380.539 358.592 380.395C358.337 380.25 358.124 380.041 357.976 379.788C357.828 379.535 357.75 379.247 357.75 378.953V345.053C357.749 344.759 357.826 344.471 357.974 344.216C358.121 343.962 358.333 343.752 358.589 343.607C358.845 343.462 359.134 343.388 359.428 343.391C359.722 343.395 360.009 343.477 360.261 343.629Z" fill="#00B2FF"/>
<defs>
<filter id="filter0_d_2037_8163" x="0" y="0" width="472" height="472.221" filterUnits="userSpaceOnUse" color-interpolation-filters="sRGB">
<feFlood flood-opacity="0" result="BackgroundImageFix"/>
<feColorMatrix in="SourceAlpha" type="matrix" values="0 0 0 0 0 0 0 0 0 0 0 0 0 0 0 0 0 0 127 0" result="hardAlpha"/>
<feOffset dy="4"/>
<feGaussianBlur stdDeviation="2"/>
<feComposite in2="hardAlpha" operator="out"/>
<feColorMatrix type="matrix" values="0 0 0 0 0 0 0 0 0 0 0 0 0 0 0 0 0 0 0.25 0"/>
<feBlend mode="normal" in2="BackgroundImageFix" result="effect1_dropShadow_2037_8163"/>
<feBlend mode="normal" in="SourceGraphic" in2="effect1_dropShadow_2037_8163" result="shape"/>
</filter>
<filter id="filter1_d_2037_8163" x="0" y="0" width="472" height="472.221" filterUnits="userSpaceOnUse" color-interpolation-filters="sRGB">
<feFlood flood-opacity="0" result="BackgroundImageFix"/>
<feColorMatrix in="SourceAlpha" type="matrix" values="0 0 0 0 0 0 0 0 0 0 0 0 0 0 0 0 0 0 127 0" result="hardAlpha"/>
<feOffset dy="4"/>
<feGaussianBlur stdDeviation="2"/>
<feComposite in2="hardAlpha" operator="out"/>
<feColorMatrix type="matrix" values="0 0 0 0 0 0 0 0 0 0 0 0 0 0 0 0 0 0 0.25 0"/>
<feBlend mode="normal" in2="BackgroundImageFix" result="effect1_dropShadow_2037_8163"/>
<feBlend mode="normal" in="SourceGraphic" in2="effect1_dropShadow_2037_8163" result="shape"/>
</filter>
<linearGradient id="paint0_linear_2037_8163" x1="444.06" y1="25.9273" x2="31.2006" y2="435.134" gradientUnits="userSpaceOnUse">
<stop offset="0.337702"/>
<stop offset="0.93" stop-color="#0066FF" stop-opacity="0.93"/>
</linearGradient>
<linearGradient id="paint1_linear_2037_8163" x1="444.06" y1="25.9273" x2="31.2006" y2="435.134" gradientUnits="userSpaceOnUse">
<stop offset="0.337702"/>
<stop offset="0.93" stop-color="#0066FF" stop-opacity="0.93"/>
</linearGradient>
<linearGradient id="paint2_linear_2037_8163" x1="218" y1="44" x2="218" y2="204" gradientUnits="userSpaceOnUse">
<stop offset="0.555" stop-color="white"/>
<stop offset="1" stop-color="#999999"/>
</linearGradient>
</defs>
</svg>
