<svg width="160" height="160" viewBox="0 0 160 160" fill="none" xmlns="http://www.w3.org/2000/svg">
<circle cx="80" cy="80" r="77" fill="white" stroke="url(#paint0_linear_2123_29)" stroke-width="6"/>
<path d="M80 32C86.3652 32 92.4697 34.5286 96.9706 39.0294C101.471 43.5303 104 49.6348 104 56C104 62.3652 101.471 68.4697 96.9706 72.9706C92.4697 77.4714 86.3652 80 80 80C73.6348 80 67.5303 77.4714 63.0294 72.9706C58.5286 68.4697 56 62.3652 56 56C56 49.6348 58.5286 43.5303 63.0294 39.0294C67.5303 34.5286 73.6348 32 80 32ZM80 92C106.52 92 128 102.74 128 116V128H32V116C32 102.74 53.48 92 80 92Z" fill="url(#paint1_linear_2123_29)" fill-opacity="0.93"/>
<defs>
<linearGradient id="paint0_linear_2123_29" x1="80" y1="0" x2="80" y2="160" gradientUnits="userSpaceOnUse">
<stop stop-color="#0066FF" stop-opacity="0.93"/>
<stop offset="1" stop-color="#00B2FF"/>
</linearGradient>
<linearGradient id="paint1_linear_2123_29" x1="80" y1="32" x2="80" y2="128" gradientUnits="userSpaceOnUse">
<stop stop-color="#0066FF"/>
<stop offset="1" stop-color="#003D99"/>
</linearGradient>
</defs>
</svg>
