<svg width="154" height="126" viewBox="0 0 154 126" fill="none" xmlns="http://www.w3.org/2000/svg">
<path fill-rule="evenodd" clip-rule="evenodd" d="M70.5216 1.0158C74.1978 -0.165434 78.1262 -0.319636 81.8835 0.569824L83.4743 1.0158L129.671 15.8535C131.015 16.2995 132.224 17.1348 133.107 18.3029L133.602 19.0462L153.045 52.6504C153.537 53.4993 153.847 54.4412 153.956 55.4164C154.065 56.3917 153.97 57.379 153.678 58.3156C153.385 59.2522 152.901 60.1176 152.257 60.857C151.613 61.5964 150.822 62.1936 149.935 62.6106L149.086 62.9434L134.585 67.6014V98.2537C134.584 101.056 133.752 103.795 132.195 106.124C130.639 108.453 128.426 110.267 125.839 111.336L124.764 111.732L83.4743 124.984C79.7981 126.165 75.8696 126.32 72.1124 125.43L70.5216 124.991L29.2314 111.732C26.5657 110.875 24.2141 109.245 22.4746 107.048C20.7351 104.852 19.686 102.188 19.4603 99.3934L19.4108 98.2466V67.6014L4.90979 62.9434C3.97722 62.6437 3.11701 62.1533 2.38368 61.5033C1.65035 60.8533 1.0599 60.0578 0.649766 59.1673C0.239631 58.2768 0.0187563 57.3107 0.00114343 56.3302C-0.0164695 55.3497 0.169565 54.3763 0.547451 53.4716L0.950454 52.6504L20.3936 19.0462C21.1224 17.7871 22.221 16.7835 23.5399 16.1721L24.3176 15.8535L70.5216 1.0158ZM84.0682 65.1591V109.927L120.445 98.2466V72.1461L98.5975 79.1615C97.1965 79.6114 95.6901 79.6125 94.2884 79.1646C92.8867 78.7166 91.6595 77.842 90.7778 76.6626L90.3253 75.9688L84.0682 65.1591ZM69.9277 65.1591L63.6705 75.9688C62.862 77.3657 61.6009 78.4439 60.0963 79.0246C58.5917 79.6053 56.9341 79.6536 55.3984 79.1615L33.5513 72.1461V98.2466L69.9277 109.934V65.1591ZM29.7687 31.0735L17.5867 52.1478L54.2883 63.9415L66.4845 42.8672L29.7687 31.0735ZM124.227 31.0735L87.5114 42.8672L99.7005 63.9415L136.409 52.1478L124.227 31.0735ZM79.1544 14.4943C78.0351 14.1364 76.8444 14.0634 75.6899 14.282L74.8415 14.4943L49.6361 22.5928L76.9979 31.3779L104.36 22.5928L79.1544 14.4943Z" fill="#0066FF" fill-opacity="0.5"/>
</svg>
