<svg width="250" height="231" viewBox="0 0 250 231" fill="none" xmlns="http://www.w3.org/2000/svg">
<path d="M116.793 8.45825C131.034 8.45825 144.691 14.1234 154.761 24.2074C164.83 34.2914 170.488 47.9682 170.488 62.2291C170.488 76.49 164.83 90.1668 154.761 100.251C144.691 110.335 131.034 116 116.793 116C102.553 116 88.8954 110.335 78.8258 100.251C68.7562 90.1668 63.0991 76.49 63.0991 62.2291C63.0991 47.9682 68.7562 34.2914 78.8258 24.2074C88.8954 14.1234 102.553 8.45825 116.793 8.45825ZM73.1668 62.2291C73.1668 73.8161 77.7631 84.9285 85.9447 93.1217C94.1263 101.315 105.223 105.918 116.793 105.918C128.364 105.918 139.46 101.315 147.642 93.1217C155.824 84.9285 160.42 73.8161 160.42 62.2291C160.42 50.6421 155.824 39.5297 147.642 31.3364C139.46 23.1432 128.364 18.5403 116.793 18.5403C105.223 18.5403 94.1263 23.1432 85.9447 31.3364C77.7631 39.5297 73.1668 50.6421 73.1668 62.2291ZM105.914 43.5908L134.533 60.7907C134.78 60.9403 134.984 61.1513 135.126 61.4033C135.268 61.6553 135.343 61.9397 135.343 62.2291C135.343 62.5184 135.268 62.8029 135.126 63.0549C134.984 63.3069 134.78 63.5179 134.533 63.6675L105.914 80.8674C105.659 81.0209 105.368 81.104 105.071 81.1082C104.774 81.1124 104.481 81.0375 104.223 80.8912C103.964 80.745 103.749 80.5325 103.599 80.2756C103.449 80.0187 103.37 79.7266 103.37 79.429V45.0359C103.369 44.7378 103.447 44.4448 103.596 44.1869C103.746 43.9291 103.961 43.7157 104.22 43.5686C104.479 43.4215 104.772 43.346 105.07 43.3499C105.367 43.3538 105.659 43.437 105.914 43.5908Z" fill="#0066FF" fill-opacity="0.93"/>
<line y1="-6" x2="100" y2="-6" transform="matrix(-0.792447 0.60994 -0.608848 -0.793287 151.245 26)" stroke="#0066FF" stroke-opacity="0.93" stroke-width="12"/>
<path d="M15.5455 177H2.64205V142.091H15.5284C19.0852 142.091 22.1477 142.79 24.7159 144.188C27.2955 145.574 29.2841 147.574 30.6818 150.188C32.0795 152.79 32.7784 155.903 32.7784 159.528C32.7784 163.165 32.0795 166.29 30.6818 168.903C29.2955 171.517 27.3125 173.523 24.733 174.92C22.1534 176.307 19.0909 177 15.5455 177ZM11.0795 169.807H15.2216C17.1761 169.807 18.8295 169.477 20.1818 168.818C21.5455 168.148 22.5739 167.062 23.267 165.562C23.9716 164.051 24.3239 162.04 24.3239 159.528C24.3239 157.017 23.9716 155.017 23.267 153.528C22.5625 152.028 21.5227 150.949 20.1477 150.29C18.7841 149.619 17.1023 149.284 15.1023 149.284H11.0795V169.807ZM49.9432 177.494C47.2045 177.494 44.8409 176.955 42.8523 175.875C40.875 174.784 39.3523 173.233 38.2841 171.222C37.2273 169.199 36.6989 166.795 36.6989 164.011C36.6989 161.307 37.233 158.943 38.3011 156.92C39.3693 154.886 40.875 153.307 42.8182 152.182C44.7614 151.045 47.0511 150.477 49.6875 150.477C51.5511 150.477 53.2557 150.767 54.8011 151.347C56.3466 151.926 57.6818 152.784 58.8068 153.92C59.9318 155.057 60.8068 156.46 61.4318 158.131C62.0568 159.79 62.3693 161.693 62.3693 163.841V165.92H39.6136V161.08H54.6136C54.6023 160.193 54.392 159.403 53.983 158.71C53.5739 158.017 53.0114 157.477 52.2955 157.091C51.5909 156.693 50.7784 156.494 49.858 156.494C48.9261 156.494 48.0909 156.705 47.3523 157.125C46.6136 157.534 46.0284 158.097 45.5966 158.812C45.1648 159.517 44.9375 160.318 44.9148 161.216V166.142C44.9148 167.21 45.125 168.148 45.5455 168.955C45.9659 169.75 46.5625 170.369 47.3352 170.812C48.108 171.256 49.0284 171.477 50.0966 171.477C50.8352 171.477 51.5057 171.375 52.108 171.17C52.7102 170.966 53.2273 170.665 53.6591 170.267C54.0909 169.869 54.4148 169.381 54.6307 168.801L62.2841 169.023C61.9659 170.739 61.267 172.233 60.1875 173.506C59.1193 174.767 57.7159 175.75 55.9773 176.455C54.2386 177.148 52.2273 177.494 49.9432 177.494ZM89.4844 158.812L81.831 159.017C81.7514 158.472 81.5355 157.989 81.1832 157.568C80.831 157.136 80.3707 156.801 79.8026 156.562C79.2457 156.312 78.598 156.188 77.8594 156.188C76.8935 156.188 76.0696 156.381 75.3878 156.767C74.7173 157.153 74.3878 157.676 74.3991 158.335C74.3878 158.847 74.5923 159.29 75.0128 159.665C75.4446 160.04 76.2116 160.341 77.3139 160.568L82.3594 161.523C84.973 162.023 86.9162 162.852 88.1889 164.011C89.473 165.17 90.1207 166.705 90.1321 168.614C90.1207 170.409 89.5866 171.972 88.5298 173.301C87.4844 174.631 86.0526 175.665 84.2344 176.403C82.4162 177.131 80.3366 177.494 77.9957 177.494C74.2571 177.494 71.3082 176.727 69.1491 175.193C67.0014 173.648 65.7741 171.58 65.4673 168.989L73.7003 168.784C73.8821 169.739 74.3537 170.466 75.1151 170.966C75.8764 171.466 76.848 171.716 78.0298 171.716C79.098 171.716 79.9673 171.517 80.6378 171.119C81.3082 170.722 81.6491 170.193 81.6605 169.534C81.6491 168.943 81.3878 168.472 80.8764 168.119C80.3651 167.756 79.5639 167.472 78.473 167.267L73.9048 166.398C71.2798 165.92 69.3253 165.04 68.0412 163.756C66.7571 162.46 66.1207 160.812 66.1321 158.812C66.1207 157.062 66.5866 155.568 67.5298 154.33C68.473 153.08 69.8139 152.125 71.5526 151.466C73.2912 150.807 75.3423 150.477 77.706 150.477C81.2514 150.477 84.0469 151.222 86.0923 152.71C88.1378 154.187 89.2685 156.222 89.4844 158.812ZM106.457 177.494C103.696 177.494 101.327 176.926 99.3494 175.79C97.3835 174.653 95.8722 173.074 94.8153 171.051C93.7585 169.017 93.2301 166.665 93.2301 163.994C93.2301 161.312 93.7585 158.96 94.8153 156.938C95.8835 154.903 97.4006 153.318 99.3665 152.182C101.344 151.045 103.702 150.477 106.44 150.477C108.861 150.477 110.969 150.915 112.764 151.79C114.571 152.665 115.98 153.903 116.991 155.506C118.014 157.097 118.554 158.966 118.611 161.114H110.821C110.662 159.773 110.207 158.722 109.457 157.96C108.719 157.199 107.753 156.818 106.56 156.818C105.594 156.818 104.747 157.091 104.02 157.636C103.293 158.17 102.724 158.966 102.315 160.023C101.918 161.068 101.719 162.364 101.719 163.909C101.719 165.455 101.918 166.761 102.315 167.83C102.724 168.886 103.293 169.687 104.02 170.233C104.747 170.767 105.594 171.034 106.56 171.034C107.332 171.034 108.014 170.869 108.605 170.54C109.207 170.21 109.702 169.727 110.088 169.091C110.474 168.443 110.719 167.659 110.821 166.739H118.611C118.531 168.898 117.991 170.784 116.991 172.398C116.003 174.011 114.611 175.267 112.815 176.165C111.031 177.051 108.912 177.494 106.457 177.494ZM139.768 165.699V150.818H148.087V177H140.143V172.125H139.871C139.291 173.727 138.303 175 136.905 175.943C135.518 176.875 133.842 177.341 131.876 177.341C130.092 177.341 128.524 176.932 127.172 176.114C125.82 175.295 124.768 174.153 124.018 172.688C123.268 171.21 122.888 169.483 122.876 167.506V150.818H131.212V165.869C131.223 167.29 131.598 168.409 132.337 169.227C133.075 170.045 134.081 170.455 135.354 170.455C136.183 170.455 136.928 170.273 137.587 169.909C138.257 169.534 138.786 168.994 139.172 168.29C139.57 167.574 139.768 166.71 139.768 165.699ZM161.727 142.091V177H153.392V142.091H161.727ZM167.033 186.818V150.818H175.283V155.301H175.538C175.879 154.506 176.362 153.739 176.987 153C177.624 152.261 178.43 151.659 179.408 151.193C180.396 150.716 181.578 150.477 182.953 150.477C184.771 150.477 186.47 150.955 188.05 151.909C189.641 152.864 190.925 154.335 191.902 156.324C192.879 158.312 193.368 160.847 193.368 163.926C193.368 166.892 192.896 169.375 191.953 171.375C191.021 173.375 189.76 174.875 188.169 175.875C186.589 176.875 184.834 177.375 182.902 177.375C181.584 177.375 180.442 177.159 179.476 176.727C178.51 176.295 177.697 175.727 177.038 175.023C176.391 174.318 175.891 173.562 175.538 172.756H175.368V186.818H167.033ZM175.197 163.909C175.197 165.318 175.385 166.545 175.76 167.591C176.146 168.636 176.697 169.449 177.413 170.028C178.141 170.597 179.01 170.881 180.021 170.881C181.044 170.881 181.913 170.597 182.629 170.028C183.345 169.449 183.885 168.636 184.249 167.591C184.624 166.545 184.811 165.318 184.811 163.909C184.811 162.5 184.624 161.278 184.249 160.244C183.885 159.21 183.345 158.409 182.629 157.841C181.925 157.273 181.055 156.989 180.021 156.989C178.999 156.989 178.129 157.267 177.413 157.824C176.697 158.381 176.146 159.176 175.76 160.21C175.385 161.244 175.197 162.477 175.197 163.909ZM209.974 177.494C207.236 177.494 204.872 176.955 202.884 175.875C200.906 174.784 199.384 173.233 198.315 171.222C197.259 169.199 196.73 166.795 196.73 164.011C196.73 161.307 197.264 158.943 198.332 156.92C199.401 154.886 200.906 153.307 202.849 152.182C204.793 151.045 207.082 150.477 209.719 150.477C211.582 150.477 213.287 150.767 214.832 151.347C216.378 151.926 217.713 152.784 218.838 153.92C219.963 155.057 220.838 156.46 221.463 158.131C222.088 159.79 222.401 161.693 222.401 163.841V165.92H199.645V161.08H214.645C214.634 160.193 214.423 159.403 214.014 158.71C213.605 158.017 213.043 157.477 212.327 157.091C211.622 156.693 210.81 156.494 209.889 156.494C208.957 156.494 208.122 156.705 207.384 157.125C206.645 157.534 206.06 158.097 205.628 158.812C205.196 159.517 204.969 160.318 204.946 161.216V166.142C204.946 167.21 205.156 168.148 205.577 168.955C205.997 169.75 206.594 170.369 207.366 170.812C208.139 171.256 209.06 171.477 210.128 171.477C210.866 171.477 211.537 171.375 212.139 171.17C212.741 170.966 213.259 170.665 213.69 170.267C214.122 169.869 214.446 169.381 214.662 168.801L222.315 169.023C221.997 170.739 221.298 172.233 220.219 173.506C219.151 174.767 217.747 175.75 216.009 176.455C214.27 177.148 212.259 177.494 209.974 177.494ZM236.459 142.091L235.675 166.312H228.669L227.885 142.091H236.459ZM232.163 177.494C230.947 177.494 229.902 177.062 229.027 176.199C228.163 175.335 227.732 174.29 227.732 173.062C227.732 171.858 228.163 170.83 229.027 169.977C229.902 169.114 230.947 168.682 232.163 168.682C233.334 168.682 234.362 169.114 235.249 169.977C236.146 170.83 236.595 171.858 236.595 173.062C236.595 173.881 236.385 174.625 235.964 175.295C235.555 175.966 235.016 176.5 234.345 176.898C233.686 177.295 232.959 177.494 232.163 177.494Z" fill="white"/>
<path d="M10.3977 224H7.375L11.3011 212.364H15.0455L18.9716 224H15.9489L13.2159 215.295H13.125L10.3977 224ZM9.99432 219.42H16.3125V221.557H9.99432V219.42ZM23.0028 212.364V224H20.2244V212.364H23.0028ZM28.8395 227.455C28.0099 227.455 27.2997 227.339 26.7088 227.108C26.1179 226.877 25.6539 226.561 25.3168 226.159C24.9796 225.758 24.777 225.303 24.7088 224.795L27.3395 224.648C27.3887 224.826 27.4796 224.981 27.6122 225.114C27.7486 225.246 27.9247 225.348 28.1406 225.42C28.3603 225.492 28.6179 225.528 28.9134 225.528C29.3793 225.528 29.7637 225.415 30.0668 225.188C30.3736 224.964 30.527 224.572 30.527 224.011V222.477H30.4304C30.3205 222.746 30.1539 222.987 29.9304 223.199C29.7069 223.411 29.4285 223.578 29.0952 223.699C28.7656 223.82 28.3868 223.881 27.9588 223.881C27.3224 223.881 26.7391 223.733 26.2088 223.438C25.6823 223.138 25.2599 222.676 24.9418 222.051C24.6274 221.422 24.4702 220.614 24.4702 219.625C24.4702 218.606 24.633 217.767 24.9588 217.108C25.2846 216.445 25.7107 215.955 26.2372 215.636C26.7675 215.318 27.3376 215.159 27.9474 215.159C28.4058 215.159 28.7978 215.239 29.1236 215.398C29.4531 215.553 29.724 215.754 29.9361 216C30.1482 216.246 30.3092 216.502 30.419 216.767H30.4986V215.273H33.2656V224.034C33.2656 224.773 33.08 225.396 32.7088 225.903C32.3376 226.411 31.8187 226.795 31.152 227.057C30.4853 227.322 29.7145 227.455 28.8395 227.455ZM28.9247 221.858C29.2618 221.858 29.5497 221.769 29.7884 221.591C30.027 221.413 30.2107 221.157 30.3395 220.824C30.4683 220.491 30.5327 220.091 30.5327 219.625C30.5327 219.152 30.4683 218.744 30.3395 218.403C30.2145 218.059 30.0308 217.794 29.7884 217.608C29.5497 217.422 29.2618 217.33 28.9247 217.33C28.58 217.33 28.2884 217.424 28.0497 217.614C27.8111 217.803 27.6293 218.07 27.5043 218.415C27.383 218.756 27.3224 219.159 27.3224 219.625C27.3224 220.091 27.3849 220.491 27.5099 220.824C27.6349 221.157 27.8149 221.413 28.0497 221.591C28.2884 221.769 28.58 221.858 28.9247 221.858ZM39.1108 224.165C38.1941 224.165 37.4063 223.977 36.7472 223.602C36.0919 223.223 35.5862 222.697 35.2301 222.023C34.8778 221.345 34.7017 220.559 34.7017 219.665C34.7017 218.767 34.8778 217.981 35.2301 217.307C35.5862 216.629 36.0919 216.102 36.7472 215.727C37.4063 215.348 38.1941 215.159 39.1108 215.159C40.0275 215.159 40.8134 215.348 41.4688 215.727C42.1278 216.102 42.6335 216.629 42.9858 217.307C43.3419 217.981 43.5199 218.767 43.5199 219.665C43.5199 220.559 43.3419 221.345 42.9858 222.023C42.6335 222.697 42.1278 223.223 41.4688 223.602C40.8134 223.977 40.0275 224.165 39.1108 224.165ZM39.1278 222.068C39.4612 222.068 39.7434 221.966 39.9744 221.761C40.2055 221.557 40.3816 221.273 40.5028 220.909C40.6278 220.545 40.6903 220.125 40.6903 219.648C40.6903 219.163 40.6278 218.739 40.5028 218.375C40.3816 218.011 40.2055 217.727 39.9744 217.523C39.7434 217.318 39.4612 217.216 39.1278 217.216C38.7831 217.216 38.4915 217.318 38.2528 217.523C38.018 217.727 37.8381 218.011 37.7131 218.375C37.5919 218.739 37.5312 219.163 37.5312 219.648C37.5312 220.125 37.5919 220.545 37.7131 220.909C37.8381 221.273 38.018 221.557 38.2528 221.761C38.4915 221.966 38.7831 222.068 39.1278 222.068ZM48.3807 224V215.273H51.1591V224H48.3807ZM49.7727 214.256C49.3826 214.256 49.0473 214.127 48.767 213.869C48.4867 213.608 48.3466 213.294 48.3466 212.926C48.3466 212.562 48.4867 212.252 48.767 211.994C49.0473 211.733 49.3826 211.602 49.7727 211.602C50.1667 211.602 50.5019 211.733 50.7784 211.994C51.0587 212.252 51.1989 212.562 51.1989 212.926C51.1989 213.294 51.0587 213.608 50.7784 213.869C50.5019 214.127 50.1667 214.256 49.7727 214.256ZM55.706 219.023V224H52.9276V215.273H55.5696V216.875H55.6662C55.8594 216.341 56.1889 215.922 56.6548 215.619C57.1207 215.312 57.6757 215.159 58.3196 215.159C58.9332 215.159 59.4654 215.297 59.9162 215.574C60.3707 215.847 60.723 216.229 60.973 216.722C61.2268 217.21 61.3518 217.782 61.348 218.438V224H58.5696V218.983C58.5734 218.498 58.4503 218.119 58.2003 217.847C57.9541 217.574 57.6113 217.438 57.1719 217.438C56.8802 217.438 56.6226 217.502 56.3991 217.631C56.1795 217.756 56.009 217.936 55.8878 218.17C55.7704 218.405 55.7098 218.689 55.706 219.023ZM67.1477 224.165C66.2348 224.165 65.447 223.985 64.7841 223.625C64.125 223.261 63.6174 222.744 63.2614 222.074C62.9091 221.4 62.733 220.598 62.733 219.67C62.733 218.769 62.911 217.981 63.267 217.307C63.6231 216.629 64.125 216.102 64.7727 215.727C65.4205 215.348 66.1837 215.159 67.0625 215.159C67.6837 215.159 68.2519 215.256 68.767 215.449C69.2822 215.642 69.7273 215.928 70.1023 216.307C70.4773 216.686 70.7689 217.153 70.9773 217.71C71.1856 218.263 71.2898 218.898 71.2898 219.614V220.307H63.7045V218.693H68.7045C68.7008 218.398 68.6307 218.134 68.4943 217.903C68.358 217.672 68.1705 217.492 67.9318 217.364C67.697 217.231 67.4261 217.165 67.1193 217.165C66.8087 217.165 66.5303 217.235 66.2841 217.375C66.0379 217.511 65.8428 217.699 65.6989 217.938C65.5549 218.172 65.4792 218.439 65.4716 218.739V220.381C65.4716 220.737 65.5417 221.049 65.6818 221.318C65.822 221.583 66.0208 221.79 66.2784 221.938C66.536 222.085 66.8428 222.159 67.1989 222.159C67.4451 222.159 67.6686 222.125 67.8693 222.057C68.0701 221.989 68.2424 221.888 68.3864 221.756C68.5303 221.623 68.6383 221.46 68.7102 221.267L71.2614 221.341C71.1553 221.913 70.9223 222.411 70.5625 222.835C70.2064 223.256 69.7386 223.583 69.1591 223.818C68.5795 224.049 67.9091 224.165 67.1477 224.165ZM80.3281 217.938L77.777 218.006C77.7505 217.824 77.6785 217.663 77.5611 217.523C77.4437 217.379 77.2902 217.267 77.1009 217.188C76.9152 217.104 76.6993 217.062 76.4531 217.062C76.1312 217.062 75.8565 217.127 75.6293 217.256C75.4058 217.384 75.2959 217.559 75.2997 217.778C75.2959 217.949 75.3641 218.097 75.5043 218.222C75.6482 218.347 75.9039 218.447 76.2713 218.523L77.9531 218.841C78.8243 219.008 79.4721 219.284 79.8963 219.67C80.3243 220.057 80.5402 220.568 80.544 221.205C80.5402 221.803 80.3622 222.324 80.0099 222.767C79.6615 223.21 79.1842 223.555 78.5781 223.801C77.9721 224.044 77.2789 224.165 76.4986 224.165C75.2524 224.165 74.2694 223.909 73.5497 223.398C72.8338 222.883 72.4247 222.193 72.3224 221.33L75.0668 221.261C75.1274 221.58 75.2846 221.822 75.5384 221.989C75.7921 222.155 76.116 222.239 76.5099 222.239C76.866 222.239 77.1558 222.172 77.3793 222.04C77.6027 221.907 77.7164 221.731 77.7202 221.511C77.7164 221.314 77.6293 221.157 77.4588 221.04C77.2884 220.919 77.0213 220.824 76.6577 220.756L75.1349 220.466C74.2599 220.307 73.6084 220.013 73.1804 219.585C72.7524 219.153 72.5402 218.604 72.544 217.938C72.5402 217.354 72.6955 216.856 73.0099 216.443C73.3243 216.027 73.7713 215.708 74.3509 215.489C74.9304 215.269 75.6141 215.159 76.402 215.159C77.5838 215.159 78.5156 215.407 79.1974 215.903C79.8793 216.396 80.2562 217.074 80.3281 217.938ZM81.9119 227.273V215.273H84.6619V216.767H84.7472C84.8608 216.502 85.0218 216.246 85.2301 216C85.4422 215.754 85.7112 215.553 86.0369 215.398C86.3665 215.239 86.7604 215.159 87.2188 215.159C87.8248 215.159 88.3911 215.318 88.9176 215.636C89.4479 215.955 89.8759 216.445 90.2017 217.108C90.5275 217.771 90.6903 218.616 90.6903 219.642C90.6903 220.631 90.5331 221.458 90.2188 222.125C89.9081 222.792 89.4877 223.292 88.9574 223.625C88.4309 223.958 87.8456 224.125 87.2017 224.125C86.7623 224.125 86.3816 224.053 86.0597 223.909C85.7377 223.765 85.4669 223.576 85.2472 223.341C85.0312 223.106 84.8646 222.854 84.7472 222.585H84.6903V227.273H81.9119ZM84.6335 219.636C84.6335 220.106 84.696 220.515 84.821 220.864C84.9498 221.212 85.1335 221.483 85.3722 221.676C85.6146 221.866 85.9044 221.96 86.2415 221.96C86.5824 221.96 86.8722 221.866 87.1108 221.676C87.3494 221.483 87.5294 221.212 87.6506 220.864C87.7756 220.515 87.8381 220.106 87.8381 219.636C87.8381 219.167 87.7756 218.759 87.6506 218.415C87.5294 218.07 87.3494 217.803 87.1108 217.614C86.8759 217.424 86.5862 217.33 86.2415 217.33C85.9006 217.33 85.6108 217.422 85.3722 217.608C85.1335 217.794 84.9498 218.059 84.821 218.403C84.696 218.748 84.6335 219.159 84.6335 219.636ZM96.2259 224.165C95.313 224.165 94.5251 223.985 93.8622 223.625C93.2031 223.261 92.6955 222.744 92.3395 222.074C91.9872 221.4 91.8111 220.598 91.8111 219.67C91.8111 218.769 91.9891 217.981 92.3452 217.307C92.7012 216.629 93.2031 216.102 93.8509 215.727C94.4986 215.348 95.2618 215.159 96.1406 215.159C96.7618 215.159 97.33 215.256 97.8452 215.449C98.3603 215.642 98.8054 215.928 99.1804 216.307C99.5554 216.686 99.8471 217.153 100.055 217.71C100.264 218.263 100.368 218.898 100.368 219.614V220.307H92.7827V218.693H97.7827C97.7789 218.398 97.7088 218.134 97.5724 217.903C97.4361 217.672 97.2486 217.492 97.0099 217.364C96.7751 217.231 96.5043 217.165 96.1974 217.165C95.8868 217.165 95.6084 217.235 95.3622 217.375C95.116 217.511 94.9209 217.699 94.777 217.938C94.633 218.172 94.5573 218.439 94.5497 218.739V220.381C94.5497 220.737 94.6198 221.049 94.7599 221.318C94.9001 221.583 95.099 221.79 95.3565 221.938C95.6141 222.085 95.9209 222.159 96.277 222.159C96.5232 222.159 96.7467 222.125 96.9474 222.057C97.1482 221.989 97.3205 221.888 97.4645 221.756C97.6084 221.623 97.7164 221.46 97.7884 221.267L100.339 221.341C100.233 221.913 100 222.411 99.6406 222.835C99.2846 223.256 98.8168 223.583 98.2372 223.818C97.6577 224.049 96.9872 224.165 96.2259 224.165ZM101.787 224V215.273H104.486V216.864H104.577C104.736 216.288 104.995 215.86 105.355 215.58C105.715 215.295 106.134 215.153 106.611 215.153C106.74 215.153 106.872 215.163 107.009 215.182C107.145 215.197 107.272 215.222 107.389 215.256V217.67C107.257 217.625 107.082 217.589 106.866 217.562C106.654 217.536 106.465 217.523 106.298 217.523C105.969 217.523 105.671 217.597 105.406 217.744C105.145 217.888 104.938 218.091 104.787 218.352C104.639 218.61 104.565 218.913 104.565 219.261V224H101.787ZM110.653 224.148C110.097 224.148 109.602 224.055 109.17 223.869C108.742 223.68 108.403 223.396 108.153 223.017C107.907 222.634 107.784 222.155 107.784 221.58C107.784 221.095 107.869 220.686 108.04 220.352C108.21 220.019 108.445 219.748 108.744 219.54C109.044 219.331 109.388 219.174 109.778 219.068C110.169 218.958 110.585 218.884 111.028 218.847C111.525 218.801 111.924 218.754 112.227 218.705C112.53 218.652 112.75 218.578 112.886 218.483C113.027 218.384 113.097 218.246 113.097 218.068V218.04C113.097 217.748 112.996 217.523 112.795 217.364C112.595 217.205 112.324 217.125 111.983 217.125C111.616 217.125 111.32 217.205 111.097 217.364C110.873 217.523 110.731 217.742 110.67 218.023L108.108 217.932C108.184 217.402 108.379 216.928 108.693 216.511C109.011 216.091 109.447 215.761 110 215.523C110.557 215.28 111.225 215.159 112.006 215.159C112.563 215.159 113.076 215.225 113.545 215.358C114.015 215.487 114.424 215.676 114.773 215.926C115.121 216.172 115.39 216.475 115.58 216.835C115.773 217.195 115.869 217.606 115.869 218.068V224H113.256V222.784H113.188C113.032 223.08 112.833 223.33 112.591 223.534C112.352 223.739 112.07 223.892 111.744 223.994C111.422 224.097 111.059 224.148 110.653 224.148ZM111.511 222.33C111.811 222.33 112.08 222.269 112.318 222.148C112.561 222.027 112.754 221.86 112.898 221.648C113.042 221.432 113.114 221.182 113.114 220.898V220.068C113.034 220.11 112.938 220.148 112.824 220.182C112.714 220.216 112.593 220.248 112.46 220.278C112.328 220.309 112.191 220.335 112.051 220.358C111.911 220.381 111.777 220.402 111.648 220.42C111.386 220.462 111.163 220.527 110.977 220.614C110.795 220.701 110.655 220.814 110.557 220.955C110.462 221.091 110.415 221.254 110.415 221.443C110.415 221.731 110.517 221.951 110.722 222.102C110.93 222.254 111.193 222.33 111.511 222.33ZM120.756 224.125C120.112 224.125 119.527 223.958 119 223.625C118.473 223.292 118.053 222.792 117.739 222.125C117.424 221.458 117.267 220.631 117.267 219.642C117.267 218.616 117.43 217.771 117.756 217.108C118.081 216.445 118.508 215.955 119.034 215.636C119.564 215.318 120.134 215.159 120.744 215.159C121.203 215.159 121.595 215.239 121.92 215.398C122.246 215.553 122.515 215.754 122.727 216C122.939 216.246 123.1 216.502 123.21 216.767H123.267V212.364H126.045V224H123.295V222.585H123.21C123.093 222.854 122.926 223.106 122.71 223.341C122.494 223.576 122.223 223.765 121.898 223.909C121.576 224.053 121.195 224.125 120.756 224.125ZM121.722 221.96C122.059 221.96 122.347 221.866 122.585 221.676C122.824 221.483 123.008 221.212 123.136 220.864C123.265 220.515 123.33 220.106 123.33 219.636C123.33 219.159 123.265 218.748 123.136 218.403C123.011 218.059 122.828 217.794 122.585 217.608C122.347 217.422 122.059 217.33 121.722 217.33C121.377 217.33 121.085 217.424 120.847 217.614C120.608 217.803 120.426 218.07 120.301 218.415C120.18 218.759 120.119 219.167 120.119 219.636C120.119 220.106 120.182 220.515 120.307 220.864C120.432 221.212 120.612 221.483 120.847 221.676C121.085 221.866 121.377 221.96 121.722 221.96ZM131.876 224.165C130.96 224.165 130.172 223.977 129.513 223.602C128.857 223.223 128.352 222.697 127.996 222.023C127.643 221.345 127.467 220.559 127.467 219.665C127.467 218.767 127.643 217.981 127.996 217.307C128.352 216.629 128.857 216.102 129.513 215.727C130.172 215.348 130.96 215.159 131.876 215.159C132.793 215.159 133.579 215.348 134.234 215.727C134.893 216.102 135.399 216.629 135.751 217.307C136.107 217.981 136.286 218.767 136.286 219.665C136.286 220.559 136.107 221.345 135.751 222.023C135.399 222.697 134.893 223.223 134.234 223.602C133.579 223.977 132.793 224.165 131.876 224.165ZM131.893 222.068C132.227 222.068 132.509 221.966 132.74 221.761C132.971 221.557 133.147 221.273 133.268 220.909C133.393 220.545 133.456 220.125 133.456 219.648C133.456 219.163 133.393 218.739 133.268 218.375C133.147 218.011 132.971 217.727 132.74 217.523C132.509 217.318 132.227 217.216 131.893 217.216C131.549 217.216 131.257 217.318 131.018 217.523C130.784 217.727 130.604 218.011 130.479 218.375C130.357 218.739 130.297 219.163 130.297 219.648C130.297 220.125 130.357 220.545 130.479 220.909C130.604 221.273 130.784 221.557 131.018 221.761C131.257 221.966 131.549 222.068 131.893 222.068ZM143.607 224.148C143.05 224.148 142.555 224.055 142.124 223.869C141.696 223.68 141.357 223.396 141.107 223.017C140.86 222.634 140.737 222.155 140.737 221.58C140.737 221.095 140.822 220.686 140.993 220.352C141.163 220.019 141.398 219.748 141.697 219.54C141.997 219.331 142.341 219.174 142.732 219.068C143.122 218.958 143.538 218.884 143.982 218.847C144.478 218.801 144.877 218.754 145.18 218.705C145.483 218.652 145.703 218.578 145.839 218.483C145.98 218.384 146.05 218.246 146.05 218.068V218.04C146.05 217.748 145.949 217.523 145.749 217.364C145.548 217.205 145.277 217.125 144.936 217.125C144.569 217.125 144.273 217.205 144.05 217.364C143.826 217.523 143.684 217.742 143.624 218.023L141.061 217.932C141.137 217.402 141.332 216.928 141.646 216.511C141.964 216.091 142.4 215.761 142.953 215.523C143.51 215.28 144.179 215.159 144.959 215.159C145.516 215.159 146.029 215.225 146.499 215.358C146.968 215.487 147.377 215.676 147.726 215.926C148.074 216.172 148.343 216.475 148.533 216.835C148.726 217.195 148.822 217.606 148.822 218.068V224H146.209V222.784H146.141C145.985 223.08 145.786 223.33 145.544 223.534C145.305 223.739 145.023 223.892 144.697 223.994C144.375 224.097 144.012 224.148 143.607 224.148ZM144.464 222.33C144.764 222.33 145.033 222.269 145.271 222.148C145.514 222.027 145.707 221.86 145.851 221.648C145.995 221.432 146.067 221.182 146.067 220.898V220.068C145.987 220.11 145.891 220.148 145.777 220.182C145.667 220.216 145.546 220.248 145.413 220.278C145.281 220.309 145.144 220.335 145.004 220.358C144.864 220.381 144.73 220.402 144.601 220.42C144.339 220.462 144.116 220.527 143.93 220.614C143.749 220.701 143.608 220.814 143.51 220.955C143.415 221.091 143.368 221.254 143.368 221.443C143.368 221.731 143.47 221.951 143.675 222.102C143.883 222.254 144.146 222.33 144.464 222.33ZM154.595 224.165C153.675 224.165 152.885 223.975 152.226 223.597C151.571 223.218 151.067 222.691 150.714 222.017C150.362 221.339 150.186 220.555 150.186 219.665C150.186 218.771 150.362 217.987 150.714 217.312C151.071 216.634 151.576 216.106 152.232 215.727C152.891 215.348 153.677 215.159 154.589 215.159C155.396 215.159 156.099 215.305 156.697 215.597C157.3 215.888 157.769 216.301 158.107 216.835C158.447 217.366 158.627 217.989 158.646 218.705H156.05C155.997 218.258 155.845 217.907 155.595 217.653C155.349 217.4 155.027 217.273 154.629 217.273C154.307 217.273 154.025 217.364 153.783 217.545C153.54 217.723 153.351 217.989 153.214 218.341C153.082 218.689 153.016 219.121 153.016 219.636C153.016 220.152 153.082 220.587 153.214 220.943C153.351 221.295 153.54 221.562 153.783 221.744C154.025 221.922 154.307 222.011 154.629 222.011C154.887 222.011 155.114 221.956 155.311 221.847C155.512 221.737 155.677 221.576 155.805 221.364C155.934 221.148 156.016 220.886 156.05 220.58H158.646C158.62 221.299 158.44 221.928 158.107 222.466C157.777 223.004 157.313 223.422 156.714 223.722C156.12 224.017 155.413 224.165 154.595 224.165ZM164.142 224.165C163.225 224.165 162.438 223.977 161.778 223.602C161.123 223.223 160.617 222.697 160.261 222.023C159.909 221.345 159.733 220.559 159.733 219.665C159.733 218.767 159.909 217.981 160.261 217.307C160.617 216.629 161.123 216.102 161.778 215.727C162.438 215.348 163.225 215.159 164.142 215.159C165.059 215.159 165.845 215.348 166.5 215.727C167.159 216.102 167.665 216.629 168.017 217.307C168.373 217.981 168.551 218.767 168.551 219.665C168.551 220.559 168.373 221.345 168.017 222.023C167.665 222.697 167.159 223.223 166.5 223.602C165.845 223.977 165.059 224.165 164.142 224.165ZM164.159 222.068C164.492 222.068 164.775 221.966 165.006 221.761C165.237 221.557 165.413 221.273 165.534 220.909C165.659 220.545 165.722 220.125 165.722 219.648C165.722 219.163 165.659 218.739 165.534 218.375C165.413 218.011 165.237 217.727 165.006 217.523C164.775 217.318 164.492 217.216 164.159 217.216C163.814 217.216 163.523 217.318 163.284 217.523C163.049 217.727 162.869 218.011 162.744 218.375C162.623 218.739 162.562 219.163 162.562 219.648C162.562 220.125 162.623 220.545 162.744 220.909C162.869 221.273 163.049 221.557 163.284 221.761C163.523 221.966 163.814 222.068 164.159 222.068ZM172.753 219.023V224H169.974V215.273H172.616V216.875H172.713C172.906 216.341 173.236 215.922 173.702 215.619C174.168 215.312 174.723 215.159 175.366 215.159C175.98 215.159 176.512 215.297 176.963 215.574C177.418 215.847 177.77 216.229 178.02 216.722C178.274 217.21 178.399 217.782 178.395 218.438V224H175.616V218.983C175.62 218.498 175.497 218.119 175.247 217.847C175.001 217.574 174.658 217.438 174.219 217.438C173.927 217.438 173.67 217.502 173.446 217.631C173.226 217.756 173.056 217.936 172.935 218.17C172.817 218.405 172.757 218.689 172.753 219.023ZM185.041 215.273V217.318H179.536V215.273H185.041ZM180.689 213.182H183.467V221.256C183.467 221.426 183.494 221.564 183.547 221.67C183.604 221.773 183.685 221.847 183.791 221.892C183.897 221.934 184.024 221.955 184.172 221.955C184.278 221.955 184.39 221.945 184.507 221.926C184.628 221.903 184.719 221.884 184.78 221.869L185.2 223.875C185.068 223.913 184.88 223.96 184.638 224.017C184.399 224.074 184.113 224.11 183.78 224.125C183.128 224.155 182.57 224.08 182.104 223.898C181.642 223.712 181.287 223.424 181.041 223.034C180.799 222.644 180.681 222.153 180.689 221.562V213.182ZM190.445 224.165C189.532 224.165 188.744 223.985 188.081 223.625C187.422 223.261 186.914 222.744 186.558 222.074C186.206 221.4 186.03 220.598 186.03 219.67C186.03 218.769 186.208 217.981 186.564 217.307C186.92 216.629 187.422 216.102 188.07 215.727C188.717 215.348 189.481 215.159 190.359 215.159C190.981 215.159 191.549 215.256 192.064 215.449C192.579 215.642 193.024 215.928 193.399 216.307C193.774 216.686 194.066 217.153 194.274 217.71C194.482 218.263 194.587 218.898 194.587 219.614V220.307H187.001V218.693H192.001C191.998 218.398 191.928 218.134 191.791 217.903C191.655 217.672 191.467 217.492 191.229 217.364C190.994 217.231 190.723 217.165 190.416 217.165C190.106 217.165 189.827 217.235 189.581 217.375C189.335 217.511 189.14 217.699 188.996 217.938C188.852 218.172 188.776 218.439 188.768 218.739V220.381C188.768 220.737 188.839 221.049 188.979 221.318C189.119 221.583 189.318 221.79 189.575 221.938C189.833 222.085 190.14 222.159 190.496 222.159C190.742 222.159 190.965 222.125 191.166 222.057C191.367 221.989 191.539 221.888 191.683 221.756C191.827 221.623 191.935 221.46 192.007 221.267L194.558 221.341C194.452 221.913 194.219 222.411 193.859 222.835C193.503 223.256 193.036 223.583 192.456 223.818C191.876 224.049 191.206 224.165 190.445 224.165ZM200.08 224.165C199.159 224.165 198.369 223.975 197.71 223.597C197.055 223.218 196.551 222.691 196.199 222.017C195.847 221.339 195.67 220.555 195.67 219.665C195.67 218.771 195.847 217.987 196.199 217.312C196.555 216.634 197.061 216.106 197.716 215.727C198.375 215.348 199.161 215.159 200.074 215.159C200.881 215.159 201.583 215.305 202.182 215.597C202.784 215.888 203.254 216.301 203.591 216.835C203.932 217.366 204.112 217.989 204.131 218.705H201.534C201.481 218.258 201.33 217.907 201.08 217.653C200.833 217.4 200.511 217.273 200.114 217.273C199.792 217.273 199.509 217.364 199.267 217.545C199.025 217.723 198.835 217.989 198.699 218.341C198.566 218.689 198.5 219.121 198.5 219.636C198.5 220.152 198.566 220.587 198.699 220.943C198.835 221.295 199.025 221.562 199.267 221.744C199.509 221.922 199.792 222.011 200.114 222.011C200.371 222.011 200.598 221.956 200.795 221.847C200.996 221.737 201.161 221.576 201.29 221.364C201.419 221.148 201.5 220.886 201.534 220.58H204.131C204.104 221.299 203.924 221.928 203.591 222.466C203.261 223.004 202.797 223.422 202.199 223.722C201.604 224.017 200.898 224.165 200.08 224.165ZM209.632 224.165C208.719 224.165 207.931 223.985 207.268 223.625C206.609 223.261 206.102 222.744 205.746 222.074C205.393 221.4 205.217 220.598 205.217 219.67C205.217 218.769 205.395 217.981 205.751 217.307C206.107 216.629 206.609 216.102 207.257 215.727C207.905 215.348 208.668 215.159 209.547 215.159C210.168 215.159 210.736 215.256 211.251 215.449C211.767 215.642 212.212 215.928 212.587 216.307C212.962 216.686 213.253 217.153 213.462 217.71C213.67 218.263 213.774 218.898 213.774 219.614V220.307H206.189V218.693H211.189C211.185 218.398 211.115 218.134 210.979 217.903C210.842 217.672 210.655 217.492 210.416 217.364C210.181 217.231 209.911 217.165 209.604 217.165C209.293 217.165 209.015 217.235 208.768 217.375C208.522 217.511 208.327 217.699 208.183 217.938C208.039 218.172 207.964 218.439 207.956 218.739V220.381C207.956 220.737 208.026 221.049 208.166 221.318C208.306 221.583 208.505 221.79 208.763 221.938C209.02 222.085 209.327 222.159 209.683 222.159C209.929 222.159 210.153 222.125 210.354 222.057C210.554 221.989 210.727 221.888 210.871 221.756C211.015 221.623 211.123 221.46 211.195 221.267L213.746 221.341C213.64 221.913 213.407 222.411 213.047 222.835C212.691 223.256 212.223 223.583 211.643 223.818C211.064 224.049 210.393 224.165 209.632 224.165ZM220.824 220.233V215.273H223.597V224H220.949V222.375H220.858C220.665 222.909 220.335 223.333 219.869 223.648C219.407 223.958 218.848 224.114 218.193 224.114C217.598 224.114 217.076 223.977 216.625 223.705C216.174 223.432 215.824 223.051 215.574 222.562C215.324 222.07 215.197 221.494 215.193 220.835V215.273H217.972V220.29C217.975 220.763 218.1 221.136 218.347 221.409C218.593 221.682 218.928 221.818 219.352 221.818C219.629 221.818 219.877 221.758 220.097 221.636C220.32 221.511 220.496 221.331 220.625 221.097C220.758 220.858 220.824 220.57 220.824 220.233ZM226.928 224.165C226.518 224.165 226.168 224.021 225.876 223.733C225.589 223.445 225.446 223.097 225.45 222.688C225.446 222.286 225.589 221.943 225.876 221.659C226.168 221.371 226.518 221.227 226.928 221.227C227.314 221.227 227.655 221.371 227.95 221.659C228.25 221.943 228.401 222.286 228.405 222.688C228.401 222.96 228.329 223.208 228.189 223.432C228.053 223.655 227.873 223.833 227.649 223.966C227.429 224.098 227.189 224.165 226.928 224.165Z" fill="white"/>
</svg>
