<svg width="267" height="125" viewBox="0 0 267 125" fill="none" xmlns="http://www.w3.org/2000/svg">
<path fill-rule="evenodd" clip-rule="evenodd" d="M133 6.3335C150.486 6.3335 164.667 20.5137 164.667 38.0001C164.667 55.4865 150.486 69.6669 133 69.6669C115.514 69.6669 101.333 55.4865 101.333 38.0001C101.333 20.5137 115.514 6.3335 133 6.3335ZM140.261 26.2612L133 33.5226L125.739 26.2615L121.261 30.7391L128.522 38.0001L121.261 45.2614L125.739 49.739L133 42.4779L140.261 49.739L144.739 45.2614L137.478 38.0001L144.739 30.739L140.261 26.2612Z" fill="#F24822"/>
<path d="M42.7971 99H41.5044L45.2431 88.8182H46.5158L50.2544 99H48.9618L45.9192 90.429H45.8397L42.7971 99ZM43.2743 95.0227H48.4846V96.1165H43.2743V95.0227ZM52.8546 88.8182V99H51.6813V88.8182H52.8546ZM58.0859 102.023C57.5192 102.023 57.032 101.95 56.6243 101.804C56.2166 101.661 55.8769 101.473 55.6051 101.237C55.3366 101.005 55.1229 100.757 54.9638 100.491L55.8984 99.8352C56.0045 99.9744 56.1387 100.134 56.3011 100.312C56.4635 100.495 56.6856 100.652 56.9673 100.785C57.2524 100.921 57.6252 100.989 58.0859 100.989C58.7024 100.989 59.2112 100.839 59.6122 100.541C60.0133 100.243 60.2138 99.7756 60.2138 99.1392V97.5881H60.1143C60.0282 97.7273 59.9055 97.8996 59.7464 98.1051C59.5907 98.3073 59.3653 98.4879 59.0703 98.647C58.7786 98.8028 58.3842 98.8807 57.8871 98.8807C57.2706 98.8807 56.7171 98.7348 56.2266 98.4432C55.7393 98.1515 55.3532 97.7273 55.0682 97.1705C54.7865 96.6136 54.6456 95.9375 54.6456 95.142C54.6456 94.3598 54.7831 93.6787 55.0582 93.0987C55.3333 92.5154 55.7161 92.0646 56.2067 91.7464C56.6972 91.425 57.264 91.2642 57.907 91.2642C58.4041 91.2642 58.7985 91.3471 59.0902 91.5128C59.3852 91.6752 59.6106 91.8608 59.7663 92.0696C59.9254 92.2751 60.0481 92.4441 60.1342 92.5767H60.2536V91.3636H61.3871V99.2188C61.3871 99.875 61.2379 100.409 60.9396 100.82C60.6446 101.234 60.2469 101.537 59.7464 101.729C59.2493 101.925 58.6958 102.023 58.0859 102.023ZM58.0462 97.8267C58.5168 97.8267 58.9145 97.719 59.2393 97.5036C59.5642 97.2881 59.8111 96.9782 59.9801 96.5739C60.1491 96.1695 60.2337 95.6856 60.2337 95.1222C60.2337 94.572 60.1508 94.0864 59.9851 93.6655C59.8194 93.2446 59.5741 92.9148 59.2493 92.6761C58.9245 92.4375 58.5234 92.3182 58.0462 92.3182C57.549 92.3182 57.1347 92.4441 56.8033 92.696C56.4751 92.9479 56.2282 93.286 56.0625 93.7102C55.9001 94.1345 55.8189 94.6051 55.8189 95.1222C55.8189 95.6525 55.9018 96.1214 56.0675 96.5291C56.2365 96.9335 56.4851 97.2517 56.8132 97.4837C57.1446 97.7124 57.5556 97.8267 58.0462 97.8267ZM66.6371 99.1591C65.9477 99.1591 65.3428 98.995 64.8224 98.6669C64.3054 98.3388 63.901 97.8797 63.6094 97.2898C63.321 96.6998 63.1768 96.0104 63.1768 95.2216C63.1768 94.4261 63.321 93.7318 63.6094 93.1385C63.901 92.5452 64.3054 92.0845 64.8224 91.7564C65.3428 91.4283 65.9477 91.2642 66.6371 91.2642C67.3265 91.2642 67.9297 91.4283 68.4467 91.7564C68.9671 92.0845 69.3714 92.5452 69.6598 93.1385C69.9515 93.7318 70.0973 94.4261 70.0973 95.2216C70.0973 96.0104 69.9515 96.6998 69.6598 97.2898C69.3714 97.8797 68.9671 98.3388 68.4467 98.6669C67.9297 98.995 67.3265 99.1591 66.6371 99.1591ZM66.6371 98.1051C67.1607 98.1051 67.5916 97.9709 67.9297 97.7024C68.2678 97.4339 68.518 97.081 68.6804 96.6435C68.8428 96.206 68.924 95.732 68.924 95.2216C68.924 94.7112 68.8428 94.2356 68.6804 93.7947C68.518 93.3539 68.2678 92.9976 67.9297 92.7259C67.5916 92.4541 67.1607 92.3182 66.6371 92.3182C66.1134 92.3182 65.6825 92.4541 65.3445 92.7259C65.0064 92.9976 64.7562 93.3539 64.5938 93.7947C64.4313 94.2356 64.3501 94.7112 64.3501 95.2216C64.3501 95.732 64.4313 96.206 64.5938 96.6435C64.7562 97.081 65.0064 97.4339 65.3445 97.7024C65.6825 97.9709 66.1134 98.1051 66.6371 98.1051ZM75.8258 99V91.3636H76.9991V99H75.8258ZM76.4224 90.0909C76.1937 90.0909 75.9965 90.013 75.8308 89.8572C75.6684 89.7015 75.5872 89.5142 75.5872 89.2955C75.5872 89.0767 75.6684 88.8894 75.8308 88.7337C75.9965 88.5779 76.1937 88.5 76.4224 88.5C76.6511 88.5 76.8467 88.5779 77.0091 88.7337C77.1748 88.8894 77.2576 89.0767 77.2576 89.2955C77.2576 89.5142 77.1748 89.7015 77.0091 89.8572C76.8467 90.013 76.6511 90.0909 76.4224 90.0909ZM80.3214 94.4062V99H79.1481V91.3636H80.2816V92.5568H80.381C80.56 92.169 80.8318 91.8575 81.1964 91.6222C81.561 91.3835 82.0316 91.2642 82.6083 91.2642C83.1254 91.2642 83.5778 91.3703 83.9656 91.5824C84.3533 91.7912 84.6549 92.1094 84.8704 92.5369C85.0858 92.9612 85.1935 93.4981 85.1935 94.1477V99H84.0202V94.2273C84.0202 93.6274 83.8645 93.16 83.5529 92.8253C83.2414 92.4872 82.8138 92.3182 82.2702 92.3182C81.8957 92.3182 81.561 92.3994 81.266 92.5618C80.9743 92.7242 80.744 92.9612 80.5749 93.2727C80.4059 93.5843 80.3214 93.9621 80.3214 94.4062ZM90.5392 99.1591C89.8034 99.1591 89.1687 98.9967 88.6351 98.6719C88.1048 98.3438 87.6955 97.8864 87.4071 97.2997C87.1221 96.7098 86.9796 96.0237 86.9796 95.2415C86.9796 94.4593 87.1221 93.7699 87.4071 93.1733C87.6955 92.5734 88.0965 92.1061 88.6103 91.7713C89.1273 91.4332 89.7305 91.2642 90.4199 91.2642C90.8176 91.2642 91.2104 91.3305 91.5982 91.4631C91.986 91.5956 92.339 91.8111 92.6571 92.1094C92.9753 92.4044 93.2289 92.7955 93.4178 93.2827C93.6067 93.7699 93.7012 94.3698 93.7012 95.0824V95.5795H87.8148V94.5653H92.508C92.508 94.1345 92.4218 93.75 92.2495 93.4119C92.0804 93.0739 91.8385 92.8071 91.5236 92.6115C91.2121 92.416 90.8442 92.3182 90.4199 92.3182C89.9526 92.3182 89.5482 92.4342 89.2069 92.6662C88.8688 92.8949 88.6086 93.1932 88.4263 93.5611C88.244 93.929 88.1529 94.3234 88.1529 94.7443V95.4205C88.1529 95.9972 88.2523 96.486 88.4512 96.8871C88.6533 97.2848 88.9334 97.5881 89.2914 97.7969C89.6493 98.0024 90.0653 98.1051 90.5392 98.1051C90.8475 98.1051 91.1259 98.062 91.3745 97.9759C91.6264 97.8864 91.8435 97.7538 92.0257 97.5781C92.208 97.3991 92.3489 97.1771 92.4483 96.9119L93.5819 97.2301C93.4625 97.6146 93.262 97.9527 92.9803 98.2443C92.6986 98.5327 92.3506 98.758 91.9363 98.9205C91.522 99.0795 91.0563 99.1591 90.5392 99.1591ZM100.895 93.0739L99.8411 93.3722C99.7748 93.1965 99.677 93.0258 99.5478 92.8601C99.4218 92.6911 99.2495 92.5518 99.0307 92.4425C98.812 92.3331 98.5319 92.2784 98.1905 92.2784C97.7232 92.2784 97.3337 92.3861 97.0222 92.6016C96.714 92.8137 96.5598 93.0838 96.5598 93.4119C96.5598 93.7036 96.6659 93.9339 96.878 94.103C97.0901 94.272 97.4216 94.4129 97.8723 94.5256L99.0059 94.804C99.6886 94.9697 100.197 95.2232 100.532 95.5646C100.867 95.9027 101.034 96.3385 101.034 96.8722C101.034 97.3097 100.908 97.7008 100.656 98.0455C100.408 98.3902 100.06 98.6619 99.6124 98.8608C99.165 99.0597 98.6446 99.1591 98.0513 99.1591C97.2724 99.1591 96.6278 98.9901 96.1174 98.652C95.6069 98.3139 95.2838 97.8201 95.1479 97.1705L96.2615 96.892C96.3676 97.303 96.5681 97.6113 96.8631 97.8168C97.1614 98.0223 97.5508 98.125 98.0314 98.125C98.5783 98.125 99.0125 98.009 99.334 97.777C99.6588 97.5417 99.8212 97.2599 99.8212 96.9318C99.8212 96.6667 99.7284 96.4446 99.5428 96.2656C99.3572 96.0833 99.0721 95.9474 98.6877 95.858L97.415 95.5597C96.7156 95.3939 96.2019 95.1371 95.8738 94.7891C95.5489 94.4377 95.3865 93.9986 95.3865 93.4716C95.3865 93.0407 95.5075 92.6596 95.7495 92.3281C95.9947 91.9967 96.3278 91.7365 96.7488 91.5476C97.173 91.3587 97.6536 91.2642 98.1905 91.2642C98.9462 91.2642 99.5395 91.4299 99.9703 91.7614C100.405 92.0928 100.713 92.5303 100.895 93.0739ZM102.8 101.864V91.3636H103.934V92.5767H104.073C104.159 92.4441 104.279 92.2751 104.431 92.0696C104.587 91.8608 104.809 91.6752 105.097 91.5128C105.389 91.3471 105.783 91.2642 106.281 91.2642C106.924 91.2642 107.49 91.425 107.981 91.7464C108.471 92.0679 108.854 92.5237 109.129 93.1136C109.404 93.7036 109.542 94.3996 109.542 95.2017C109.542 96.0104 109.404 96.7114 109.129 97.3047C108.854 97.8946 108.473 98.352 107.986 98.6768C107.499 98.9983 106.937 99.1591 106.3 99.1591C105.81 99.1591 105.417 99.0779 105.122 98.9155C104.827 98.7498 104.6 98.5625 104.441 98.3537C104.282 98.1416 104.159 97.9659 104.073 97.8267H103.974V101.864H102.8ZM103.954 95.1818C103.954 95.7585 104.038 96.2673 104.207 96.7081C104.376 97.1456 104.623 97.4886 104.948 97.7372C105.273 97.9825 105.671 98.1051 106.141 98.1051C106.632 98.1051 107.041 97.9759 107.369 97.7173C107.701 97.4555 107.949 97.1042 108.115 96.6634C108.284 96.2192 108.369 95.7254 108.369 95.1818C108.369 94.6449 108.286 94.161 108.12 93.7301C107.958 93.2959 107.711 92.9529 107.379 92.701C107.051 92.4458 106.638 92.3182 106.141 92.3182C105.664 92.3182 105.263 92.4392 104.938 92.6811C104.613 92.9197 104.368 93.2545 104.202 93.6854C104.037 94.1129 103.954 94.6117 103.954 95.1818ZM114.533 99.1591C113.798 99.1591 113.163 98.9967 112.629 98.6719C112.099 98.3438 111.69 97.8864 111.401 97.2997C111.116 96.7098 110.974 96.0237 110.974 95.2415C110.974 94.4593 111.116 93.7699 111.401 93.1733C111.69 92.5734 112.091 92.1061 112.604 91.7713C113.121 91.4332 113.725 91.2642 114.414 91.2642C114.812 91.2642 115.205 91.3305 115.592 91.4631C115.98 91.5956 116.333 91.8111 116.651 92.1094C116.969 92.4044 117.223 92.7955 117.412 93.2827C117.601 93.7699 117.695 94.3698 117.695 95.0824V95.5795H111.809V94.5653H116.502C116.502 94.1345 116.416 93.75 116.244 93.4119C116.075 93.0739 115.833 92.8071 115.518 92.6115C115.206 92.416 114.838 92.3182 114.414 92.3182C113.947 92.3182 113.542 92.4342 113.201 92.6662C112.863 92.8949 112.603 93.1932 112.42 93.5611C112.238 93.929 112.147 94.3234 112.147 94.7443V95.4205C112.147 95.9972 112.246 96.486 112.445 96.8871C112.647 97.2848 112.928 97.5881 113.286 97.7969C113.643 98.0024 114.059 98.1051 114.533 98.1051C114.842 98.1051 115.12 98.062 115.369 97.9759C115.621 97.8864 115.838 97.7538 116.02 97.5781C116.202 97.3991 116.343 97.1771 116.442 96.9119L117.576 97.2301C117.457 97.6146 117.256 97.9527 116.974 98.2443C116.693 98.5327 116.345 98.758 115.93 98.9205C115.516 99.0795 115.05 99.1591 114.533 99.1591ZM119.48 99V91.3636H120.614V92.517H120.693C120.832 92.1392 121.084 91.8326 121.449 91.5973C121.813 91.362 122.224 91.2443 122.682 91.2443C122.768 91.2443 122.876 91.246 123.005 91.2493C123.134 91.2526 123.232 91.2576 123.298 91.2642V92.4574C123.259 92.4474 123.167 92.4325 123.025 92.4126C122.886 92.3894 122.738 92.3778 122.582 92.3778C122.211 92.3778 121.88 92.4557 121.588 92.6115C121.3 92.764 121.071 92.9761 120.902 93.2479C120.736 93.5163 120.653 93.8229 120.653 94.1676V99H119.48ZM126.936 99.179C126.452 99.179 126.013 99.0878 125.619 98.9055C125.224 98.7199 124.911 98.4531 124.679 98.1051C124.447 97.7538 124.331 97.3295 124.331 96.8324C124.331 96.3949 124.417 96.0402 124.59 95.7685C124.762 95.4934 124.992 95.2779 125.281 95.1222C125.569 94.9664 125.887 94.8504 126.235 94.7741C126.587 94.6946 126.94 94.6316 127.294 94.5852C127.758 94.5256 128.134 94.4808 128.423 94.451C128.714 94.4179 128.927 94.3632 129.059 94.2869C129.195 94.2107 129.263 94.0781 129.263 93.8892V93.8494C129.263 93.3589 129.129 92.9777 128.86 92.706C128.595 92.4342 128.192 92.2983 127.652 92.2983C127.092 92.2983 126.653 92.4209 126.335 92.6662C126.017 92.9115 125.793 93.1733 125.664 93.4517L124.55 93.054C124.749 92.59 125.014 92.2287 125.345 91.9702C125.68 91.7083 126.045 91.526 126.439 91.4233C126.837 91.3172 127.228 91.2642 127.612 91.2642C127.858 91.2642 128.139 91.294 128.458 91.3537C128.779 91.41 129.089 91.5277 129.387 91.7067C129.689 91.8857 129.939 92.1558 130.138 92.517C130.337 92.8783 130.436 93.3622 130.436 93.9688V99H129.263V97.9659H129.203C129.124 98.1316 128.991 98.3089 128.806 98.4979C128.62 98.6868 128.373 98.8475 128.065 98.9801C127.757 99.1127 127.38 99.179 126.936 99.179ZM127.115 98.125C127.579 98.125 127.97 98.0339 128.289 97.8516C128.61 97.6693 128.852 97.4339 129.014 97.1456C129.18 96.8572 129.263 96.554 129.263 96.2358V95.1619C129.213 95.2216 129.104 95.2763 128.935 95.326C128.769 95.3724 128.577 95.4138 128.358 95.4503C128.143 95.4834 127.932 95.5133 127.727 95.5398C127.525 95.563 127.36 95.5829 127.235 95.5994C126.93 95.6392 126.645 95.7038 126.379 95.7933C126.118 95.8795 125.905 96.0104 125.743 96.1861C125.584 96.3584 125.504 96.5937 125.504 96.892C125.504 97.2997 125.655 97.608 125.957 97.8168C126.262 98.0223 126.648 98.125 127.115 98.125ZM135.461 99.1591C134.825 99.1591 134.263 98.9983 133.776 98.6768C133.289 98.352 132.908 97.8946 132.632 97.3047C132.357 96.7114 132.22 96.0104 132.22 95.2017C132.22 94.3996 132.357 93.7036 132.632 93.1136C132.908 92.5237 133.29 92.0679 133.781 91.7464C134.271 91.425 134.838 91.2642 135.481 91.2642C135.978 91.2642 136.371 91.3471 136.659 91.5128C136.951 91.6752 137.173 91.8608 137.326 92.0696C137.481 92.2751 137.602 92.4441 137.689 92.5767H137.788V88.8182H138.961V99H137.828V97.8267H137.689C137.602 97.9659 137.48 98.1416 137.321 98.3537C137.162 98.5625 136.935 98.7498 136.64 98.9155C136.345 99.0779 135.952 99.1591 135.461 99.1591ZM135.62 98.1051C136.091 98.1051 136.489 97.9825 136.814 97.7372C137.138 97.4886 137.385 97.1456 137.554 96.7081C137.723 96.2673 137.808 95.7585 137.808 95.1818C137.808 94.6117 137.725 94.1129 137.559 93.6854C137.394 93.2545 137.148 92.9197 136.824 92.6811C136.499 92.4392 136.098 92.3182 135.62 92.3182C135.123 92.3182 134.709 92.4458 134.377 92.701C134.049 92.9529 133.802 93.2959 133.637 93.7301C133.474 94.161 133.393 94.6449 133.393 95.1818C133.393 95.7254 133.476 96.2192 133.642 96.6634C133.811 97.1042 134.059 97.4555 134.387 97.7173C134.719 97.9759 135.13 98.1051 135.62 98.1051ZM144.375 99.1591C143.686 99.1591 143.081 98.995 142.561 98.6669C142.044 98.3388 141.639 97.8797 141.348 97.2898C141.059 96.6998 140.915 96.0104 140.915 95.2216C140.915 94.4261 141.059 93.7318 141.348 93.1385C141.639 92.5452 142.044 92.0845 142.561 91.7564C143.081 91.4283 143.686 91.2642 144.375 91.2642C145.065 91.2642 145.668 91.4283 146.185 91.7564C146.705 92.0845 147.11 92.5452 147.398 93.1385C147.69 93.7318 147.836 94.4261 147.836 95.2216C147.836 96.0104 147.69 96.6998 147.398 97.2898C147.11 97.8797 146.705 98.3388 146.185 98.6669C145.668 98.995 145.065 99.1591 144.375 99.1591ZM144.375 98.1051C144.899 98.1051 145.33 97.9709 145.668 97.7024C146.006 97.4339 146.256 97.081 146.419 96.6435C146.581 96.206 146.662 95.732 146.662 95.2216C146.662 94.7112 146.581 94.2356 146.419 93.7947C146.256 93.3539 146.006 92.9976 145.668 92.7259C145.33 92.4541 144.899 92.3182 144.375 92.3182C143.852 92.3182 143.421 92.4541 143.083 92.7259C142.745 92.9976 142.494 93.3539 142.332 93.7947C142.17 94.2356 142.088 94.7112 142.088 95.2216C142.088 95.732 142.17 96.206 142.332 96.6435C142.494 97.081 142.745 97.4339 143.083 97.7024C143.421 97.9709 143.852 98.1051 144.375 98.1051ZM155.811 99.179C155.327 99.179 154.888 99.0878 154.494 98.9055C154.099 98.7199 153.786 98.4531 153.554 98.1051C153.322 97.7538 153.206 97.3295 153.206 96.8324C153.206 96.3949 153.292 96.0402 153.465 95.7685C153.637 95.4934 153.867 95.2779 154.156 95.1222C154.444 94.9664 154.762 94.8504 155.11 94.7741C155.462 94.6946 155.815 94.6316 156.169 94.5852C156.633 94.5256 157.009 94.4808 157.298 94.451C157.589 94.4179 157.802 94.3632 157.934 94.2869C158.07 94.2107 158.138 94.0781 158.138 93.8892V93.8494C158.138 93.3589 158.004 92.9777 157.735 92.706C157.47 92.4342 157.067 92.2983 156.527 92.2983C155.967 92.2983 155.528 92.4209 155.21 92.6662C154.892 92.9115 154.668 93.1733 154.539 93.4517L153.425 93.054C153.624 92.59 153.889 92.2287 154.22 91.9702C154.555 91.7083 154.92 91.526 155.314 91.4233C155.712 91.3172 156.103 91.2642 156.487 91.2642C156.733 91.2642 157.014 91.294 157.333 91.3537C157.654 91.41 157.964 91.5277 158.262 91.7067C158.564 91.8857 158.814 92.1558 159.013 92.517C159.212 92.8783 159.311 93.3622 159.311 93.9688V99H158.138V97.9659H158.078C157.999 98.1316 157.866 98.3089 157.681 98.4979C157.495 98.6868 157.248 98.8475 156.94 98.9801C156.632 99.1127 156.255 99.179 155.811 99.179ZM155.99 98.125C156.454 98.125 156.845 98.0339 157.164 97.8516C157.485 97.6693 157.727 97.4339 157.889 97.1456C158.055 96.8572 158.138 96.554 158.138 96.2358V95.1619C158.088 95.2216 157.979 95.2763 157.81 95.326C157.644 95.3724 157.452 95.4138 157.233 95.4503C157.018 95.4834 156.807 95.5133 156.602 95.5398C156.4 95.563 156.235 95.5829 156.11 95.5994C155.805 95.6392 155.52 95.7038 155.254 95.7933C154.993 95.8795 154.78 96.0104 154.618 96.1861C154.459 96.3584 154.379 96.5937 154.379 96.892C154.379 97.2997 154.53 97.608 154.832 97.8168C155.137 98.0223 155.523 98.125 155.99 98.125ZM164.555 99.1591C163.839 99.1591 163.223 98.9901 162.706 98.652C162.189 98.3139 161.791 97.8482 161.512 97.255C161.234 96.6617 161.095 95.9839 161.095 95.2216C161.095 94.446 161.237 93.7616 161.522 93.1683C161.811 92.5717 162.212 92.1061 162.725 91.7713C163.243 91.4332 163.846 91.2642 164.535 91.2642C165.072 91.2642 165.556 91.3636 165.987 91.5625C166.418 91.7614 166.771 92.0398 167.046 92.3977C167.321 92.7557 167.492 93.1733 167.558 93.6506H166.385C166.295 93.3026 166.096 92.9943 165.788 92.7259C165.483 92.4541 165.072 92.3182 164.555 92.3182C164.098 92.3182 163.697 92.4375 163.352 92.6761C163.011 92.9115 162.744 93.2446 162.551 93.6754C162.363 94.103 162.268 94.6051 162.268 95.1818C162.268 95.7718 162.361 96.2855 162.547 96.723C162.735 97.1605 163.001 97.5002 163.342 97.7422C163.687 97.9841 164.091 98.1051 164.555 98.1051C164.86 98.1051 165.137 98.0521 165.385 97.946C165.634 97.84 165.844 97.6875 166.017 97.4886C166.189 97.2898 166.312 97.0511 166.385 96.7727H167.558C167.492 97.2235 167.328 97.6295 167.066 97.9908C166.807 98.3487 166.464 98.6338 166.037 98.8459C165.612 99.0547 165.118 99.1591 164.555 99.1591ZM172.375 99.1591C171.686 99.1591 171.081 98.995 170.561 98.6669C170.044 98.3388 169.639 97.8797 169.348 97.2898C169.059 96.6998 168.915 96.0104 168.915 95.2216C168.915 94.4261 169.059 93.7318 169.348 93.1385C169.639 92.5452 170.044 92.0845 170.561 91.7564C171.081 91.4283 171.686 91.2642 172.375 91.2642C173.065 91.2642 173.668 91.4283 174.185 91.7564C174.705 92.0845 175.11 92.5452 175.398 93.1385C175.69 93.7318 175.836 94.4261 175.836 95.2216C175.836 96.0104 175.69 96.6998 175.398 97.2898C175.11 97.8797 174.705 98.3388 174.185 98.6669C173.668 98.995 173.065 99.1591 172.375 99.1591ZM172.375 98.1051C172.899 98.1051 173.33 97.9709 173.668 97.7024C174.006 97.4339 174.256 97.081 174.419 96.6435C174.581 96.206 174.662 95.732 174.662 95.2216C174.662 94.7112 174.581 94.2356 174.419 93.7947C174.256 93.3539 174.006 92.9976 173.668 92.7259C173.33 92.4541 172.899 92.3182 172.375 92.3182C171.852 92.3182 171.421 92.4541 171.083 92.7259C170.745 92.9976 170.494 93.3539 170.332 93.7947C170.17 94.2356 170.088 94.7112 170.088 95.2216C170.088 95.732 170.17 96.206 170.332 96.6435C170.494 97.081 170.745 97.4339 171.083 97.7024C171.421 97.9709 171.852 98.1051 172.375 98.1051ZM178.8 94.4062V99H177.627V91.3636H178.76V92.5568H178.86C179.039 92.169 179.31 91.8575 179.675 91.6222C180.039 91.3835 180.51 91.2642 181.087 91.2642C181.604 91.2642 182.056 91.3703 182.444 91.5824C182.832 91.7912 183.133 92.1094 183.349 92.5369C183.564 92.9612 183.672 93.4981 183.672 94.1477V99H182.499V94.2273C182.499 93.6274 182.343 93.16 182.031 92.8253C181.72 92.4872 181.292 92.3182 180.749 92.3182C180.374 92.3182 180.039 92.3994 179.744 92.5618C179.453 92.7242 179.222 92.9612 179.053 93.2727C178.884 93.5843 178.8 93.9621 178.8 94.4062ZM189.137 91.3636V92.358H185.18V91.3636H189.137ZM186.333 89.5341H187.506V96.8125C187.506 97.1439 187.554 97.3925 187.651 97.5582C187.75 97.7206 187.876 97.83 188.028 97.8864C188.184 97.9394 188.348 97.9659 188.521 97.9659C188.65 97.9659 188.756 97.9593 188.839 97.946C188.922 97.9295 188.988 97.9162 189.038 97.9062L189.276 98.9602C189.197 98.9901 189.086 99.0199 188.943 99.0497C188.801 99.0829 188.62 99.0994 188.401 99.0994C188.07 99.0994 187.745 99.0282 187.427 98.8857C187.112 98.7431 186.85 98.526 186.641 98.2344C186.436 97.9427 186.333 97.5748 186.333 97.1307V89.5341ZM194.022 99.1591C193.286 99.1591 192.651 98.9967 192.118 98.6719C191.587 98.3438 191.178 97.8864 190.89 97.2997C190.605 96.7098 190.462 96.0237 190.462 95.2415C190.462 94.4593 190.605 93.7699 190.89 93.1733C191.178 92.5734 191.579 92.1061 192.093 91.7713C192.61 91.4332 193.213 91.2642 193.902 91.2642C194.3 91.2642 194.693 91.3305 195.081 91.4631C195.468 91.5956 195.821 91.8111 196.14 92.1094C196.458 92.4044 196.711 92.7955 196.9 93.2827C197.089 93.7699 197.184 94.3698 197.184 95.0824V95.5795H191.297V94.5653H195.99C195.99 94.1345 195.904 93.75 195.732 93.4119C195.563 93.0739 195.321 92.8071 195.006 92.6115C194.694 92.416 194.327 92.3182 193.902 92.3182C193.435 92.3182 193.031 92.4342 192.689 92.6662C192.351 92.8949 192.091 93.1932 191.909 93.5611C191.726 93.929 191.635 94.3234 191.635 94.7443V95.4205C191.635 95.9972 191.735 96.486 191.934 96.8871C192.136 97.2848 192.416 97.5881 192.774 97.7969C193.132 98.0024 193.548 98.1051 194.022 98.1051C194.33 98.1051 194.608 98.062 194.857 97.9759C195.109 97.8864 195.326 97.7538 195.508 97.5781C195.69 97.3991 195.831 97.1771 195.931 96.9119L197.064 97.2301C196.945 97.6146 196.744 97.9527 196.463 98.2443C196.181 98.5327 195.833 98.758 195.419 98.9205C195.004 99.0795 194.539 99.1591 194.022 99.1591ZM202.071 99.1591C201.355 99.1591 200.738 98.9901 200.221 98.652C199.704 98.3139 199.306 97.8482 199.028 97.255C198.75 96.6617 198.61 95.9839 198.61 95.2216C198.61 94.446 198.753 93.7616 199.038 93.1683C199.326 92.5717 199.727 92.1061 200.241 91.7713C200.758 91.4332 201.361 91.2642 202.051 91.2642C202.588 91.2642 203.072 91.3636 203.502 91.5625C203.933 91.7614 204.286 92.0398 204.561 92.3977C204.837 92.7557 205.007 93.1733 205.074 93.6506H203.9C203.811 93.3026 203.612 92.9943 203.304 92.7259C202.999 92.4541 202.588 92.3182 202.071 92.3182C201.613 92.3182 201.212 92.4375 200.868 92.6761C200.526 92.9115 200.259 93.2446 200.067 93.6754C199.878 94.103 199.784 94.6051 199.784 95.1818C199.784 95.7718 199.877 96.2855 200.062 96.723C200.251 97.1605 200.516 97.5002 200.858 97.7422C201.202 97.9841 201.607 98.1051 202.071 98.1051C202.376 98.1051 202.652 98.0521 202.901 97.946C203.15 97.84 203.36 97.6875 203.532 97.4886C203.705 97.2898 203.827 97.0511 203.9 96.7727H205.074C205.007 97.2235 204.843 97.6295 204.581 97.9908C204.323 98.3487 203.98 98.6338 203.552 98.8459C203.128 99.0547 202.634 99.1591 202.071 99.1591ZM209.99 99.1591C209.255 99.1591 208.62 98.9967 208.086 98.6719C207.556 98.3438 207.147 97.8864 206.858 97.2997C206.573 96.7098 206.431 96.0237 206.431 95.2415C206.431 94.4593 206.573 93.7699 206.858 93.1733C207.147 92.5734 207.548 92.1061 208.061 91.7713C208.578 91.4332 209.182 91.2642 209.871 91.2642C210.269 91.2642 210.662 91.3305 211.049 91.4631C211.437 91.5956 211.79 91.8111 212.108 92.1094C212.426 92.4044 212.68 92.7955 212.869 93.2827C213.058 93.7699 213.152 94.3698 213.152 95.0824V95.5795H207.266V94.5653H211.959C211.959 94.1345 211.873 93.75 211.701 93.4119C211.532 93.0739 211.29 92.8071 210.975 92.6115C210.663 92.416 210.295 92.3182 209.871 92.3182C209.404 92.3182 208.999 92.4342 208.658 92.6662C208.32 92.8949 208.06 93.1932 207.877 93.5611C207.695 93.929 207.604 94.3234 207.604 94.7443V95.4205C207.604 95.9972 207.703 96.486 207.902 96.8871C208.105 97.2848 208.385 97.5881 208.743 97.7969C209.1 98.0024 209.516 98.1051 209.99 98.1051C210.299 98.1051 210.577 98.062 210.826 97.9759C211.078 97.8864 211.295 97.7538 211.477 97.5781C211.659 97.3991 211.8 97.1771 211.9 96.9119L213.033 97.2301C212.914 97.6146 212.713 97.9527 212.431 98.2443C212.15 98.5327 211.802 98.758 211.387 98.9205C210.973 99.0795 210.507 99.1591 209.99 99.1591ZM219.75 95.8778V91.3636H220.923V99H219.75V97.7074H219.67C219.491 98.0952 219.213 98.425 218.835 98.6967C218.457 98.9652 217.98 99.0994 217.403 99.0994C216.926 99.0994 216.502 98.995 216.13 98.7862C215.759 98.5741 215.467 98.2559 215.255 97.8317C215.043 97.4041 214.937 96.8655 214.937 96.2159V91.3636H216.11V96.1364C216.11 96.6932 216.266 97.1373 216.578 97.4688C216.893 97.8002 217.294 97.9659 217.781 97.9659C218.073 97.9659 218.369 97.8913 218.671 97.7422C218.976 97.593 219.231 97.3643 219.436 97.0561C219.645 96.7479 219.75 96.3551 219.75 95.8778ZM223.927 99.0795C223.682 99.0795 223.471 98.9917 223.296 98.8161C223.12 98.6404 223.032 98.4299 223.032 98.1847C223.032 97.9394 223.12 97.7289 223.296 97.5533C223.471 97.3776 223.682 97.2898 223.927 97.2898C224.172 97.2898 224.383 97.3776 224.558 97.5533C224.734 97.7289 224.822 97.9394 224.822 98.1847C224.822 98.3471 224.78 98.4962 224.698 98.6321C224.618 98.768 224.51 98.8774 224.374 98.9602C224.242 99.0398 224.093 99.0795 223.927 99.0795Z" fill="black"/>
<path d="M6.81206 117V106.818H10.2524C11.0512 106.818 11.7041 106.962 12.2112 107.251C12.7216 107.536 13.0995 107.922 13.3447 108.409C13.59 108.896 13.7126 109.44 13.7126 110.04C13.7126 110.64 13.59 111.185 13.3447 111.675C13.1028 112.166 12.7282 112.557 12.2211 112.849C11.714 113.137 11.0644 113.281 10.2723 113.281H7.80637V112.188H10.2325C10.7794 112.188 11.2185 112.093 11.55 111.904C11.8814 111.715 12.1217 111.46 12.2709 111.138C12.4233 110.814 12.4996 110.447 12.4996 110.04C12.4996 109.632 12.4233 109.268 12.2709 108.946C12.1217 108.625 11.8798 108.373 11.545 108.19C11.2103 108.005 10.7661 107.912 10.2126 107.912H8.04501V117H6.81206ZM18.5599 117.159C17.8705 117.159 17.2657 116.995 16.7453 116.667C16.2282 116.339 15.8239 115.88 15.5322 115.29C15.2439 114.7 15.0997 114.01 15.0997 113.222C15.0997 112.426 15.2439 111.732 15.5322 111.138C15.8239 110.545 16.2282 110.085 16.7453 109.756C17.2657 109.428 17.8705 109.264 18.5599 109.264C19.2493 109.264 19.8525 109.428 20.3696 109.756C20.8899 110.085 21.2943 110.545 21.5827 111.138C21.8743 111.732 22.0202 112.426 22.0202 113.222C22.0202 114.01 21.8743 114.7 21.5827 115.29C21.2943 115.88 20.8899 116.339 20.3696 116.667C19.8525 116.995 19.2493 117.159 18.5599 117.159ZM18.5599 116.105C19.0836 116.105 19.5145 115.971 19.8525 115.702C20.1906 115.434 20.4408 115.081 20.6032 114.643C20.7657 114.206 20.8469 113.732 20.8469 113.222C20.8469 112.711 20.7657 112.236 20.6032 111.795C20.4408 111.354 20.1906 110.998 19.8525 110.726C19.5145 110.454 19.0836 110.318 18.5599 110.318C18.0363 110.318 17.6054 110.454 17.2673 110.726C16.9292 110.998 16.679 111.354 16.5166 111.795C16.3542 112.236 16.273 112.711 16.273 113.222C16.273 113.732 16.3542 114.206 16.5166 114.643C16.679 115.081 16.9292 115.434 17.2673 115.702C17.6054 115.971 18.0363 116.105 18.5599 116.105ZM23.8112 117V109.364H24.9447V110.517H25.0242C25.1634 110.139 25.4153 109.833 25.7799 109.597C26.1445 109.362 26.5555 109.244 27.0129 109.244C27.099 109.244 27.2068 109.246 27.336 109.249C27.4653 109.253 27.5631 109.258 27.6294 109.264V110.457C27.5896 110.447 27.4984 110.433 27.3559 110.413C27.2167 110.389 27.0692 110.378 26.9134 110.378C26.5422 110.378 26.2108 110.456 25.9191 110.612C25.6308 110.764 25.4021 110.976 25.233 111.248C25.0673 111.516 24.9845 111.823 24.9845 112.168V117H23.8112ZM36.3582 109.364V110.358H32.2417V109.364H36.3582ZM33.4747 117V108.31C33.4747 107.872 33.5774 107.508 33.7829 107.216C33.9884 106.924 34.2552 106.705 34.5834 106.56C34.9115 106.414 35.2578 106.341 35.6224 106.341C35.9108 106.341 36.1461 106.364 36.3284 106.411C36.5107 106.457 36.6466 106.5 36.7361 106.54L36.398 107.554C36.3383 107.534 36.2555 107.509 36.1494 107.479C36.0467 107.45 35.9108 107.435 35.7417 107.435C35.354 107.435 35.0739 107.532 34.9015 107.728C34.7325 107.924 34.648 108.21 34.648 108.588V117H33.4747ZM40.031 117.179C39.5471 117.179 39.1079 117.088 38.7135 116.906C38.3191 116.72 38.0059 116.453 37.7739 116.105C37.5419 115.754 37.4259 115.33 37.4259 114.832C37.4259 114.395 37.512 114.04 37.6844 113.768C37.8567 113.493 38.0871 113.278 38.3754 113.122C38.6638 112.966 38.982 112.85 39.33 112.774C39.6813 112.695 40.0343 112.632 40.3889 112.585C40.853 112.526 41.2291 112.481 41.5175 112.451C41.8092 112.418 42.0213 112.363 42.1539 112.287C42.2897 112.211 42.3577 112.078 42.3577 111.889V111.849C42.3577 111.359 42.2235 110.978 41.955 110.706C41.6898 110.434 41.2871 110.298 40.7469 110.298C40.1868 110.298 39.7476 110.421 39.4294 110.666C39.1112 110.911 38.8875 111.173 38.7583 111.452L37.6446 111.054C37.8435 110.59 38.1086 110.229 38.4401 109.97C38.7748 109.708 39.1394 109.526 39.5338 109.423C39.9316 109.317 40.3227 109.264 40.7071 109.264C40.9524 109.264 41.2341 109.294 41.5523 109.354C41.8738 109.41 42.1837 109.528 42.482 109.707C42.7836 109.886 43.0338 110.156 43.2327 110.517C43.4316 110.878 43.531 111.362 43.531 111.969V117H42.3577V115.966H42.298C42.2185 116.132 42.0859 116.309 41.9003 116.498C41.7147 116.687 41.4678 116.848 41.1595 116.98C40.8513 117.113 40.4751 117.179 40.031 117.179ZM40.21 116.125C40.674 116.125 41.0651 116.034 41.3833 115.852C41.7048 115.669 41.9467 115.434 42.1091 115.146C42.2748 114.857 42.3577 114.554 42.3577 114.236V113.162C42.308 113.222 42.1986 113.276 42.0296 113.326C41.8638 113.372 41.6716 113.414 41.4529 113.45C41.2374 113.483 41.027 113.513 40.8215 113.54C40.6193 113.563 40.4552 113.583 40.3293 113.599C40.0244 113.639 39.7393 113.704 39.4742 113.793C39.2123 113.879 39.0002 114.01 38.8378 114.186C38.6787 114.358 38.5992 114.594 38.5992 114.892C38.5992 115.3 38.75 115.608 39.0516 115.817C39.3565 116.022 39.7426 116.125 40.21 116.125ZM51.6434 109.364L48.8195 117H47.6263L44.8025 109.364H46.0752L48.1831 115.449H48.2627L50.3706 109.364H51.6434ZM56.0209 117.159C55.3315 117.159 54.7266 116.995 54.2062 116.667C53.6892 116.339 53.2848 115.88 52.9932 115.29C52.7048 114.7 52.5606 114.01 52.5606 113.222C52.5606 112.426 52.7048 111.732 52.9932 111.138C53.2848 110.545 53.6892 110.085 54.2062 109.756C54.7266 109.428 55.3315 109.264 56.0209 109.264C56.7103 109.264 57.3135 109.428 57.8305 109.756C58.3509 110.085 58.7552 110.545 59.0436 111.138C59.3353 111.732 59.4811 112.426 59.4811 113.222C59.4811 114.01 59.3353 114.7 59.0436 115.29C58.7552 115.88 58.3509 116.339 57.8305 116.667C57.3135 116.995 56.7103 117.159 56.0209 117.159ZM56.0209 116.105C56.5445 116.105 56.9754 115.971 57.3135 115.702C57.6515 115.434 57.9018 115.081 58.0642 114.643C58.2266 114.206 58.3078 113.732 58.3078 113.222C58.3078 112.711 58.2266 112.236 58.0642 111.795C57.9018 111.354 57.6515 110.998 57.3135 110.726C56.9754 110.454 56.5445 110.318 56.0209 110.318C55.4972 110.318 55.0663 110.454 54.7282 110.726C54.3902 110.998 54.1399 111.354 53.9775 111.795C53.8151 112.236 53.7339 112.711 53.7339 113.222C53.7339 113.732 53.8151 114.206 53.9775 114.643C54.1399 115.081 54.3902 115.434 54.7282 115.702C55.0663 115.971 55.4972 116.105 56.0209 116.105ZM61.2721 117V109.364H62.4056V110.517H62.4852C62.6244 110.139 62.8763 109.833 63.2409 109.597C63.6054 109.362 64.0164 109.244 64.4738 109.244C64.56 109.244 64.6677 109.246 64.797 109.249C64.9262 109.253 65.024 109.258 65.0903 109.264V110.457C65.0505 110.447 64.9594 110.433 64.8169 110.413C64.6776 110.389 64.5302 110.378 64.3744 110.378C64.0032 110.378 63.6717 110.456 63.3801 110.612C63.0917 110.764 62.863 110.976 62.694 111.248C62.5283 111.516 62.4454 111.823 62.4454 112.168V117H61.2721ZM67.3561 115.608L67.2765 116.145C67.2202 116.523 67.134 116.927 67.018 117.358C66.9053 117.789 66.7877 118.195 66.665 118.576C66.5424 118.957 66.4413 119.26 66.3618 119.486H65.4669C65.51 119.274 65.5663 118.994 65.6359 118.646C65.7055 118.298 65.7751 117.908 65.8447 117.477C65.9176 117.05 65.9773 116.612 66.0237 116.165L66.0834 115.608H67.3561ZM76.7884 109.364V110.358H72.8311V109.364H76.7884ZM73.9845 107.534H75.1578V114.812C75.1578 115.144 75.2058 115.393 75.3019 115.558C75.4014 115.721 75.5273 115.83 75.6798 115.886C75.8356 115.939 75.9996 115.966 76.172 115.966C76.3012 115.966 76.4073 115.959 76.4901 115.946C76.573 115.929 76.6393 115.916 76.689 115.906L76.9276 116.96C76.8481 116.99 76.7371 117.02 76.5945 117.05C76.452 117.083 76.2714 117.099 76.0526 117.099C75.7212 117.099 75.3964 117.028 75.0782 116.886C74.7633 116.743 74.5015 116.526 74.2927 116.234C74.0872 115.943 73.9845 115.575 73.9845 115.131V107.534ZM81.673 117.159C80.9372 117.159 80.3025 116.997 79.7689 116.672C79.2386 116.344 78.8293 115.886 78.5409 115.3C78.2559 114.71 78.1134 114.024 78.1134 113.241C78.1134 112.459 78.2559 111.77 78.5409 111.173C78.8293 110.573 79.2303 110.106 79.7441 109.771C80.2611 109.433 80.8643 109.264 81.5537 109.264C81.9514 109.264 82.3442 109.33 82.732 109.463C83.1198 109.596 83.4727 109.811 83.7909 110.109C84.1091 110.404 84.3627 110.795 84.5516 111.283C84.7405 111.77 84.835 112.37 84.835 113.082V113.58H78.9486V112.565H83.6418C83.6418 112.134 83.5556 111.75 83.3833 111.412C83.2142 111.074 82.9723 110.807 82.6574 110.612C82.3459 110.416 81.978 110.318 81.5537 110.318C81.0864 110.318 80.682 110.434 80.3406 110.666C80.0026 110.895 79.7424 111.193 79.5601 111.561C79.3778 111.929 79.2867 112.323 79.2867 112.744V113.42C79.2867 113.997 79.3861 114.486 79.585 114.887C79.7871 115.285 80.0672 115.588 80.4252 115.797C80.7831 116.002 81.1991 116.105 81.673 116.105C81.9813 116.105 82.2597 116.062 82.5083 115.976C82.7602 115.886 82.9772 115.754 83.1595 115.578C83.3418 115.399 83.4827 115.177 83.5821 114.912L84.7156 115.23C84.5963 115.615 84.3958 115.953 84.1141 116.244C83.8324 116.533 83.4843 116.758 83.07 116.92C82.6557 117.08 82.1901 117.159 81.673 117.159ZM87.7931 112.406V117H86.6198V109.364H87.7533V110.557H87.8527C88.0317 110.169 88.3035 109.857 88.6681 109.622C89.0326 109.384 89.5033 109.264 90.08 109.264C90.597 109.264 91.0494 109.37 91.4372 109.582C91.825 109.791 92.1266 110.109 92.3421 110.537C92.5575 110.961 92.6652 111.498 92.6652 112.148V117H91.4919V112.227C91.4919 111.627 91.3361 111.16 91.0246 110.825C90.713 110.487 90.2855 110.318 89.7419 110.318C89.3674 110.318 89.0326 110.399 88.7377 110.562C88.446 110.724 88.2156 110.961 88.0466 111.273C87.8776 111.584 87.7931 111.962 87.7931 112.406ZM98.1302 109.364V110.358H94.1729V109.364H98.1302ZM95.3263 107.534H96.4996V114.812C96.4996 115.144 96.5476 115.393 96.6437 115.558C96.7432 115.721 96.8691 115.83 97.0216 115.886C97.1773 115.939 97.3414 115.966 97.5138 115.966C97.643 115.966 97.7491 115.959 97.8319 115.946C97.9148 115.929 97.9811 115.916 98.0308 115.906L98.2694 116.96C98.1899 116.99 98.0789 117.02 97.9363 117.05C97.7938 117.083 97.6132 117.099 97.3944 117.099C97.063 117.099 96.7382 117.028 96.42 116.886C96.1051 116.743 95.8433 116.526 95.6345 116.234C95.429 115.943 95.3263 115.575 95.3263 115.131V107.534ZM103.015 117.159C102.279 117.159 101.644 116.997 101.111 116.672C100.58 116.344 100.171 115.886 99.8827 115.3C99.5977 114.71 99.4552 114.024 99.4552 113.241C99.4552 112.459 99.5977 111.77 99.8827 111.173C100.171 110.573 100.572 110.106 101.086 109.771C101.603 109.433 102.206 109.264 102.896 109.264C103.293 109.264 103.686 109.33 104.074 109.463C104.462 109.596 104.815 109.811 105.133 110.109C105.451 110.404 105.704 110.795 105.893 111.283C106.082 111.77 106.177 112.37 106.177 113.082V113.58H100.29V112.565H104.984C104.984 112.134 104.897 111.75 104.725 111.412C104.556 111.074 104.314 110.807 103.999 110.612C103.688 110.416 103.32 110.318 102.896 110.318C102.428 110.318 102.024 110.434 101.682 110.666C101.344 110.895 101.084 111.193 100.902 111.561C100.72 111.929 100.628 112.323 100.628 112.744V113.42C100.628 113.997 100.728 114.486 100.927 114.887C101.129 115.285 101.409 115.588 101.767 115.797C102.125 116.002 102.541 116.105 103.015 116.105C103.323 116.105 103.601 116.062 103.85 115.976C104.102 115.886 104.319 115.754 104.501 115.578C104.684 115.399 104.824 115.177 104.924 114.912L106.057 115.23C105.938 115.615 105.738 115.953 105.456 116.244C105.174 116.533 104.826 116.758 104.412 116.92C103.998 117.08 103.532 117.159 103.015 117.159ZM113.072 112.406V117H111.899V109.364H113.033V110.557H113.132C113.311 110.169 113.583 109.857 113.947 109.622C114.312 109.384 114.783 109.264 115.359 109.264C115.876 109.264 116.329 109.37 116.717 109.582C117.104 109.791 117.406 110.109 117.621 110.537C117.837 110.961 117.945 111.498 117.945 112.148V117H116.771V112.227C116.771 111.627 116.615 111.16 116.304 110.825C115.992 110.487 115.565 110.318 115.021 110.318C114.647 110.318 114.312 110.399 114.017 110.562C113.725 110.724 113.495 110.961 113.326 111.273C113.157 111.584 113.072 111.962 113.072 112.406ZM123.191 117.159C122.501 117.159 121.897 116.995 121.376 116.667C120.859 116.339 120.455 115.88 120.163 115.29C119.875 114.7 119.731 114.01 119.731 113.222C119.731 112.426 119.875 111.732 120.163 111.138C120.455 110.545 120.859 110.085 121.376 109.756C121.897 109.428 122.501 109.264 123.191 109.264C123.88 109.264 124.483 109.428 125 109.756C125.521 110.085 125.925 110.545 126.214 111.138C126.505 111.732 126.651 112.426 126.651 113.222C126.651 114.01 126.505 114.7 126.214 115.29C125.925 115.88 125.521 116.339 125 116.667C124.483 116.995 123.88 117.159 123.191 117.159ZM123.191 116.105C123.714 116.105 124.145 115.971 124.483 115.702C124.821 115.434 125.072 115.081 125.234 114.643C125.397 114.206 125.478 113.732 125.478 113.222C125.478 112.711 125.397 112.236 125.234 111.795C125.072 111.354 124.821 110.998 124.483 110.726C124.145 110.454 123.714 110.318 123.191 110.318C122.667 110.318 122.236 110.454 121.898 110.726C121.56 110.998 121.31 111.354 121.147 111.795C120.985 112.236 120.904 112.711 120.904 113.222C120.904 113.732 120.985 114.206 121.147 114.643C121.31 115.081 121.56 115.434 121.898 115.702C122.236 115.971 122.667 116.105 123.191 116.105ZM134.413 109.364L131.589 117H130.396L127.572 109.364H128.845L130.953 115.449H131.032L133.14 109.364H134.413ZM137.976 117.179C137.492 117.179 137.053 117.088 136.659 116.906C136.264 116.72 135.951 116.453 135.719 116.105C135.487 115.754 135.371 115.33 135.371 114.832C135.371 114.395 135.457 114.04 135.63 113.768C135.802 113.493 136.032 113.278 136.321 113.122C136.609 112.966 136.927 112.85 137.275 112.774C137.627 112.695 137.98 112.632 138.334 112.585C138.798 112.526 139.174 112.481 139.463 112.451C139.754 112.418 139.967 112.363 140.099 112.287C140.235 112.211 140.303 112.078 140.303 111.889V111.849C140.303 111.359 140.169 110.978 139.9 110.706C139.635 110.434 139.232 110.298 138.692 110.298C138.132 110.298 137.693 110.421 137.375 110.666C137.057 110.911 136.833 111.173 136.704 111.452L135.59 111.054C135.789 110.59 136.054 110.229 136.385 109.97C136.72 109.708 137.085 109.526 137.479 109.423C137.877 109.317 138.268 109.264 138.652 109.264C138.898 109.264 139.179 109.294 139.498 109.354C139.819 109.41 140.129 109.528 140.427 109.707C140.729 109.886 140.979 110.156 141.178 110.517C141.377 110.878 141.476 111.362 141.476 111.969V117H140.303V115.966H140.243C140.164 116.132 140.031 116.309 139.846 116.498C139.66 116.687 139.413 116.848 139.105 116.98C138.797 117.113 138.42 117.179 137.976 117.179ZM138.155 116.125C138.619 116.125 139.01 116.034 139.329 115.852C139.65 115.669 139.892 115.434 140.054 115.146C140.22 114.857 140.303 114.554 140.303 114.236V113.162C140.253 113.222 140.144 113.276 139.975 113.326C139.809 113.372 139.617 113.414 139.398 113.45C139.183 113.483 138.972 113.513 138.767 113.54C138.565 113.563 138.401 113.583 138.275 113.599C137.97 113.639 137.685 113.704 137.419 113.793C137.158 113.879 136.946 114.01 136.783 114.186C136.624 114.358 136.544 114.594 136.544 114.892C136.544 115.3 136.695 115.608 136.997 115.817C137.302 116.022 137.688 116.125 138.155 116.125ZM143.618 117V109.364H144.751V110.557H144.851C145.01 110.149 145.267 109.833 145.621 109.607C145.976 109.379 146.402 109.264 146.899 109.264C147.403 109.264 147.822 109.379 148.157 109.607C148.495 109.833 148.758 110.149 148.947 110.557H149.027C149.222 110.162 149.516 109.849 149.907 109.617C150.298 109.382 150.767 109.264 151.314 109.264C151.997 109.264 152.555 109.478 152.989 109.906C153.423 110.33 153.641 110.991 153.641 111.889V117H152.467V111.889C152.467 111.326 152.313 110.923 152.005 110.681C151.697 110.439 151.334 110.318 150.916 110.318C150.379 110.318 149.963 110.481 149.668 110.805C149.373 111.127 149.226 111.535 149.226 112.028V117H148.033V111.77C148.033 111.336 147.892 110.986 147.61 110.721C147.328 110.452 146.965 110.318 146.521 110.318C146.216 110.318 145.931 110.399 145.666 110.562C145.404 110.724 145.192 110.95 145.03 111.238C144.871 111.523 144.791 111.853 144.791 112.227V117H143.618ZM158.987 117.159C158.252 117.159 157.617 116.997 157.083 116.672C156.553 116.344 156.144 115.886 155.855 115.3C155.57 114.71 155.428 114.024 155.428 113.241C155.428 112.459 155.57 111.77 155.855 111.173C156.144 110.573 156.545 110.106 157.059 109.771C157.576 109.433 158.179 109.264 158.868 109.264C159.266 109.264 159.659 109.33 160.046 109.463C160.434 109.596 160.787 109.811 161.105 110.109C161.424 110.404 161.677 110.795 161.866 111.283C162.055 111.77 162.149 112.37 162.149 113.082V113.58H156.263V112.565H160.956C160.956 112.134 160.87 111.75 160.698 111.412C160.529 111.074 160.287 110.807 159.972 110.612C159.66 110.416 159.292 110.318 158.868 110.318C158.401 110.318 157.996 110.434 157.655 110.666C157.317 110.895 157.057 111.193 156.875 111.561C156.692 111.929 156.601 112.323 156.601 112.744V113.42C156.601 113.997 156.701 114.486 156.899 114.887C157.102 115.285 157.382 115.588 157.74 115.797C158.098 116.002 158.514 116.105 158.987 116.105C159.296 116.105 159.574 116.062 159.823 115.976C160.075 115.886 160.292 115.754 160.474 115.578C160.656 115.399 160.797 115.177 160.897 114.912L162.03 115.23C161.911 115.615 161.71 115.953 161.429 116.244C161.147 116.533 160.799 116.758 160.384 116.92C159.97 117.08 159.505 117.159 158.987 117.159ZM165.108 112.406V117H163.934V109.364H165.068V110.557H165.167C165.346 110.169 165.618 109.857 165.983 109.622C166.347 109.384 166.818 109.264 167.394 109.264C167.911 109.264 168.364 109.37 168.752 109.582C169.139 109.791 169.441 110.109 169.657 110.537C169.872 110.961 169.98 111.498 169.98 112.148V117H168.806V112.227C168.806 111.627 168.651 111.16 168.339 110.825C168.027 110.487 167.6 110.318 167.056 110.318C166.682 110.318 166.347 110.399 166.052 110.562C165.76 110.724 165.53 110.961 165.361 111.273C165.192 111.584 165.108 111.962 165.108 112.406ZM175.445 109.364V110.358H171.487V109.364H175.445ZM172.641 107.534H173.814V114.812C173.814 115.144 173.862 115.393 173.958 115.558C174.058 115.721 174.184 115.83 174.336 115.886C174.492 115.939 174.656 115.966 174.828 115.966C174.957 115.966 175.064 115.959 175.146 115.946C175.229 115.929 175.296 115.916 175.345 115.906L175.584 116.96C175.504 116.99 175.393 117.02 175.251 117.05C175.108 117.083 174.928 117.099 174.709 117.099C174.377 117.099 174.053 117.028 173.734 116.886C173.42 116.743 173.158 116.526 172.949 116.234C172.743 115.943 172.641 115.575 172.641 115.131V107.534ZM180.329 117.159C179.593 117.159 178.959 116.997 178.425 116.672C177.895 116.344 177.486 115.886 177.197 115.3C176.912 114.71 176.77 114.024 176.77 113.241C176.77 112.459 176.912 111.77 177.197 111.173C177.486 110.573 177.887 110.106 178.4 109.771C178.917 109.433 179.521 109.264 180.21 109.264C180.608 109.264 181 109.33 181.388 109.463C181.776 109.596 182.129 109.811 182.447 110.109C182.765 110.404 183.019 110.795 183.208 111.283C183.397 111.77 183.491 112.37 183.491 113.082V113.58H177.605V112.565H182.298C182.298 112.134 182.212 111.75 182.04 111.412C181.87 111.074 181.629 110.807 181.314 110.612C181.002 110.416 180.634 110.318 180.21 110.318C179.743 110.318 179.338 110.434 178.997 110.666C178.659 110.895 178.399 111.193 178.216 111.561C178.034 111.929 177.943 112.323 177.943 112.744V113.42C177.943 113.997 178.042 114.486 178.241 114.887C178.443 115.285 178.723 115.588 179.081 115.797C179.439 116.002 179.855 116.105 180.329 116.105C180.638 116.105 180.916 116.062 181.165 115.976C181.416 115.886 181.633 115.754 181.816 115.578C181.998 115.399 182.139 115.177 182.238 114.912L183.372 115.23C183.253 115.615 183.052 115.953 182.77 116.244C182.489 116.533 182.141 116.758 181.726 116.92C181.312 117.08 180.846 117.159 180.329 117.159ZM189.214 117V109.364H190.347V110.557H190.446C190.606 110.149 190.862 109.833 191.217 109.607C191.572 109.379 191.998 109.264 192.495 109.264C192.999 109.264 193.418 109.379 193.753 109.607C194.091 109.833 194.354 110.149 194.543 110.557H194.623C194.818 110.162 195.111 109.849 195.503 109.617C195.894 109.382 196.363 109.264 196.91 109.264C197.592 109.264 198.151 109.478 198.585 109.906C199.019 110.33 199.236 110.991 199.236 111.889V117H198.063V111.889C198.063 111.326 197.909 110.923 197.601 110.681C197.292 110.439 196.929 110.318 196.512 110.318C195.975 110.318 195.559 110.481 195.264 110.805C194.969 111.127 194.821 111.535 194.821 112.028V117H193.628V111.77C193.628 111.336 193.487 110.986 193.206 110.721C192.924 110.452 192.561 110.318 192.117 110.318C191.812 110.318 191.527 110.399 191.262 110.562C191 110.724 190.788 110.95 190.625 111.238C190.466 111.523 190.387 111.853 190.387 112.227V117H189.214ZM203.629 117.179C203.145 117.179 202.706 117.088 202.311 116.906C201.917 116.72 201.604 116.453 201.372 116.105C201.14 115.754 201.024 115.33 201.024 114.832C201.024 114.395 201.11 114.04 201.282 113.768C201.454 113.493 201.685 113.278 201.973 113.122C202.261 112.966 202.58 112.85 202.928 112.774C203.279 112.695 203.632 112.632 203.987 112.585C204.451 112.526 204.827 112.481 205.115 112.451C205.407 112.418 205.619 112.363 205.752 112.287C205.887 112.211 205.955 112.078 205.955 111.889V111.849C205.955 111.359 205.821 110.978 205.553 110.706C205.287 110.434 204.885 110.298 204.345 110.298C203.784 110.298 203.345 110.421 203.027 110.666C202.709 110.911 202.485 111.173 202.356 111.452L201.242 111.054C201.441 110.59 201.706 110.229 202.038 109.97C202.372 109.708 202.737 109.526 203.131 109.423C203.529 109.317 203.92 109.264 204.305 109.264C204.55 109.264 204.832 109.294 205.15 109.354C205.471 109.41 205.781 109.528 206.08 109.707C206.381 109.886 206.631 110.156 206.83 110.517C207.029 110.878 207.129 111.362 207.129 111.969V117H205.955V115.966H205.896C205.816 116.132 205.684 116.309 205.498 116.498C205.312 116.687 205.065 116.848 204.757 116.98C204.449 117.113 204.073 117.179 203.629 117.179ZM203.808 116.125C204.272 116.125 204.663 116.034 204.981 115.852C205.302 115.669 205.544 115.434 205.707 115.146C205.872 114.857 205.955 114.554 205.955 114.236V113.162C205.906 113.222 205.796 113.276 205.627 113.326C205.461 113.372 205.269 113.414 205.051 113.45C204.835 113.483 204.625 113.513 204.419 113.54C204.217 113.563 204.053 113.583 203.927 113.599C203.622 113.639 203.337 113.704 203.072 113.793C202.81 113.879 202.598 114.01 202.435 114.186C202.276 114.358 202.197 114.594 202.197 114.892C202.197 115.3 202.348 115.608 202.649 115.817C202.954 116.022 203.34 116.125 203.808 116.125ZM209.27 117V109.364H210.443V117H209.27ZM209.867 108.091C209.638 108.091 209.441 108.013 209.275 107.857C209.113 107.701 209.032 107.514 209.032 107.295C209.032 107.077 209.113 106.889 209.275 106.734C209.441 106.578 209.638 106.5 209.867 106.5C210.095 106.5 210.291 106.578 210.453 106.734C210.619 106.889 210.702 107.077 210.702 107.295C210.702 107.514 210.619 107.701 210.453 107.857C210.291 108.013 210.095 108.091 209.867 108.091ZM218.002 111.074L216.948 111.372C216.881 111.196 216.783 111.026 216.654 110.86C216.528 110.691 216.356 110.552 216.137 110.442C215.918 110.333 215.638 110.278 215.297 110.278C214.83 110.278 214.44 110.386 214.129 110.602C213.82 110.814 213.666 111.084 213.666 111.412C213.666 111.704 213.772 111.934 213.984 112.103C214.197 112.272 214.528 112.413 214.979 112.526L216.112 112.804C216.795 112.97 217.304 113.223 217.639 113.565C217.973 113.903 218.141 114.339 218.141 114.872C218.141 115.31 218.015 115.701 217.763 116.045C217.514 116.39 217.166 116.662 216.719 116.861C216.271 117.06 215.751 117.159 215.158 117.159C214.379 117.159 213.734 116.99 213.224 116.652C212.713 116.314 212.39 115.82 212.254 115.17L213.368 114.892C213.474 115.303 213.675 115.611 213.97 115.817C214.268 116.022 214.657 116.125 215.138 116.125C215.685 116.125 216.119 116.009 216.44 115.777C216.765 115.542 216.928 115.26 216.928 114.932C216.928 114.667 216.835 114.445 216.649 114.266C216.464 114.083 216.179 113.947 215.794 113.858L214.521 113.56C213.822 113.394 213.308 113.137 212.98 112.789C212.655 112.438 212.493 111.999 212.493 111.472C212.493 111.041 212.614 110.66 212.856 110.328C213.101 109.997 213.434 109.737 213.855 109.548C214.279 109.359 214.76 109.264 215.297 109.264C216.053 109.264 216.646 109.43 217.077 109.761C217.511 110.093 217.819 110.53 218.002 111.074ZM227.165 109.364V110.358H223.208V109.364H227.165ZM224.361 107.534H225.535V114.812C225.535 115.144 225.583 115.393 225.679 115.558C225.778 115.721 225.904 115.83 226.057 115.886C226.213 115.939 226.377 115.966 226.549 115.966C226.678 115.966 226.784 115.959 226.867 115.946C226.95 115.929 227.016 115.916 227.066 115.906L227.305 116.96C227.225 116.99 227.114 117.02 226.972 117.05C226.829 117.083 226.648 117.099 226.43 117.099C226.098 117.099 225.773 117.028 225.455 116.886C225.14 116.743 224.878 116.526 224.67 116.234C224.464 115.943 224.361 115.575 224.361 115.131V107.534ZM231.177 117.179C230.694 117.179 230.254 117.088 229.86 116.906C229.466 116.72 229.152 116.453 228.92 116.105C228.688 115.754 228.572 115.33 228.572 114.832C228.572 114.395 228.659 114.04 228.831 113.768C229.003 113.493 229.234 113.278 229.522 113.122C229.81 112.966 230.128 112.85 230.476 112.774C230.828 112.695 231.181 112.632 231.535 112.585C231.999 112.526 232.376 112.481 232.664 112.451C232.956 112.418 233.168 112.363 233.3 112.287C233.436 112.211 233.504 112.078 233.504 111.889V111.849C233.504 111.359 233.37 110.978 233.101 110.706C232.836 110.434 232.434 110.298 231.893 110.298C231.333 110.298 230.894 110.421 230.576 110.666C230.258 110.911 230.034 111.173 229.905 111.452L228.791 111.054C228.99 110.59 229.255 110.229 229.587 109.97C229.921 109.708 230.286 109.526 230.68 109.423C231.078 109.317 231.469 109.264 231.854 109.264C232.099 109.264 232.381 109.294 232.699 109.354C233.02 109.41 233.33 109.528 233.628 109.707C233.93 109.886 234.18 110.156 234.379 110.517C234.578 110.878 234.677 111.362 234.677 111.969V117H233.504V115.966H233.445C233.365 116.132 233.232 116.309 233.047 116.498C232.861 116.687 232.614 116.848 232.306 116.98C231.998 117.113 231.622 117.179 231.177 117.179ZM231.356 116.125C231.82 116.125 232.212 116.034 232.53 115.852C232.851 115.669 233.093 115.434 233.256 115.146C233.421 114.857 233.504 114.554 233.504 114.236V113.162C233.454 113.222 233.345 113.276 233.176 113.326C233.01 113.372 232.818 113.414 232.599 113.45C232.384 113.483 232.173 113.513 231.968 113.54C231.766 113.563 231.602 113.583 231.476 113.599C231.171 113.639 230.886 113.704 230.621 113.793C230.359 113.879 230.147 114.01 229.984 114.186C229.825 114.358 229.746 114.594 229.746 114.892C229.746 115.3 229.896 115.608 230.198 115.817C230.503 116.022 230.889 116.125 231.356 116.125ZM236.819 117V109.364H237.953V110.517H238.032C238.171 110.139 238.423 109.833 238.788 109.597C239.152 109.362 239.563 109.244 240.021 109.244C240.107 109.244 240.215 109.246 240.344 109.249C240.473 109.253 240.571 109.258 240.637 109.264V110.457C240.597 110.447 240.506 110.433 240.364 110.413C240.225 110.389 240.077 110.378 239.921 110.378C239.55 110.378 239.219 110.456 238.927 110.612C238.639 110.764 238.41 110.976 238.241 111.248C238.075 111.516 237.992 111.823 237.992 112.168V117H236.819ZM244.679 117.159C244.043 117.159 243.481 116.998 242.994 116.677C242.506 116.352 242.125 115.895 241.85 115.305C241.575 114.711 241.438 114.01 241.438 113.202C241.438 112.4 241.575 111.704 241.85 111.114C242.125 110.524 242.508 110.068 242.999 109.746C243.489 109.425 244.056 109.264 244.699 109.264C245.196 109.264 245.589 109.347 245.877 109.513C246.169 109.675 246.391 109.861 246.543 110.07C246.699 110.275 246.82 110.444 246.906 110.577H247.006V106.818H248.179V117H247.046V115.827H246.906C246.82 115.966 246.698 116.142 246.538 116.354C246.379 116.562 246.152 116.75 245.857 116.915C245.562 117.078 245.17 117.159 244.679 117.159ZM244.838 116.105C245.309 116.105 245.707 115.982 246.031 115.737C246.356 115.489 246.603 115.146 246.772 114.708C246.941 114.267 247.026 113.759 247.026 113.182C247.026 112.612 246.943 112.113 246.777 111.685C246.611 111.254 246.366 110.92 246.041 110.681C245.716 110.439 245.315 110.318 244.838 110.318C244.341 110.318 243.927 110.446 243.595 110.701C243.267 110.953 243.02 111.296 242.854 111.73C242.692 112.161 242.611 112.645 242.611 113.182C242.611 113.725 242.694 114.219 242.859 114.663C243.028 115.104 243.277 115.455 243.605 115.717C243.937 115.976 244.348 116.105 244.838 116.105ZM253.693 117.159C252.957 117.159 252.322 116.997 251.788 116.672C251.258 116.344 250.849 115.886 250.56 115.3C250.275 114.71 250.133 114.024 250.133 113.241C250.133 112.459 250.275 111.77 250.56 111.173C250.849 110.573 251.25 110.106 251.764 109.771C252.281 109.433 252.884 109.264 253.573 109.264C253.971 109.264 254.364 109.33 254.752 109.463C255.139 109.596 255.492 109.811 255.81 110.109C256.129 110.404 256.382 110.795 256.571 111.283C256.76 111.77 256.854 112.37 256.854 113.082V113.58H250.968V112.565H255.661C255.661 112.134 255.575 111.75 255.403 111.412C255.234 111.074 254.992 110.807 254.677 110.612C254.365 110.416 253.997 110.318 253.573 110.318C253.106 110.318 252.702 110.434 252.36 110.666C252.022 110.895 251.762 111.193 251.58 111.561C251.397 111.929 251.306 112.323 251.306 112.744V113.42C251.306 113.997 251.406 114.486 251.604 114.887C251.807 115.285 252.087 115.588 252.445 115.797C252.803 116.002 253.219 116.105 253.693 116.105C254.001 116.105 254.279 116.062 254.528 115.976C254.78 115.886 254.997 115.754 255.179 115.578C255.361 115.399 255.502 115.177 255.602 114.912L256.735 115.23C256.616 115.615 256.415 115.953 256.134 116.244C255.852 116.533 255.504 116.758 255.09 116.92C254.675 117.08 254.21 117.159 253.693 117.159ZM259.494 117.08C259.249 117.08 259.039 116.992 258.863 116.816C258.687 116.64 258.6 116.43 258.6 116.185C258.6 115.939 258.687 115.729 258.863 115.553C259.039 115.378 259.249 115.29 259.494 115.29C259.74 115.29 259.95 115.378 260.126 115.553C260.301 115.729 260.389 115.939 260.389 116.185C260.389 116.347 260.348 116.496 260.265 116.632C260.185 116.768 260.078 116.877 259.942 116.96C259.809 117.04 259.66 117.08 259.494 117.08Z" fill="black"/>
</svg>
