<svg width="539" height="329" viewBox="0 0 539 329" fill="none" xmlns="http://www.w3.org/2000/svg">
<rect width="539" height="328.467" fill="url(#paint0_linear_2131_8248)"/>
<path d="M269 84C290.217 84 310.566 92.4285 325.569 107.431C340.571 122.434 349 142.783 349 164C349 185.217 340.571 205.566 325.569 220.569C310.566 235.571 290.217 244 269 244C247.783 244 227.434 235.571 212.431 220.569C197.429 205.566 189 185.217 189 164C189 142.783 197.429 122.434 212.431 107.431C227.434 92.4285 247.783 84 269 84ZM204 164C204 181.239 210.848 197.772 223.038 209.962C235.228 222.152 251.761 229 269 229C286.239 229 302.772 222.152 314.962 209.962C327.152 197.772 334 181.239 334 164C334 146.761 327.152 130.228 314.962 118.038C302.772 105.848 286.239 99 269 99C251.761 99 235.228 105.848 223.038 118.038C210.848 130.228 204 146.761 204 164ZM252.79 136.27L295.43 161.86C295.798 162.083 296.103 162.396 296.315 162.771C296.526 163.146 296.638 163.57 296.638 164C296.638 164.43 296.526 164.854 296.315 165.229C296.103 165.604 295.798 165.917 295.43 166.14L252.79 191.73C252.411 191.958 251.978 192.082 251.535 192.088C251.093 192.095 250.656 191.983 250.271 191.765C249.885 191.548 249.565 191.232 249.341 190.85C249.118 190.467 249 190.033 249 189.59V138.42C248.998 137.976 249.115 137.541 249.338 137.157C249.56 136.773 249.881 136.456 250.266 136.237C250.652 136.018 251.089 135.906 251.533 135.912C251.976 135.917 252.41 136.041 252.79 136.27Z" fill="white"/>
<defs>
<linearGradient id="paint0_linear_2131_8248" x1="269.5" y1="0" x2="269.5" y2="328.467" gradientUnits="userSpaceOnUse">
<stop stop-color="#00B2FF"/>
<stop offset="1" stop-color="#1E0094"/>
</linearGradient>
</defs>
</svg>
