<svg width="258" height="64" viewBox="0 0 258 64" fill="none" xmlns="http://www.w3.org/2000/svg">
<path d="M137.96 23.7819C137.834 24.2296 137.238 24.5459 136.045 25.1786C134.891 25.7903 134.315 26.0959 133.85 25.9733C133.657 25.9223 133.482 25.8258 133.341 25.6929C133 25.3713 133 24.7476 133 23.4999C133 22.2523 133 21.6286 133.341 21.307C133.482 21.1743 133.657 21.0778 133.85 21.027C134.315 20.9036 134.891 21.2096 136.045 21.8213C137.237 22.454 137.834 22.7703 137.961 23.2179C138.013 23.4028 138.013 23.5971 137.961 23.7819" stroke="black" stroke-linecap="round" stroke-linejoin="round"/>
<path d="M80.36 49V25.36H71.76V21.28H93.72V25.36H85.16V49H80.36ZM95.4072 49V29.16C96.3139 28.8133 97.4339 28.48 98.7672 28.16C100.127 27.84 101.674 27.68 103.407 27.68C103.914 27.68 104.461 27.72 105.047 27.8C105.634 27.8533 106.194 27.9333 106.727 28.04C107.261 28.1467 107.701 28.2667 108.047 28.4L107.207 32.24C106.807 32.1067 106.261 31.9733 105.567 31.84C104.874 31.7067 104.074 31.64 103.167 31.64C102.474 31.64 101.834 31.6933 101.247 31.8C100.661 31.9067 100.247 32 100.007 32.08V49H95.4072ZM120.907 49.52C118.427 49.52 116.4 49.0533 114.827 48.12C113.253 47.16 112.08 45.8533 111.307 44.2C110.56 42.5467 110.187 40.6933 110.187 38.64C110.187 36.1867 110.653 34.1467 111.587 32.52C112.52 30.8667 113.72 29.64 115.187 28.84C116.653 28.0133 118.213 27.6 119.867 27.6C121.733 27.6 123.347 27.9867 124.707 28.76C126.067 29.5333 127.12 30.7067 127.867 32.28C128.613 33.8267 128.987 35.7733 128.987 38.12C128.987 38.3867 128.973 38.6933 128.947 39.04C128.92 39.36 128.893 39.6667 128.867 39.96H114.907C115.04 41.6933 115.64 43.0533 116.707 44.04C117.8 45.0267 119.373 45.52 121.427 45.52C122.653 45.52 123.747 45.4133 124.707 45.2C125.667 44.96 126.413 44.72 126.947 44.48L127.627 48.24C127.093 48.5067 126.2 48.7867 124.947 49.08C123.72 49.3733 122.373 49.52 120.907 49.52ZM114.947 36.6H124.467C124.44 35.6133 124.253 34.7333 123.907 33.96C123.587 33.1867 123.093 32.5733 122.427 32.12C121.76 31.6667 120.92 31.44 119.907 31.44C118.867 31.44 118 31.6933 117.307 32.2C116.613 32.68 116.067 33.32 115.667 34.12C115.293 34.8933 115.053 35.72 114.947 36.6ZM133.12 49V27.96H137.56V49H133.12ZM142.712 49V28.84C143.645 28.5733 144.845 28.32 146.312 28.08C147.805 27.8133 149.459 27.68 151.272 27.68C153.565 27.68 155.339 28.08 156.592 28.88C157.872 29.68 158.765 30.8 159.272 32.24C159.805 33.68 160.072 35.3467 160.072 37.24V49H155.472V38.04C155.472 36.4667 155.325 35.2133 155.032 34.28C154.765 33.3467 154.299 32.6667 153.632 32.24C152.992 31.8133 152.072 31.6 150.872 31.6C150.125 31.6 149.419 31.6533 148.752 31.76C148.112 31.84 147.632 31.9067 147.312 31.96V49H142.712ZM172.994 49.44C171.314 49.44 169.834 49.2267 168.554 48.8C167.301 48.3467 166.314 47.6267 165.594 46.64C164.901 45.6533 164.554 44.3467 164.554 42.72C164.554 41.12 164.941 39.84 165.714 38.88C166.514 37.92 167.581 37.24 168.914 36.84C170.274 36.4133 171.741 36.2 173.314 36.2C174.087 36.2 174.821 36.2533 175.514 36.36C176.234 36.44 176.741 36.5333 177.034 36.64V35.8C177.034 35 176.901 34.28 176.634 33.64C176.394 32.9733 175.954 32.44 175.314 32.04C174.674 31.64 173.754 31.44 172.554 31.44C171.327 31.44 170.274 31.5333 169.394 31.72C168.514 31.9067 167.794 32.0933 167.234 32.28L166.634 28.52C167.221 28.3067 168.087 28.1067 169.234 27.92C170.381 27.7067 171.647 27.6 173.034 27.6C175.167 27.6 176.847 27.9467 178.074 28.64C179.301 29.3067 180.167 30.2533 180.674 31.48C181.207 32.7067 181.474 34.1333 181.474 35.76V48.44C180.754 48.6 179.647 48.8 178.154 49.04C176.687 49.3067 174.967 49.44 172.994 49.44ZM173.394 45.8C174.141 45.8 174.834 45.7733 175.474 45.72C176.114 45.6667 176.634 45.6 177.034 45.52V39.88C176.767 39.8 176.354 39.72 175.794 39.64C175.261 39.5333 174.647 39.48 173.954 39.48C173.154 39.48 172.381 39.56 171.634 39.72C170.914 39.88 170.314 40.1867 169.834 40.64C169.354 41.0667 169.114 41.72 169.114 42.6C169.114 43.8 169.501 44.64 170.274 45.12C171.047 45.5733 172.087 45.8 173.394 45.8Z" fill="#0066FF" fill-opacity="0.93"/>
<path d="M187.96 49V21.28H190.52V33.36H205.76V21.28H208.36V49H205.76V35.6H190.52V49H187.96ZM223.417 49.36C221.39 49.36 219.763 49 218.537 48.28C217.337 47.5333 216.47 46.4533 215.937 45.04C215.43 43.6267 215.177 41.8933 215.177 39.84V28.28H217.617V39.28C217.617 41.2 217.817 42.7333 218.217 43.88C218.617 45.0267 219.257 45.8533 220.137 46.36C221.017 46.8667 222.203 47.12 223.697 47.12C224.763 47.12 225.763 47.0667 226.697 46.96C227.63 46.8267 228.297 46.6933 228.697 46.56V28.28H231.137V48.2C230.283 48.4667 229.19 48.7333 227.857 49C226.55 49.24 225.07 49.36 223.417 49.36ZM245.194 49.4C244.207 49.4 243.26 49.3467 242.354 49.24C241.474 49.1333 240.66 49 239.914 48.84C239.194 48.68 238.567 48.52 238.034 48.36V18.4L240.474 17.96V29.64C241.007 29.2133 241.794 28.8133 242.834 28.44C243.874 28.0667 245.02 27.88 246.274 27.88C248.247 27.88 249.927 28.3467 251.314 29.28C252.7 30.1867 253.754 31.4533 254.474 33.08C255.194 34.68 255.554 36.52 255.554 38.6C255.554 40.84 255.14 42.7733 254.314 44.4C253.487 46 252.3 47.24 250.754 48.12C249.207 48.9733 247.354 49.4 245.194 49.4ZM245.234 47.2C246.86 47.2 248.247 46.8667 249.394 46.2C250.567 45.5067 251.447 44.52 252.034 43.24C252.647 41.96 252.954 40.4133 252.954 38.6C252.954 37.4 252.82 36.28 252.554 35.24C252.314 34.2 251.9 33.3067 251.314 32.56C250.754 31.7867 250.034 31.1867 249.154 30.76C248.3 30.3333 247.274 30.12 246.074 30.12C244.847 30.12 243.727 30.32 242.714 30.72C241.727 31.12 240.98 31.5333 240.474 31.96V46.68C240.954 46.8133 241.594 46.9333 242.394 47.04C243.22 47.1467 244.167 47.2 245.234 47.2Z" fill="black"/>
<rect width="64" height="64" rx="8" fill="#0066FF" fill-opacity="0.93"/>
<ellipse cx="32" cy="32" rx="25" ry="26" fill="url(#paint0_linear_2253_5785)"/>
<path d="M43.7935 33.3123C43.2644 35.3959 40.7611 36.8682 35.753 39.8128C30.9113 42.6597 28.4904 44.0824 26.5402 43.5115C25.7319 43.2743 24.9966 42.8248 24.4057 42.2067C22.9727 40.7096 22.9727 37.8068 22.9727 31.9998C22.9727 26.1927 22.9727 23.29 24.4057 21.7928C24.9968 21.1753 25.7321 20.7263 26.5402 20.4896C28.4904 19.9156 30.9113 21.3398 35.753 24.1867C40.7596 27.1313 43.2644 28.6037 43.795 30.6872C44.0154 31.5474 44.0154 32.4521 43.795 33.3123" stroke="white" stroke-width="1.5" stroke-linecap="round" stroke-linejoin="round"/>
<defs>
<linearGradient id="paint0_linear_2253_5785" x1="32" y1="6" x2="32" y2="58" gradientUnits="userSpaceOnUse">
<stop stop-color="#0066FF" stop-opacity="0.93"/>
<stop offset="1"/>
</linearGradient>
</defs>
</svg>
