<svg width="472" height="473" viewBox="0 0 472 473" fill="none" xmlns="http://www.w3.org/2000/svg">
<g filter="url(#filter0_d_2011_17592)">
<rect x="4" width="464" height="464.221" rx="40" fill="url(#paint0_linear_2011_17592)" shape-rendering="crispEdges"/>
</g>
<g filter="url(#filter1_d_2011_17592)">
<rect x="4" width="464" height="464.221" rx="40" fill="url(#paint1_linear_2011_17592)" shape-rendering="crispEdges"/>
</g>
<path d="M84.9864 244.455V223.295H75.3864V216.455H102.786V223.295H92.9064V244.455H84.9864ZM107.637 244.455V223.135H114.557L114.957 230.535L113.077 229.895C113.45 228.562 114.063 227.348 114.917 226.255C115.797 225.162 116.823 224.295 117.997 223.655C119.197 223.015 120.45 222.695 121.757 222.695C122.45 222.695 123.117 222.762 123.757 222.895C124.397 223.002 124.957 223.162 125.437 223.375L123.397 231.535C123.023 231.242 122.463 231.002 121.717 230.815C120.997 230.628 120.25 230.535 119.477 230.535C118.757 230.535 118.117 230.655 117.557 230.895C117.023 231.108 116.57 231.415 116.197 231.815C115.823 232.188 115.543 232.628 115.357 233.135C115.17 233.615 115.077 234.148 115.077 234.735V244.455H107.637ZM139.74 244.815C137.66 244.815 135.834 244.348 134.26 243.415C132.687 242.482 131.46 241.188 130.58 239.535C129.7 237.855 129.26 235.935 129.26 233.775C129.26 231.588 129.7 229.668 130.58 228.015C131.46 226.362 132.687 225.068 134.26 224.135C135.86 223.175 137.714 222.695 139.82 222.695C140.994 222.695 142.074 222.842 143.06 223.135C144.074 223.402 144.94 223.802 145.66 224.335C146.407 224.842 147.02 225.402 147.5 226.015C148.007 226.602 148.38 227.228 148.62 227.895L147.02 227.975V223.135H154.3V244.455H146.86V238.935L148.42 239.255C148.234 239.975 147.887 240.668 147.38 241.335C146.9 242.002 146.274 242.602 145.5 243.135C144.727 243.642 143.86 244.055 142.9 244.375C141.94 244.668 140.887 244.815 139.74 244.815ZM141.82 238.695C142.887 238.695 143.807 238.508 144.58 238.135C145.38 237.735 145.994 237.162 146.42 236.415C146.847 235.668 147.06 234.788 147.06 233.775C147.06 232.762 146.847 231.882 146.42 231.135C145.994 230.388 145.38 229.815 144.58 229.415C143.807 229.015 142.887 228.815 141.82 228.815C140.727 228.815 139.794 229.015 139.02 229.415C138.247 229.815 137.647 230.388 137.22 231.135C136.82 231.882 136.62 232.762 136.62 233.775C136.62 234.788 136.82 235.668 137.22 236.415C137.647 237.162 138.247 237.735 139.02 238.135C139.794 238.508 140.727 238.695 141.82 238.695ZM164.362 244.455V223.135H171.802V244.455H164.362ZM168.082 218.935C166.749 218.935 165.695 218.628 164.922 218.015C164.175 217.375 163.802 216.482 163.802 215.335C163.802 214.268 164.189 213.402 164.962 212.735C165.735 212.042 166.775 211.695 168.082 211.695C169.442 211.695 170.495 212.015 171.242 212.655C172.015 213.268 172.402 214.162 172.402 215.335C172.402 216.402 172.015 217.268 171.242 217.935C170.469 218.602 169.415 218.935 168.082 218.935ZM182.051 244.455V223.135H188.971L189.331 228.095L187.571 228.575C187.891 227.508 188.464 226.535 189.291 225.655C190.117 224.748 191.144 224.028 192.371 223.495C193.597 222.962 194.944 222.695 196.411 222.695C198.197 222.695 199.717 223.055 200.971 223.775C202.251 224.495 203.211 225.522 203.851 226.855C204.491 228.162 204.811 229.722 204.811 231.535V244.455H197.371V232.655C197.371 231.828 197.224 231.135 196.931 230.575C196.637 230.015 196.197 229.588 195.611 229.295C195.051 228.975 194.384 228.815 193.611 228.815C192.944 228.815 192.357 228.922 191.851 229.135C191.344 229.348 190.917 229.642 190.571 230.015C190.224 230.362 189.957 230.762 189.771 231.215C189.584 231.642 189.491 232.082 189.491 232.535V244.455H185.771C184.731 244.455 183.904 244.455 183.291 244.455C182.677 244.455 182.264 244.455 182.051 244.455ZM214.636 244.455V223.135H222.076V244.455H214.636ZM218.356 218.935C217.022 218.935 215.969 218.628 215.196 218.015C214.449 217.375 214.076 216.482 214.076 215.335C214.076 214.268 214.462 213.402 215.236 212.735C216.009 212.042 217.049 211.695 218.356 211.695C219.716 211.695 220.769 212.015 221.516 212.655C222.289 213.268 222.676 214.162 222.676 215.335C222.676 216.402 222.289 217.268 221.516 217.935C220.742 218.602 219.689 218.935 218.356 218.935ZM232.324 244.455V223.135H239.244L239.604 228.095L237.844 228.575C238.164 227.508 238.738 226.535 239.564 225.655C240.391 224.748 241.418 224.028 242.644 223.495C243.871 222.962 245.218 222.695 246.684 222.695C248.471 222.695 249.991 223.055 251.244 223.775C252.524 224.495 253.484 225.522 254.124 226.855C254.764 228.162 255.084 229.722 255.084 231.535V244.455H247.644V232.655C247.644 231.828 247.498 231.135 247.204 230.575C246.911 230.015 246.471 229.588 245.884 229.295C245.324 228.975 244.658 228.815 243.884 228.815C243.218 228.815 242.631 228.922 242.124 229.135C241.618 229.348 241.191 229.642 240.844 230.015C240.498 230.362 240.231 230.762 240.044 231.215C239.858 231.642 239.764 232.082 239.764 232.535V244.455H236.044C235.004 244.455 234.178 244.455 233.564 244.455C232.951 244.455 232.538 244.455 232.324 244.455ZM275.549 253.655C273.336 253.655 271.269 253.388 269.349 252.855C267.456 252.322 265.909 251.655 264.709 250.855L267.229 245.695C267.816 246.015 268.456 246.322 269.149 246.615C269.869 246.908 270.656 247.135 271.509 247.295C272.389 247.482 273.336 247.575 274.349 247.575C275.682 247.575 276.789 247.362 277.669 246.935C278.549 246.535 279.216 245.908 279.669 245.055C280.149 244.202 280.389 243.135 280.389 241.855V239.135L281.989 239.335C281.749 240.188 281.202 240.975 280.349 241.695C279.496 242.388 278.429 242.948 277.149 243.375C275.896 243.802 274.536 244.015 273.069 244.015C270.989 244.015 269.162 243.588 267.589 242.735C266.016 241.855 264.776 240.642 263.869 239.095C262.962 237.548 262.509 235.735 262.509 233.655C262.509 231.495 262.962 229.602 263.869 227.975C264.802 226.322 266.069 225.028 267.669 224.095C269.269 223.162 271.109 222.695 273.189 222.695C273.909 222.695 274.669 222.775 275.469 222.935C276.269 223.068 277.042 223.268 277.789 223.535C278.536 223.802 279.216 224.148 279.829 224.575C280.442 224.975 280.949 225.428 281.349 225.935C281.749 226.415 281.989 226.948 282.069 227.535L280.549 227.895L280.949 223.135H287.869V241.855C287.869 243.802 287.562 245.495 286.949 246.935C286.336 248.402 285.469 249.628 284.349 250.615C283.256 251.628 281.949 252.388 280.429 252.895C278.936 253.402 277.309 253.655 275.549 253.655ZM275.309 238.575C276.402 238.575 277.349 238.375 278.149 237.975C278.949 237.575 279.549 237.015 279.949 236.295C280.376 235.575 280.589 234.708 280.589 233.695C280.589 232.682 280.376 231.815 279.949 231.095C279.549 230.348 278.949 229.788 278.149 229.415C277.349 229.015 276.402 228.815 275.309 228.815C274.162 228.815 273.189 229.015 272.389 229.415C271.589 229.788 270.962 230.348 270.509 231.095C270.056 231.815 269.829 232.682 269.829 233.695C269.829 234.708 270.056 235.575 270.509 236.295C270.962 237.015 271.589 237.575 272.389 237.975C273.189 238.375 274.162 238.575 275.309 238.575ZM305.489 244.855C303.009 244.855 300.809 244.508 298.889 243.815C296.969 243.122 295.436 242.175 294.289 240.975L298.689 237.135C299.569 237.935 300.662 238.562 301.969 239.015C303.276 239.442 304.596 239.655 305.929 239.655C306.329 239.655 306.702 239.628 307.049 239.575C307.396 239.495 307.689 239.402 307.929 239.295C308.169 239.188 308.356 239.055 308.489 238.895C308.649 238.708 308.729 238.508 308.729 238.295C308.729 237.895 308.462 237.575 307.929 237.335C307.529 237.202 306.969 237.068 306.249 236.935C305.556 236.775 304.782 236.615 303.929 236.455C302.516 236.188 301.262 235.882 300.169 235.535C299.076 235.162 298.142 234.695 297.369 234.135C296.676 233.575 296.129 232.908 295.729 232.135C295.329 231.362 295.129 230.482 295.129 229.495C295.129 228.428 295.396 227.482 295.929 226.655C296.489 225.802 297.236 225.082 298.169 224.495C299.129 223.908 300.222 223.468 301.449 223.175C302.676 222.855 303.942 222.695 305.249 222.695C306.609 222.695 307.916 222.815 309.169 223.055C310.449 223.295 311.662 223.642 312.809 224.095C313.956 224.548 314.969 225.135 315.849 225.855L312.129 230.175C311.542 229.775 310.862 229.402 310.089 229.055C309.316 228.682 308.476 228.375 307.569 228.135C306.662 227.895 305.782 227.775 304.929 227.775C304.529 227.775 304.156 227.802 303.809 227.855C303.489 227.908 303.209 227.988 302.969 228.095C302.756 228.202 302.582 228.335 302.449 228.495C302.316 228.655 302.249 228.828 302.249 229.015C302.222 229.255 302.276 229.455 302.409 229.615C302.542 229.775 302.716 229.922 302.929 230.055C303.302 230.268 303.849 230.455 304.569 230.615C305.289 230.775 306.209 230.975 307.329 231.215C309.062 231.562 310.516 231.975 311.689 232.455C312.862 232.908 313.809 233.442 314.529 234.055C315.009 234.508 315.369 235.042 315.609 235.655C315.876 236.242 316.009 236.895 316.009 237.615C316.009 239.002 315.556 240.242 314.649 241.335C313.769 242.428 312.542 243.295 310.969 243.935C309.422 244.548 307.596 244.855 305.489 244.855Z" fill="white"/>
<path d="M68.68 164V80H112.36C118.28 80 123.56 81.24 128.2 83.72C132.84 86.2 136.48 89.6 139.12 93.92C141.84 98.24 143.2 103.2 143.2 108.8C143.2 114.72 141.8 120 139 124.64C136.28 129.28 132.52 132.92 127.72 135.56C122.92 138.2 117.48 139.52 111.4 139.52H94.6V164H68.68ZM94.12 117.44H106.24C108.08 117.44 109.76 117.12 111.28 116.48C112.88 115.84 114.12 114.92 115 113.72C115.88 112.52 116.32 111.04 116.32 109.28C116.32 107.6 115.88 106.24 115 105.2C114.12 104.16 112.88 103.4 111.28 102.92C109.76 102.36 108.08 102.08 106.24 102.08H94.12V117.44ZM199.426 165.2C192.626 165.2 186.546 164.56 181.186 163.28C175.826 161.92 171.066 160.08 166.906 157.76C162.826 155.44 159.106 152.84 155.746 149.96L168.826 131.72C174.266 136.44 179.786 139.68 185.386 141.44C191.066 143.12 196.186 143.96 200.746 143.96C202.266 143.96 203.826 143.88 205.426 143.72C207.026 143.48 208.306 143 209.266 142.28C210.306 141.56 210.826 140.48 210.826 139.04C210.826 138.08 210.506 137.28 209.866 136.64C209.226 135.92 208.306 135.36 207.106 134.96C205.986 134.48 204.666 134.08 203.146 133.76C201.626 133.44 200.026 133.16 198.346 132.92C196.666 132.68 194.866 132.44 192.946 132.2C187.746 131.4 183.106 130.28 179.026 128.84C175.026 127.32 171.626 125.44 168.826 123.2C166.106 120.96 164.026 118.36 162.586 115.4C161.146 112.44 160.426 109.08 160.426 105.32C160.426 101.08 161.426 97.24 163.426 93.8C165.506 90.36 168.306 87.44 171.826 85.04C175.426 82.64 179.506 80.8 184.066 79.52C188.626 78.24 193.426 77.6 198.466 77.6C204.866 77.6 210.306 78.16 214.786 79.28C219.346 80.4 223.226 81.92 226.426 83.84C229.706 85.76 232.466 87.88 234.706 90.2L221.386 105.92C219.306 104.4 216.986 103.16 214.426 102.2C211.866 101.16 209.226 100.4 206.506 99.92C203.866 99.36 201.306 99.08 198.826 99.08C196.506 99.08 194.466 99.24 192.706 99.56C191.026 99.8 189.666 100.28 188.626 101C187.666 101.64 187.186 102.56 187.186 103.76C187.186 104.88 187.746 105.8 188.866 106.52C190.066 107.16 191.546 107.72 193.306 108.2C195.066 108.6 196.826 108.92 198.586 109.16C200.426 109.32 201.946 109.48 203.146 109.64C207.706 110.28 212.026 111.16 216.106 112.28C220.266 113.4 223.946 114.92 227.146 116.84C230.346 118.76 232.826 121.36 234.586 124.64C236.426 127.84 237.346 131.88 237.346 136.76C237.346 142.92 235.626 148.12 232.186 152.36C228.826 156.6 224.266 159.8 218.506 161.96C212.826 164.12 206.466 165.2 199.426 165.2Z" fill="url(#paint2_linear_2011_17592)"/>
<path d="M371 309C385.056 309 398.537 314.584 408.477 324.523C418.416 334.463 424 347.944 424 362C424 376.056 418.416 389.537 408.477 399.477C398.537 409.416 385.056 415 371 415C356.944 415 343.463 409.416 333.523 399.477C323.584 389.537 318 376.056 318 362C318 347.944 323.584 334.463 333.523 324.523C343.463 314.584 356.944 309 371 309ZM327.938 362C327.938 373.421 332.474 384.374 340.55 392.45C348.626 400.526 359.579 405.062 371 405.062C382.421 405.062 393.374 400.526 401.45 392.45C409.526 384.374 414.062 373.421 414.062 362C414.062 350.579 409.526 339.626 401.45 331.55C393.374 323.474 382.421 318.938 371 318.938C359.579 318.938 348.626 323.474 340.55 331.55C332.474 339.626 327.938 350.579 327.938 362ZM360.261 343.629L388.51 360.582C388.754 360.73 388.956 360.938 389.096 361.186C389.236 361.434 389.31 361.715 389.31 362C389.31 362.285 389.236 362.566 389.096 362.814C388.956 363.062 388.754 363.27 388.51 363.418L360.261 380.371C360.01 380.522 359.723 380.604 359.43 380.608C359.136 380.613 358.847 380.539 358.592 380.395C358.337 380.25 358.124 380.041 357.976 379.788C357.828 379.535 357.75 379.247 357.75 378.953V345.053C357.749 344.759 357.826 344.471 357.974 344.216C358.121 343.962 358.333 343.752 358.589 343.607C358.845 343.462 359.134 343.388 359.428 343.391C359.722 343.395 360.009 343.477 360.261 343.629Z" fill="#00B2FF"/>
<defs>
<filter id="filter0_d_2011_17592" x="0" y="0" width="472" height="472.221" filterUnits="userSpaceOnUse" color-interpolation-filters="sRGB">
<feFlood flood-opacity="0" result="BackgroundImageFix"/>
<feColorMatrix in="SourceAlpha" type="matrix" values="0 0 0 0 0 0 0 0 0 0 0 0 0 0 0 0 0 0 127 0" result="hardAlpha"/>
<feOffset dy="4"/>
<feGaussianBlur stdDeviation="2"/>
<feComposite in2="hardAlpha" operator="out"/>
<feColorMatrix type="matrix" values="0 0 0 0 0 0 0 0 0 0 0 0 0 0 0 0 0 0 0.25 0"/>
<feBlend mode="normal" in2="BackgroundImageFix" result="effect1_dropShadow_2011_17592"/>
<feBlend mode="normal" in="SourceGraphic" in2="effect1_dropShadow_2011_17592" result="shape"/>
</filter>
<filter id="filter1_d_2011_17592" x="0" y="0" width="472" height="472.221" filterUnits="userSpaceOnUse" color-interpolation-filters="sRGB">
<feFlood flood-opacity="0" result="BackgroundImageFix"/>
<feColorMatrix in="SourceAlpha" type="matrix" values="0 0 0 0 0 0 0 0 0 0 0 0 0 0 0 0 0 0 127 0" result="hardAlpha"/>
<feOffset dy="4"/>
<feGaussianBlur stdDeviation="2"/>
<feComposite in2="hardAlpha" operator="out"/>
<feColorMatrix type="matrix" values="0 0 0 0 0 0 0 0 0 0 0 0 0 0 0 0 0 0 0.25 0"/>
<feBlend mode="normal" in2="BackgroundImageFix" result="effect1_dropShadow_2011_17592"/>
<feBlend mode="normal" in="SourceGraphic" in2="effect1_dropShadow_2011_17592" result="shape"/>
</filter>
<linearGradient id="paint0_linear_2011_17592" x1="444.06" y1="25.9273" x2="31.2006" y2="435.134" gradientUnits="userSpaceOnUse">
<stop offset="0.337702"/>
<stop offset="0.93" stop-color="#0066FF" stop-opacity="0.93"/>
</linearGradient>
<linearGradient id="paint1_linear_2011_17592" x1="444.06" y1="25.9273" x2="31.2006" y2="435.134" gradientUnits="userSpaceOnUse">
<stop offset="0.337702"/>
<stop offset="0.93" stop-color="#0066FF" stop-opacity="0.93"/>
</linearGradient>
<linearGradient id="paint2_linear_2011_17592" x1="218" y1="44" x2="218" y2="204" gradientUnits="userSpaceOnUse">
<stop offset="0.555" stop-color="white"/>
<stop offset="1" stop-color="#999999"/>
</linearGradient>
</defs>
</svg>
