<svg width="260" height="64" viewBox="0 0 260 64" fill="none" xmlns="http://www.w3.org/2000/svg">
<path d="M139.96 23.7819C139.834 24.2296 139.238 24.5459 138.045 25.1786C136.891 25.7903 136.315 26.0959 135.85 25.9733C135.657 25.9223 135.482 25.8258 135.341 25.6929C135 25.3713 135 24.7476 135 23.4999C135 22.2523 135 21.6286 135.341 21.307C135.482 21.1743 135.657 21.0778 135.85 21.027C136.315 20.9036 136.891 21.2096 138.045 21.8213C139.237 22.454 139.834 22.7703 139.961 23.2179C140.013 23.4028 140.013 23.5971 139.961 23.7819" stroke="white" stroke-linecap="round" stroke-linejoin="round"/>
<path d="M82.36 50V26.36H73.76V22.28H95.72V26.36H87.16V50H82.36ZM97.4072 50V30.16C98.3139 29.8133 99.4339 29.48 100.767 29.16C102.127 28.84 103.674 28.68 105.407 28.68C105.914 28.68 106.461 28.72 107.047 28.8C107.634 28.8533 108.194 28.9333 108.727 29.04C109.261 29.1467 109.701 29.2667 110.047 29.4L109.207 33.24C108.807 33.1067 108.261 32.9733 107.567 32.84C106.874 32.7067 106.074 32.64 105.167 32.64C104.474 32.64 103.834 32.6933 103.247 32.8C102.661 32.9067 102.247 33 102.007 33.08V50H97.4072ZM122.907 50.52C120.427 50.52 118.4 50.0533 116.827 49.12C115.253 48.16 114.08 46.8533 113.307 45.2C112.56 43.5467 112.187 41.6933 112.187 39.64C112.187 37.1867 112.653 35.1467 113.587 33.52C114.52 31.8667 115.72 30.64 117.187 29.84C118.653 29.0133 120.213 28.6 121.867 28.6C123.733 28.6 125.347 28.9867 126.707 29.76C128.067 30.5333 129.12 31.7067 129.867 33.28C130.613 34.8267 130.987 36.7733 130.987 39.12C130.987 39.3867 130.973 39.6933 130.947 40.04C130.92 40.36 130.893 40.6667 130.867 40.96H116.907C117.04 42.6933 117.64 44.0533 118.707 45.04C119.8 46.0267 121.373 46.52 123.427 46.52C124.653 46.52 125.747 46.4133 126.707 46.2C127.667 45.96 128.413 45.72 128.947 45.48L129.627 49.24C129.093 49.5067 128.2 49.7867 126.947 50.08C125.72 50.3733 124.373 50.52 122.907 50.52ZM116.947 37.6H126.467C126.44 36.6133 126.253 35.7333 125.907 34.96C125.587 34.1867 125.093 33.5733 124.427 33.12C123.76 32.6667 122.92 32.44 121.907 32.44C120.867 32.44 120 32.6933 119.307 33.2C118.613 33.68 118.067 34.32 117.667 35.12C117.293 35.8933 117.053 36.72 116.947 37.6ZM135.12 50V28.96H139.56V50H135.12ZM144.712 50V29.84C145.645 29.5733 146.845 29.32 148.312 29.08C149.805 28.8133 151.459 28.68 153.272 28.68C155.565 28.68 157.339 29.08 158.592 29.88C159.872 30.68 160.765 31.8 161.272 33.24C161.805 34.68 162.072 36.3467 162.072 38.24V50H157.472V39.04C157.472 37.4667 157.325 36.2133 157.032 35.28C156.765 34.3467 156.299 33.6667 155.632 33.24C154.992 32.8133 154.072 32.6 152.872 32.6C152.125 32.6 151.419 32.6533 150.752 32.76C150.112 32.84 149.632 32.9067 149.312 32.96V50H144.712ZM174.994 50.44C173.314 50.44 171.834 50.2267 170.554 49.8C169.301 49.3467 168.314 48.6267 167.594 47.64C166.901 46.6533 166.554 45.3467 166.554 43.72C166.554 42.12 166.941 40.84 167.714 39.88C168.514 38.92 169.581 38.24 170.914 37.84C172.274 37.4133 173.741 37.2 175.314 37.2C176.087 37.2 176.821 37.2533 177.514 37.36C178.234 37.44 178.741 37.5333 179.034 37.64V36.8C179.034 36 178.901 35.28 178.634 34.64C178.394 33.9733 177.954 33.44 177.314 33.04C176.674 32.64 175.754 32.44 174.554 32.44C173.327 32.44 172.274 32.5333 171.394 32.72C170.514 32.9067 169.794 33.0933 169.234 33.28L168.634 29.52C169.221 29.3067 170.087 29.1067 171.234 28.92C172.381 28.7067 173.647 28.6 175.034 28.6C177.167 28.6 178.847 28.9467 180.074 29.64C181.301 30.3067 182.167 31.2533 182.674 32.48C183.207 33.7067 183.474 35.1333 183.474 36.76V49.44C182.754 49.6 181.647 49.8 180.154 50.04C178.687 50.3067 176.967 50.44 174.994 50.44ZM175.394 46.8C176.141 46.8 176.834 46.7733 177.474 46.72C178.114 46.6667 178.634 46.6 179.034 46.52V40.88C178.767 40.8 178.354 40.72 177.794 40.64C177.261 40.5333 176.647 40.48 175.954 40.48C175.154 40.48 174.381 40.56 173.634 40.72C172.914 40.88 172.314 41.1867 171.834 41.64C171.354 42.0667 171.114 42.72 171.114 43.6C171.114 44.8 171.501 45.64 172.274 46.12C173.047 46.5733 174.087 46.8 175.394 46.8Z" fill="#0066FF" fill-opacity="0.93"/>
<path d="M189.96 50V22.28H192.52V34.36H207.76V22.28H210.36V50H207.76V36.6H192.52V50H189.96ZM225.417 50.36C223.39 50.36 221.763 50 220.537 49.28C219.337 48.5333 218.47 47.4533 217.937 46.04C217.43 44.6267 217.177 42.8933 217.177 40.84V29.28H219.617V40.28C219.617 42.2 219.817 43.7333 220.217 44.88C220.617 46.0267 221.257 46.8533 222.137 47.36C223.017 47.8667 224.203 48.12 225.697 48.12C226.763 48.12 227.763 48.0667 228.697 47.96C229.63 47.8267 230.297 47.6933 230.697 47.56V29.28H233.137V49.2C232.283 49.4667 231.19 49.7333 229.857 50C228.55 50.24 227.07 50.36 225.417 50.36ZM247.194 50.4C246.207 50.4 245.26 50.3467 244.354 50.24C243.474 50.1333 242.66 50 241.914 49.84C241.194 49.68 240.567 49.52 240.034 49.36V19.4L242.474 18.96V30.64C243.007 30.2133 243.794 29.8133 244.834 29.44C245.874 29.0667 247.02 28.88 248.274 28.88C250.247 28.88 251.927 29.3467 253.314 30.28C254.7 31.1867 255.754 32.4533 256.474 34.08C257.194 35.68 257.554 37.52 257.554 39.6C257.554 41.84 257.14 43.7733 256.314 45.4C255.487 47 254.3 48.24 252.754 49.12C251.207 49.9733 249.354 50.4 247.194 50.4ZM247.234 48.2C248.86 48.2 250.247 47.8667 251.394 47.2C252.567 46.5067 253.447 45.52 254.034 44.24C254.647 42.96 254.954 41.4133 254.954 39.6C254.954 38.4 254.82 37.28 254.554 36.24C254.314 35.2 253.9 34.3067 253.314 33.56C252.754 32.7867 252.034 32.1867 251.154 31.76C250.3 31.3333 249.274 31.12 248.074 31.12C246.847 31.12 245.727 31.32 244.714 31.72C243.727 32.12 242.98 32.5333 242.474 32.96V47.68C242.954 47.8133 243.594 47.9333 244.394 48.04C245.22 48.1467 246.167 48.2 247.234 48.2Z" fill="white"/>
<rect width="64" height="64" rx="8" fill="#0066FF" fill-opacity="0.93"/>
<ellipse cx="32" cy="32" rx="25" ry="26" fill="url(#paint0_linear_2253_5795)"/>
<path d="M43.7935 33.3123C43.2644 35.3959 40.7611 36.8682 35.753 39.8128C30.9113 42.6597 28.4904 44.0824 26.5402 43.5115C25.7319 43.2743 24.9966 42.8248 24.4057 42.2067C22.9727 40.7096 22.9727 37.8068 22.9727 31.9998C22.9727 26.1927 22.9727 23.29 24.4057 21.7928C24.9968 21.1753 25.7321 20.7263 26.5402 20.4896C28.4904 19.9156 30.9113 21.3398 35.753 24.1867C40.7596 27.1313 43.2644 28.6037 43.795 30.6872C44.0154 31.5474 44.0154 32.4521 43.795 33.3123" stroke="white" stroke-width="1.5" stroke-linecap="round" stroke-linejoin="round"/>
<defs>
<linearGradient id="paint0_linear_2253_5795" x1="32" y1="6" x2="32" y2="58" gradientUnits="userSpaceOnUse">
<stop stop-color="#0066FF" stop-opacity="0.93"/>
<stop offset="1"/>
</linearGradient>
</defs>
</svg>
