<svg width="384" height="152" viewBox="0 0 384 152" fill="none" xmlns="http://www.w3.org/2000/svg">
<path d="M93.4844 89.5156V105.766H11.5312L10.6719 93.2656L58.875 17.25H75.3594L57.5469 47.4844L31.6875 89.5156H93.4844ZM79.9688 17.25V131H59.2656V17.25H79.9688Z" fill="black"/>
<path d="M358.484 89.5156V105.766H276.531L275.672 93.2656L323.875 17.25H340.359L322.547 47.4844L296.688 89.5156H358.484ZM344.969 17.25V131H324.266V17.25H344.969Z" fill="black"/>
<path d="M190.793 23.4584C205.034 23.4584 218.691 29.1235 228.761 39.2075C238.83 49.2915 244.488 62.9683 244.488 77.2292C244.488 91.4901 238.83 105.167 228.761 115.251C218.691 125.335 205.034 131 190.793 131C176.553 131 162.895 125.335 152.826 115.251C142.756 105.167 137.099 91.4901 137.099 77.2292C137.099 62.9683 142.756 49.2915 152.826 39.2075C162.895 29.1235 176.553 23.4584 190.793 23.4584ZM147.167 77.2292C147.167 88.8162 151.763 99.9286 159.945 108.122C168.126 116.315 179.223 120.918 190.793 120.918C202.364 120.918 213.46 116.315 221.642 108.122C229.824 99.9286 234.42 88.8162 234.42 77.2292C234.42 65.6422 229.824 54.5298 221.642 46.3366C213.46 38.1433 202.364 33.5404 190.793 33.5404C179.223 33.5404 168.126 38.1433 159.945 46.3366C151.763 54.5298 147.167 65.6422 147.167 77.2292ZM179.914 58.5909L208.533 75.7908C208.78 75.9404 208.984 76.1514 209.126 76.4034C209.268 76.6554 209.343 76.9399 209.343 77.2292C209.343 77.5186 209.268 77.803 209.126 78.055C208.984 78.307 208.78 78.518 208.533 78.6676L179.914 95.8675C179.659 96.021 179.368 96.1041 179.071 96.1083C178.774 96.1125 178.481 96.0377 178.223 95.8914C177.964 95.7451 177.749 95.5326 177.599 95.2757C177.449 95.0188 177.37 94.7267 177.37 94.4292V60.036C177.369 59.7379 177.447 59.4449 177.596 59.187C177.746 58.9292 177.961 58.7158 178.22 58.5687C178.479 58.4216 178.772 58.3461 179.07 58.3501C179.367 58.354 179.659 58.4371 179.914 58.5909Z" fill="#0066FF" fill-opacity="0.93"/>
<line y1="-6" x2="100" y2="-6" transform="matrix(-0.792447 0.60994 -0.608848 -0.793287 225.245 41)" stroke="#0066FF" stroke-opacity="0.93" stroke-width="12"/>
</svg>
