<svg width="192" height="87" viewBox="0 0 192 87" fill="none" xmlns="http://www.w3.org/2000/svg">
<path fill-rule="evenodd" clip-rule="evenodd" d="M96.0001 17.3335C113.486 17.3335 127.667 31.5137 127.667 49.0001C127.667 66.4865 113.486 80.6669 96.0001 80.6669C78.5137 80.6669 64.3335 66.4865 64.3335 49.0001C64.3335 31.5137 78.5137 17.3335 96.0001 17.3335ZM103.261 37.2612L96.0001 44.5226L88.739 37.2615L84.2614 41.7391L91.5225 49.0001L84.2614 56.2614L88.739 60.739L96.0001 53.4779L103.261 60.739L107.739 56.2614L100.478 49.0001L107.739 41.739L103.261 37.2612Z" fill="#0066FF" fill-opacity="0.93"/>
<path d="M31.7856 35.12C29.7056 37.84 27.4923 40.8 25.1456 44C22.799 47.2 20.8256 50.48 19.2256 53.84H31.7856V35.12ZM43.4656 20.56V53.84H49.3856V63.6H43.4656V76H31.7856V63.6H7.86563V54.88C9.03896 52.5333 10.5056 49.8933 12.2656 46.96C14.0256 43.9733 15.9723 40.9333 18.1056 37.84C20.2923 34.6933 22.5856 31.6267 24.9856 28.64C27.3856 25.6533 29.7856 22.96 32.1856 20.56H43.4656Z" fill="white"/>
<path d="M165.786 35.12C163.706 37.84 161.492 40.8 159.146 44C156.799 47.2 154.826 50.48 153.226 53.84H165.786V35.12ZM177.466 20.56V53.84H183.386V63.6H177.466V76H165.786V63.6H141.866V54.88C143.039 52.5333 144.506 49.8933 146.266 46.96C148.026 43.9733 149.972 40.9333 152.106 37.84C154.292 34.6933 156.586 31.6267 158.986 28.64C161.386 25.6533 163.786 22.96 166.186 20.56H177.466Z" fill="white"/>
</svg>
