<svg width="539" height="329" viewBox="0 0 539 329" fill="none" xmlns="http://www.w3.org/2000/svg">
<rect width="539" height="328.467" fill="url(#paint0_linear_2135_4407)"/>
<path d="M269 119C290.217 119 310.566 127.429 325.569 142.431C340.571 157.434 349 177.783 349 199C349 220.217 340.571 240.566 325.569 255.569C310.566 270.571 290.217 279 269 279C247.783 279 227.434 270.571 212.431 255.569C197.429 240.566 189 220.217 189 199C189 177.783 197.429 157.434 212.431 142.431C227.434 127.429 247.783 119 269 119ZM204 199C204 216.239 210.848 232.772 223.038 244.962C235.228 257.152 251.761 264 269 264C286.239 264 302.772 257.152 314.962 244.962C327.152 232.772 334 216.239 334 199C334 181.761 327.152 165.228 314.962 153.038C302.772 140.848 286.239 134 269 134C251.761 134 235.228 140.848 223.038 153.038C210.848 165.228 204 181.761 204 199ZM252.79 171.27L295.43 196.86C295.798 197.083 296.103 197.396 296.315 197.771C296.526 198.146 296.638 198.57 296.638 199C296.638 199.43 296.526 199.854 296.315 200.229C296.103 200.604 295.798 200.917 295.43 201.14L252.79 226.73C252.411 226.958 251.978 227.082 251.535 227.088C251.093 227.095 250.656 226.983 250.271 226.765C249.885 226.548 249.565 226.232 249.341 225.85C249.118 225.467 249 225.033 249 224.59V173.42C248.998 172.976 249.115 172.541 249.338 172.157C249.56 171.773 249.881 171.456 250.266 171.237C250.652 171.018 251.089 170.906 251.533 170.912C251.976 170.917 252.41 171.041 252.79 171.27Z" fill="white" fill-opacity="0.5"/>
<path d="M94.9716 40.5455L98.875 53.3295H99.0199L102.923 40.5455H107.645L101.756 58H96.1392L90.25 40.5455H94.9716ZM109.524 58V44.9091H113.692V58H109.524ZM111.612 43.3835C111.027 43.3835 110.524 43.1903 110.104 42.804C109.683 42.4119 109.473 41.9403 109.473 41.3892C109.473 40.8437 109.683 40.3778 110.104 39.9915C110.524 39.5994 111.027 39.4034 111.612 39.4034C112.203 39.4034 112.706 39.5994 113.121 39.9915C113.541 40.3778 113.751 40.8437 113.751 41.3892C113.751 41.9403 113.541 42.4119 113.121 42.804C112.706 43.1903 112.203 43.3835 111.612 43.3835ZM121.126 58.1875C120.16 58.1875 119.282 57.9375 118.492 57.4375C117.702 56.9375 117.072 56.1875 116.6 55.1875C116.129 54.1875 115.893 52.946 115.893 51.4631C115.893 49.9233 116.137 48.6562 116.626 47.6619C117.114 46.6676 117.754 45.9318 118.543 45.4545C119.339 44.9773 120.194 44.7386 121.109 44.7386C121.796 44.7386 122.384 44.858 122.873 45.0966C123.362 45.3295 123.765 45.6307 124.083 46C124.401 46.3693 124.643 46.7528 124.808 47.1506H124.893V40.5455H129.06V58H124.935V55.8778H124.808C124.631 56.2812 124.381 56.6591 124.058 57.0114C123.734 57.3636 123.327 57.6477 122.839 57.8636C122.356 58.0795 121.785 58.1875 121.126 58.1875ZM122.575 54.9403C123.08 54.9403 123.512 54.7983 123.87 54.5142C124.228 54.2244 124.504 53.8182 124.697 53.2955C124.89 52.7727 124.987 52.1591 124.987 51.4545C124.987 50.7386 124.89 50.1222 124.697 49.6051C124.509 49.0881 124.234 48.6903 123.87 48.4119C123.512 48.1335 123.08 47.9943 122.575 47.9943C122.058 47.9943 121.62 48.1364 121.262 48.4205C120.904 48.7045 120.631 49.1051 120.444 49.6222C120.262 50.1392 120.171 50.75 120.171 51.4545C120.171 52.1591 120.265 52.7727 120.452 53.2955C120.64 53.8182 120.91 54.2244 121.262 54.5142C121.62 54.7983 122.058 54.9403 122.575 54.9403ZM137.815 58.2472C136.446 58.2472 135.264 57.9773 134.27 57.4375C133.281 56.892 132.52 56.1165 131.986 55.1108C131.457 54.0994 131.193 52.8977 131.193 51.5057C131.193 50.1534 131.46 48.9716 131.994 47.9602C132.528 46.9432 133.281 46.1534 134.253 45.5909C135.224 45.0227 136.369 44.7386 137.688 44.7386C138.619 44.7386 139.472 44.8835 140.244 45.1733C141.017 45.4631 141.685 45.892 142.247 46.4602C142.81 47.0284 143.247 47.7301 143.56 48.5653C143.872 49.3949 144.028 50.3466 144.028 51.4205V52.4602H132.651V50.0398H140.151C140.145 49.5966 140.04 49.2017 139.835 48.8551C139.631 48.5085 139.349 48.2386 138.991 48.0455C138.639 47.8466 138.233 47.7472 137.773 47.7472C137.307 47.7472 136.889 47.8523 136.52 48.0625C136.151 48.267 135.858 48.5483 135.642 48.9062C135.426 49.2585 135.313 49.6591 135.301 50.108V52.571C135.301 53.1051 135.406 53.5739 135.616 53.9773C135.827 54.375 136.125 54.6847 136.511 54.9062C136.898 55.1278 137.358 55.2386 137.892 55.2386C138.261 55.2386 138.597 55.1875 138.898 55.0852C139.199 54.983 139.457 54.8324 139.673 54.6335C139.889 54.4347 140.051 54.1903 140.159 53.9006L143.986 54.0114C143.827 54.8693 143.477 55.6165 142.938 56.2528C142.403 56.8835 141.702 57.375 140.832 57.7273C139.963 58.0739 138.957 58.2472 137.815 58.2472ZM152.268 58.2472C150.893 58.2472 149.711 57.9659 148.722 57.4034C147.739 56.8352 146.981 56.0455 146.447 55.0341C145.918 54.017 145.654 52.8381 145.654 51.4972C145.654 50.1506 145.918 48.9716 146.447 47.9602C146.981 46.9432 147.739 46.1534 148.722 45.5909C149.711 45.0227 150.893 44.7386 152.268 44.7386C153.643 44.7386 154.822 45.0227 155.805 45.5909C156.793 46.1534 157.552 46.9432 158.08 47.9602C158.614 48.9716 158.881 50.1506 158.881 51.4972C158.881 52.8381 158.614 54.017 158.08 55.0341C157.552 56.0455 156.793 56.8352 155.805 57.4034C154.822 57.9659 153.643 58.2472 152.268 58.2472ZM152.293 55.1023C152.793 55.1023 153.217 54.9489 153.563 54.642C153.91 54.3352 154.174 53.9091 154.356 53.3636C154.543 52.8182 154.637 52.1875 154.637 51.4716C154.637 50.7443 154.543 50.108 154.356 49.5625C154.174 49.017 153.91 48.5909 153.563 48.2841C153.217 47.9773 152.793 47.8239 152.293 47.8239C151.776 47.8239 151.339 47.9773 150.981 48.2841C150.629 48.5909 150.359 49.017 150.171 49.5625C149.989 50.108 149.898 50.7443 149.898 51.4716C149.898 52.1875 149.989 52.8182 150.171 53.3636C150.359 53.9091 150.629 54.3352 150.981 54.642C151.339 54.9489 151.776 55.1023 152.293 55.1023ZM164.707 58.2216C163.871 58.2216 163.13 58.0824 162.482 57.804C161.84 57.5199 161.332 57.0937 160.957 56.5256C160.587 55.9517 160.403 55.233 160.403 54.3693C160.403 53.642 160.531 53.0284 160.786 52.5284C161.042 52.0284 161.394 51.6222 161.843 51.3097C162.292 50.9972 162.809 50.7614 163.394 50.6023C163.979 50.4375 164.604 50.3267 165.269 50.2699C166.013 50.2017 166.613 50.1307 167.067 50.0568C167.522 49.9773 167.852 49.8665 168.056 49.7244C168.266 49.5767 168.371 49.3693 168.371 49.1023V49.0597C168.371 48.6222 168.221 48.2841 167.92 48.0455C167.619 47.8068 167.212 47.6875 166.701 47.6875C166.15 47.6875 165.707 47.8068 165.371 48.0455C165.036 48.2841 164.823 48.6136 164.732 49.0341L160.888 48.8977C161.002 48.1023 161.295 47.392 161.766 46.767C162.244 46.1364 162.897 45.642 163.727 45.2841C164.562 44.9205 165.565 44.7386 166.735 44.7386C167.57 44.7386 168.34 44.8381 169.045 45.0369C169.749 45.2301 170.363 45.5142 170.886 45.8892C171.408 46.2585 171.812 46.7131 172.096 47.2528C172.386 47.7926 172.531 48.4091 172.531 49.1023V58H168.61V56.1761H168.508C168.275 56.6193 167.977 56.9943 167.613 57.3011C167.255 57.608 166.832 57.8381 166.343 57.9915C165.86 58.1449 165.315 58.2216 164.707 58.2216ZM165.994 55.4943C166.442 55.4943 166.846 55.4034 167.204 55.2216C167.567 55.0398 167.857 54.7898 168.073 54.4716C168.289 54.1477 168.397 53.7727 168.397 53.3466V52.1023C168.278 52.1648 168.133 52.2216 167.962 52.2727C167.798 52.3239 167.616 52.3722 167.417 52.4176C167.218 52.4631 167.013 52.5028 166.803 52.5369C166.593 52.571 166.391 52.6023 166.198 52.6307C165.806 52.6932 165.471 52.7898 165.192 52.9205C164.92 53.0511 164.71 53.2216 164.562 53.4318C164.42 53.6364 164.349 53.8807 164.349 54.1648C164.349 54.5966 164.502 54.9261 164.809 55.1534C165.121 55.3807 165.516 55.4943 165.994 55.4943ZM183.525 52.3494V44.9091H187.684V58H183.712V55.5625H183.576C183.286 56.3636 182.792 57 182.093 57.4716C181.4 57.9375 180.562 58.1705 179.579 58.1705C178.687 58.1705 177.903 57.9659 177.227 57.5568C176.55 57.1477 176.025 56.5767 175.65 55.8438C175.275 55.1051 175.085 54.2415 175.079 53.2528V44.9091H179.246V52.4347C179.252 53.1449 179.44 53.7045 179.809 54.1136C180.178 54.5227 180.681 54.7273 181.317 54.7273C181.732 54.7273 182.104 54.6364 182.434 54.4545C182.769 54.267 183.033 53.9972 183.227 53.6449C183.425 53.2869 183.525 52.8551 183.525 52.3494ZM194.504 40.5455V58H190.337V40.5455H194.504ZM200.847 58.2216C200.012 58.2216 199.271 58.0824 198.623 57.804C197.981 57.5199 197.472 57.0937 197.097 56.5256C196.728 55.9517 196.543 55.233 196.543 54.3693C196.543 53.642 196.671 53.0284 196.927 52.5284C197.183 52.0284 197.535 51.6222 197.984 51.3097C198.433 50.9972 198.95 50.7614 199.535 50.6023C200.12 50.4375 200.745 50.3267 201.41 50.2699C202.154 50.2017 202.754 50.1307 203.208 50.0568C203.663 49.9773 203.992 49.8665 204.197 49.7244C204.407 49.5767 204.512 49.3693 204.512 49.1023V49.0597C204.512 48.6222 204.362 48.2841 204.06 48.0455C203.759 47.8068 203.353 47.6875 202.842 47.6875C202.29 47.6875 201.847 47.8068 201.512 48.0455C201.177 48.2841 200.964 48.6136 200.873 49.0341L197.029 48.8977C197.143 48.1023 197.435 47.392 197.907 46.767C198.384 46.1364 199.038 45.642 199.867 45.2841C200.702 44.9205 201.705 44.7386 202.876 44.7386C203.711 44.7386 204.481 44.8381 205.185 45.0369C205.89 45.2301 206.504 45.5142 207.026 45.8892C207.549 46.2585 207.952 46.7131 208.237 47.2528C208.526 47.7926 208.671 48.4091 208.671 49.1023V58H204.751V56.1761H204.648C204.415 56.6193 204.117 56.9943 203.754 57.3011C203.396 57.608 202.972 57.8381 202.484 57.9915C202.001 58.1449 201.455 58.2216 200.847 58.2216ZM202.134 55.4943C202.583 55.4943 202.987 55.4034 203.344 55.2216C203.708 55.0398 203.998 54.7898 204.214 54.4716C204.43 54.1477 204.538 53.7727 204.538 53.3466V52.1023C204.418 52.1648 204.273 52.2216 204.103 52.2727C203.938 52.3239 203.756 52.3722 203.558 52.4176C203.359 52.4631 203.154 52.5028 202.944 52.5369C202.734 52.571 202.532 52.6023 202.339 52.6307C201.947 52.6932 201.612 52.7898 201.333 52.9205C201.06 53.0511 200.85 53.2216 200.702 53.4318C200.56 53.6364 200.489 53.8807 200.489 54.1648C200.489 54.5966 200.643 54.9261 200.95 55.1534C201.262 55.3807 201.657 55.4943 202.134 55.4943ZM222.495 58.2472C221.126 58.2472 219.944 57.9773 218.95 57.4375C217.961 56.892 217.2 56.1165 216.665 55.1108C216.137 54.0994 215.873 52.8977 215.873 51.5057C215.873 50.1534 216.14 48.9716 216.674 47.9602C217.208 46.9432 217.961 46.1534 218.933 45.5909C219.904 45.0227 221.049 44.7386 222.367 44.7386C223.299 44.7386 224.151 44.8835 224.924 45.1733C225.697 45.4631 226.364 45.892 226.927 46.4602C227.489 47.0284 227.927 47.7301 228.239 48.5653C228.552 49.3949 228.708 50.3466 228.708 51.4205V52.4602H217.33V50.0398H224.83C224.825 49.5966 224.719 49.2017 224.515 48.8551C224.31 48.5085 224.029 48.2386 223.671 48.0455C223.319 47.8466 222.913 47.7472 222.452 47.7472C221.987 47.7472 221.569 47.8523 221.2 48.0625C220.83 48.267 220.538 48.5483 220.322 48.9062C220.106 49.2585 219.992 49.6591 219.981 50.108V52.571C219.981 53.1051 220.086 53.5739 220.296 53.9773C220.506 54.375 220.805 54.6847 221.191 54.9062C221.577 55.1278 222.038 55.2386 222.572 55.2386C222.941 55.2386 223.276 55.1875 223.577 55.0852C223.879 54.983 224.137 54.8324 224.353 54.6335C224.569 54.4347 224.731 54.1903 224.839 53.9006L228.665 54.0114C228.506 54.8693 228.157 55.6165 227.617 56.2528C227.083 56.8835 226.381 57.375 225.512 57.7273C224.643 58.0739 223.637 58.2472 222.495 58.2472ZM230.837 58V44.9091H234.8V47.3125H234.945C235.217 46.517 235.678 45.8892 236.325 45.429C236.973 44.9688 237.746 44.7386 238.643 44.7386C239.553 44.7386 240.331 44.9716 240.979 45.4375C241.626 45.9034 242.038 46.5284 242.214 47.3125H242.351C242.595 46.5341 243.072 45.9119 243.783 45.446C244.493 44.9744 245.331 44.7386 246.297 44.7386C247.536 44.7386 248.541 45.1364 249.314 45.9318C250.087 46.7216 250.473 47.8068 250.473 49.1875V58H246.305V50.142C246.305 49.4886 246.138 48.9915 245.803 48.6506C245.467 48.304 245.033 48.1307 244.499 48.1307C243.925 48.1307 243.473 48.3182 243.143 48.6932C242.82 49.0625 242.658 49.5597 242.658 50.1847V58H238.652V50.0994C238.652 49.4915 238.487 49.0114 238.158 48.6591C237.828 48.3068 237.393 48.1307 236.854 48.1307C236.49 48.1307 236.169 48.2187 235.891 48.3949C235.612 48.5653 235.393 48.8097 235.234 49.1278C235.081 49.446 235.004 49.821 235.004 50.2528V58H230.837ZM258.212 62.9091V44.9091H262.337V47.1506H262.464C262.635 46.7528 262.876 46.3693 263.189 46C263.507 45.6307 263.911 45.3295 264.399 45.0966C264.893 44.858 265.484 44.7386 266.172 44.7386C267.081 44.7386 267.93 44.9773 268.72 45.4545C269.516 45.9318 270.158 46.6676 270.646 47.6619C271.135 48.6562 271.379 49.9233 271.379 51.4631C271.379 52.946 271.143 54.1875 270.672 55.1875C270.206 56.1875 269.575 56.9375 268.78 57.4375C267.99 57.9375 267.112 58.1875 266.146 58.1875C265.487 58.1875 264.916 58.0795 264.433 57.8636C263.95 57.6477 263.544 57.3636 263.214 57.0114C262.891 56.6591 262.641 56.2812 262.464 55.8778H262.379V62.9091H258.212ZM262.294 51.4545C262.294 52.1591 262.388 52.7727 262.575 53.2955C262.768 53.8182 263.044 54.2244 263.402 54.5142C263.766 54.7983 264.2 54.9403 264.706 54.9403C265.217 54.9403 265.652 54.7983 266.01 54.5142C266.368 54.2244 266.638 53.8182 266.82 53.2955C267.007 52.7727 267.101 52.1591 267.101 51.4545C267.101 50.75 267.007 50.1392 266.82 49.6222C266.638 49.1051 266.368 48.7045 266.01 48.4205C265.658 48.1364 265.223 47.9943 264.706 47.9943C264.195 47.9943 263.76 48.1335 263.402 48.4119C263.044 48.6903 262.768 49.0881 262.575 49.6051C262.388 50.1222 262.294 50.7386 262.294 51.4545ZM273.563 58V44.9091H277.612V47.2955H277.748C277.987 46.4318 278.376 45.7898 278.915 45.3693C279.455 44.9432 280.083 44.7301 280.799 44.7301C280.992 44.7301 281.191 44.7443 281.396 44.7727C281.6 44.7955 281.79 44.8324 281.967 44.8835V48.5057C281.768 48.4375 281.506 48.3835 281.183 48.3438C280.864 48.304 280.58 48.2841 280.33 48.2841C279.836 48.2841 279.39 48.3949 278.992 48.6165C278.6 48.8324 278.29 49.1364 278.063 49.5284C277.842 49.9148 277.731 50.3693 277.731 50.892V58H273.563ZM289.096 58.2472C287.721 58.2472 286.539 57.9659 285.55 57.4034C284.567 56.8352 283.809 56.0455 283.275 55.0341C282.746 54.017 282.482 52.8381 282.482 51.4972C282.482 50.1506 282.746 48.9716 283.275 47.9602C283.809 46.9432 284.567 46.1534 285.55 45.5909C286.539 45.0227 287.721 44.7386 289.096 44.7386C290.471 44.7386 291.65 45.0227 292.633 45.5909C293.621 46.1534 294.38 46.9432 294.908 47.9602C295.442 48.9716 295.71 50.1506 295.71 51.4972C295.71 52.8381 295.442 54.017 294.908 55.0341C294.38 56.0455 293.621 56.8352 292.633 57.4034C291.65 57.9659 290.471 58.2472 289.096 58.2472ZM289.121 55.1023C289.621 55.1023 290.045 54.9489 290.391 54.642C290.738 54.3352 291.002 53.9091 291.184 53.3636C291.371 52.8182 291.465 52.1875 291.465 51.4716C291.465 50.7443 291.371 50.108 291.184 49.5625C291.002 49.017 290.738 48.5909 290.391 48.2841C290.045 47.9773 289.621 47.8239 289.121 47.8239C288.604 47.8239 288.167 47.9773 287.809 48.2841C287.457 48.5909 287.187 49.017 286.999 49.5625C286.817 50.108 286.727 50.7443 286.727 51.4716C286.727 52.1875 286.817 52.8182 286.999 53.3636C287.187 53.9091 287.457 54.3352 287.809 54.642C288.167 54.9489 288.604 55.1023 289.121 55.1023ZM303.955 58.2472C302.575 58.2472 301.39 57.9631 300.401 57.3949C299.418 56.8267 298.663 56.0369 298.134 55.0256C297.606 54.0085 297.342 52.8324 297.342 51.4972C297.342 50.1562 297.606 48.9801 298.134 47.9688C298.668 46.9517 299.427 46.1591 300.41 45.5909C301.398 45.0227 302.577 44.7386 303.947 44.7386C305.157 44.7386 306.211 44.9574 307.109 45.3949C308.012 45.8324 308.717 46.4517 309.222 47.2528C309.734 48.0483 310.004 48.983 310.032 50.0568H306.137C306.058 49.3864 305.83 48.8608 305.455 48.4801C305.086 48.0994 304.603 47.9091 304.006 47.9091C303.523 47.9091 303.1 48.0455 302.737 48.3182C302.373 48.5852 302.089 48.983 301.884 49.5114C301.685 50.0341 301.586 50.6818 301.586 51.4545C301.586 52.2273 301.685 52.8807 301.884 53.4148C302.089 53.9432 302.373 54.3437 302.737 54.6165C303.1 54.8835 303.523 55.017 304.006 55.017C304.393 55.017 304.734 54.9347 305.029 54.7699C305.33 54.6051 305.577 54.3636 305.771 54.0455C305.964 53.7216 306.086 53.3295 306.137 52.8693H310.032C309.992 53.9489 309.722 54.892 309.222 55.6989C308.728 56.5057 308.032 57.1335 307.134 57.5824C306.242 58.0256 305.183 58.2472 303.955 58.2472ZM318.284 58.2472C316.915 58.2472 315.733 57.9773 314.739 57.4375C313.75 56.892 312.989 56.1165 312.455 55.1108C311.926 54.0994 311.662 52.8977 311.662 51.5057C311.662 50.1534 311.929 48.9716 312.463 47.9602C312.997 46.9432 313.75 46.1534 314.722 45.5909C315.693 45.0227 316.838 44.7386 318.156 44.7386C319.088 44.7386 319.94 44.8835 320.713 45.1733C321.486 45.4631 322.153 45.892 322.716 46.4602C323.278 47.0284 323.716 47.7301 324.028 48.5653C324.341 49.3949 324.497 50.3466 324.497 51.4205V52.4602H313.119V50.0398H320.619C320.614 49.5966 320.509 49.2017 320.304 48.8551C320.099 48.5085 319.818 48.2386 319.46 48.0455C319.108 47.8466 318.702 47.7472 318.241 47.7472C317.776 47.7472 317.358 47.8523 316.989 48.0625C316.619 48.267 316.327 48.5483 316.111 48.9062C315.895 49.2585 315.781 49.6591 315.77 50.108V52.571C315.77 53.1051 315.875 53.5739 316.085 53.9773C316.295 54.375 316.594 54.6847 316.98 54.9062C317.366 55.1278 317.827 55.2386 318.361 55.2386C318.73 55.2386 319.065 55.1875 319.366 55.0852C319.668 54.983 319.926 54.8324 320.142 54.6335C320.358 54.4347 320.52 54.1903 320.628 53.9006L324.455 54.0114C324.295 54.8693 323.946 55.6165 323.406 56.2528C322.872 56.8835 322.17 57.375 321.301 57.7273C320.432 58.0739 319.426 58.2472 318.284 58.2472ZM338.055 48.9062L334.228 49.0085C334.188 48.7358 334.08 48.4943 333.904 48.2841C333.728 48.0682 333.498 47.9006 333.214 47.7812C332.935 47.6562 332.612 47.5938 332.242 47.5938C331.759 47.5938 331.347 47.6903 331.006 47.8835C330.671 48.0767 330.506 48.3381 330.512 48.6676C330.506 48.9233 330.609 49.1449 330.819 49.3324C331.035 49.5199 331.418 49.6705 331.969 49.7841L334.492 50.2614C335.799 50.5114 336.771 50.9261 337.407 51.5057C338.049 52.0852 338.373 52.8523 338.379 53.8068C338.373 54.7045 338.106 55.4858 337.577 56.1506C337.055 56.8153 336.339 57.3324 335.43 57.7017C334.521 58.0653 333.481 58.2472 332.31 58.2472C330.441 58.2472 328.967 57.8636 327.887 57.0966C326.813 56.3239 326.2 55.2898 326.046 53.9943L330.163 53.892C330.254 54.3693 330.489 54.733 330.87 54.983C331.251 55.233 331.737 55.358 332.327 55.358C332.862 55.358 333.296 55.2585 333.631 55.0597C333.967 54.8608 334.137 54.5966 334.143 54.267C334.137 53.9716 334.006 53.7358 333.751 53.5597C333.495 53.3778 333.094 53.2358 332.549 53.1335L330.265 52.6989C328.952 52.4602 327.975 52.0199 327.333 51.3778C326.691 50.7301 326.373 49.9062 326.379 48.9062C326.373 48.0312 326.606 47.2841 327.077 46.6648C327.549 46.0398 328.219 45.5625 329.089 45.233C329.958 44.9034 330.984 44.7386 332.165 44.7386C333.938 44.7386 335.336 45.1108 336.359 45.8551C337.381 46.5937 337.947 47.6108 338.055 48.9062ZM351.859 48.9062L348.033 49.0085C347.993 48.7358 347.885 48.4943 347.709 48.2841C347.533 48.0682 347.303 47.9006 347.018 47.7812C346.74 47.6562 346.416 47.5938 346.047 47.5938C345.564 47.5938 345.152 47.6903 344.811 47.8835C344.476 48.0767 344.311 48.3381 344.317 48.6676C344.311 48.9233 344.413 49.1449 344.624 49.3324C344.839 49.5199 345.223 49.6705 345.774 49.7841L348.297 50.2614C349.604 50.5114 350.575 50.9261 351.212 51.5057C351.854 52.0852 352.178 52.8523 352.183 53.8068C352.178 54.7045 351.911 55.4858 351.382 56.1506C350.859 56.8153 350.143 57.3324 349.234 57.7017C348.325 58.0653 347.286 58.2472 346.115 58.2472C344.246 58.2472 342.771 57.8636 341.692 57.0966C340.618 56.3239 340.004 55.2898 339.851 53.9943L343.967 53.892C344.058 54.3693 344.294 54.733 344.675 54.983C345.055 55.233 345.541 55.358 346.132 55.358C346.666 55.358 347.101 55.2585 347.436 55.0597C347.771 54.8608 347.942 54.5966 347.947 54.267C347.942 53.9716 347.811 53.7358 347.555 53.5597C347.3 53.3778 346.899 53.2358 346.354 53.1335L344.07 52.6989C342.757 52.4602 341.78 52.0199 341.138 51.3778C340.496 50.7301 340.178 49.9062 340.183 48.9062C340.178 48.0312 340.411 47.2841 340.882 46.6648C341.354 46.0398 342.024 45.5625 342.893 45.233C343.763 44.9034 344.788 44.7386 345.97 44.7386C347.743 44.7386 349.141 45.1108 350.163 45.8551C351.186 46.5937 351.751 47.6108 351.859 48.9062ZM357.925 58.2216C357.09 58.2216 356.349 58.0824 355.701 57.804C355.059 57.5199 354.55 57.0937 354.175 56.5256C353.806 55.9517 353.621 55.233 353.621 54.3693C353.621 53.642 353.749 53.0284 354.005 52.5284C354.261 52.0284 354.613 51.6222 355.062 51.3097C355.511 50.9972 356.028 50.7614 356.613 50.6023C357.198 50.4375 357.823 50.3267 358.488 50.2699C359.232 50.2017 359.832 50.1307 360.286 50.0568C360.741 49.9773 361.07 49.8665 361.275 49.7244C361.485 49.5767 361.59 49.3693 361.59 49.1023V49.0597C361.59 48.6222 361.44 48.2841 361.138 48.0455C360.837 47.8068 360.431 47.6875 359.92 47.6875C359.369 47.6875 358.925 47.8068 358.59 48.0455C358.255 48.2841 358.042 48.6136 357.951 49.0341L354.107 48.8977C354.221 48.1023 354.513 47.392 354.985 46.767C355.462 46.1364 356.116 45.642 356.945 45.2841C357.781 44.9205 358.783 44.7386 359.954 44.7386C360.789 44.7386 361.559 44.8381 362.263 45.0369C362.968 45.2301 363.582 45.5142 364.104 45.8892C364.627 46.2585 365.031 46.7131 365.315 47.2528C365.604 47.7926 365.749 48.4091 365.749 49.1023V58H361.829V56.1761H361.727C361.494 56.6193 361.195 56.9943 360.832 57.3011C360.474 57.608 360.05 57.8381 359.562 57.9915C359.079 58.1449 358.533 58.2216 357.925 58.2216ZM359.212 55.4943C359.661 55.4943 360.065 55.4034 360.423 55.2216C360.786 55.0398 361.076 54.7898 361.292 54.4716C361.508 54.1477 361.616 53.7727 361.616 53.3466V52.1023C361.496 52.1648 361.352 52.2216 361.181 52.2727C361.016 52.3239 360.835 52.3722 360.636 52.4176C360.437 52.4631 360.232 52.5028 360.022 52.5369C359.812 52.571 359.61 52.6023 359.417 52.6307C359.025 52.6932 358.69 52.7898 358.411 52.9205C358.138 53.0511 357.928 53.2216 357.781 53.4318C357.638 53.6364 357.567 53.8807 357.567 54.1648C357.567 54.5966 357.721 54.9261 358.028 55.1534C358.34 55.3807 358.735 55.4943 359.212 55.4943ZM368.298 58V44.9091H372.261V47.3125H372.406C372.678 46.517 373.138 45.8892 373.786 45.429C374.434 44.9688 375.207 44.7386 376.104 44.7386C377.013 44.7386 377.792 44.9716 378.44 45.4375C379.087 45.9034 379.499 46.5284 379.675 47.3125H379.812C380.056 46.5341 380.533 45.9119 381.244 45.446C381.954 44.9744 382.792 44.7386 383.758 44.7386C384.996 44.7386 386.002 45.1364 386.775 45.9318C387.548 46.7216 387.934 47.8068 387.934 49.1875V58H383.766V50.142C383.766 49.4886 383.599 48.9915 383.263 48.6506C382.928 48.304 382.494 48.1307 381.96 48.1307C381.386 48.1307 380.934 48.3182 380.604 48.6932C380.281 49.0625 380.119 49.5597 380.119 50.1847V58H376.113V50.0994C376.113 49.4915 375.948 49.0114 375.619 48.6591C375.289 48.3068 374.854 48.1307 374.315 48.1307C373.951 48.1307 373.63 48.2187 373.352 48.3949C373.073 48.5653 372.854 48.8097 372.695 49.1278C372.542 49.446 372.465 49.821 372.465 50.2528V58H368.298ZM396.636 58.2472C395.266 58.2472 394.085 57.9773 393.09 57.4375C392.102 56.892 391.34 56.1165 390.806 55.1108C390.278 54.0994 390.013 52.8977 390.013 51.5057C390.013 50.1534 390.281 48.9716 390.815 47.9602C391.349 46.9432 392.102 46.1534 393.073 45.5909C394.045 45.0227 395.19 44.7386 396.508 44.7386C397.44 44.7386 398.292 44.8835 399.065 45.1733C399.837 45.4631 400.505 45.892 401.067 46.4602C401.63 47.0284 402.067 47.7301 402.38 48.5653C402.692 49.3949 402.849 50.3466 402.849 51.4205V52.4602H391.471V50.0398H398.971C398.965 49.5966 398.86 49.2017 398.656 48.8551C398.451 48.5085 398.17 48.2386 397.812 48.0455C397.46 47.8466 397.053 47.7472 396.593 47.7472C396.127 47.7472 395.71 47.8523 395.34 48.0625C394.971 48.267 394.678 48.5483 394.462 48.9062C394.246 49.2585 394.133 49.6591 394.121 50.108V52.571C394.121 53.1051 394.227 53.5739 394.437 53.9773C394.647 54.375 394.945 54.6847 395.332 54.9062C395.718 55.1278 396.178 55.2386 396.712 55.2386C397.082 55.2386 397.417 55.1875 397.718 55.0852C398.019 54.983 398.278 54.8324 398.494 54.6335C398.71 54.4347 398.871 54.1903 398.979 53.9006L402.806 54.0114C402.647 54.8693 402.298 55.6165 401.758 56.2528C401.224 56.8835 400.522 57.375 399.653 57.7273C398.783 58.0739 397.778 58.2472 396.636 58.2472ZM409.145 50.5341V58H404.977V44.9091H408.94V47.3125H409.085C409.375 46.5114 409.869 45.8835 410.568 45.429C411.267 44.9688 412.099 44.7386 413.065 44.7386C413.986 44.7386 414.784 44.946 415.46 45.3608C416.142 45.7699 416.67 46.3437 417.045 47.0824C417.426 47.8153 417.614 48.6733 417.608 49.6562V58H413.44V50.4744C413.446 49.7472 413.261 49.179 412.886 48.7699C412.517 48.3608 412.003 48.1562 411.344 48.1562C410.906 48.1562 410.52 48.2528 410.185 48.446C409.855 48.6335 409.599 48.9034 409.418 49.2557C409.241 49.608 409.151 50.0341 409.145 50.5341ZM427.577 44.9091V47.9773H419.319V44.9091H427.577ZM421.049 41.7727H425.217V53.8835C425.217 54.1392 425.256 54.3466 425.336 54.5057C425.421 54.6591 425.543 54.7699 425.702 54.8381C425.862 54.9006 426.052 54.9318 426.273 54.9318C426.433 54.9318 426.6 54.9176 426.776 54.8892C426.958 54.8551 427.094 54.8267 427.185 54.804L427.816 57.8125C427.617 57.8693 427.336 57.9403 426.972 58.0256C426.614 58.1108 426.185 58.1648 425.685 58.1875C424.708 58.233 423.87 58.1193 423.171 57.8466C422.478 57.5682 421.947 57.1364 421.577 56.5511C421.214 55.9659 421.038 55.2301 421.049 54.3438V41.7727ZM435.674 58.2472C434.299 58.2472 433.117 57.9659 432.129 57.4034C431.146 56.8352 430.387 56.0455 429.853 55.0341C429.325 54.017 429.06 52.8381 429.06 51.4972C429.06 50.1506 429.325 48.9716 429.853 47.9602C430.387 46.9432 431.146 46.1534 432.129 45.5909C433.117 45.0227 434.299 44.7386 435.674 44.7386C437.049 44.7386 438.228 45.0227 439.211 45.5909C440.2 46.1534 440.958 46.9432 441.487 47.9602C442.021 48.9716 442.288 50.1506 442.288 51.4972C442.288 52.8381 442.021 54.017 441.487 55.0341C440.958 56.0455 440.2 56.8352 439.211 57.4034C438.228 57.9659 437.049 58.2472 435.674 58.2472ZM435.7 55.1023C436.2 55.1023 436.623 54.9489 436.969 54.642C437.316 54.3352 437.58 53.9091 437.762 53.3636C437.95 52.8182 438.043 52.1875 438.043 51.4716C438.043 50.7443 437.95 50.108 437.762 49.5625C437.58 49.017 437.316 48.5909 436.969 48.2841C436.623 47.9773 436.2 47.8239 435.7 47.8239C435.183 47.8239 434.745 47.9773 434.387 48.2841C434.035 48.5909 433.765 49.017 433.577 49.5625C433.396 50.108 433.305 50.7443 433.305 51.4716C433.305 52.1875 433.396 52.8182 433.577 53.3636C433.765 53.9091 434.035 54.3352 434.387 54.642C434.745 54.9489 435.183 55.1023 435.7 55.1023ZM446.766 58.2472C446.153 58.2472 445.627 58.0312 445.19 57.5994C444.758 57.1676 444.545 56.6449 444.55 56.0312C444.545 55.429 444.758 54.9148 445.19 54.4886C445.627 54.0568 446.153 53.8409 446.766 53.8409C447.346 53.8409 447.857 54.0568 448.3 54.4886C448.749 54.9148 448.977 55.429 448.982 56.0312C448.977 56.4403 448.869 56.8125 448.658 57.1477C448.454 57.483 448.184 57.75 447.849 57.9489C447.519 58.1477 447.158 58.2472 446.766 58.2472ZM159.716 87V69.5455H166.926C168.233 69.5455 169.36 69.8011 170.309 70.3125C171.264 70.8182 172 71.5256 172.517 72.4347C173.034 73.3381 173.292 74.3892 173.292 75.5881C173.292 76.7926 173.028 77.8466 172.5 78.75C171.977 79.6477 171.23 80.3437 170.258 80.8381C169.287 81.3324 168.133 81.5795 166.798 81.5795H162.349V78.2557H166.014C166.65 78.2557 167.181 78.1449 167.608 77.9233C168.039 77.7017 168.366 77.392 168.588 76.9943C168.809 76.5909 168.92 76.1222 168.92 75.5881C168.92 75.0483 168.809 74.5824 168.588 74.1903C168.366 73.7926 168.039 73.4858 167.608 73.2699C167.176 73.054 166.645 72.946 166.014 72.946H163.934V87H159.716ZM181.225 87.2472C179.85 87.2472 178.668 86.9659 177.679 86.4034C176.696 85.8352 175.938 85.0455 175.404 84.0341C174.875 83.017 174.611 81.8381 174.611 80.4972C174.611 79.1506 174.875 77.9716 175.404 76.9602C175.938 75.9432 176.696 75.1534 177.679 74.5909C178.668 74.0227 179.85 73.7386 181.225 73.7386C182.6 73.7386 183.779 74.0227 184.762 74.5909C185.75 75.1534 186.509 75.9432 187.037 76.9602C187.571 77.9716 187.838 79.1506 187.838 80.4972C187.838 81.8381 187.571 83.017 187.037 84.0341C186.509 85.0455 185.75 85.8352 184.762 86.4034C183.779 86.9659 182.6 87.2472 181.225 87.2472ZM181.25 84.1023C181.75 84.1023 182.174 83.9489 182.52 83.642C182.867 83.3352 183.131 82.9091 183.313 82.3636C183.5 81.8182 183.594 81.1875 183.594 80.4716C183.594 79.7443 183.5 79.108 183.313 78.5625C183.131 78.017 182.867 77.5909 182.52 77.2841C182.174 76.9773 181.75 76.8239 181.25 76.8239C180.733 76.8239 180.296 76.9773 179.938 77.2841C179.586 77.5909 179.316 78.017 179.128 78.5625C178.946 79.108 178.855 79.7443 178.855 80.4716C178.855 81.1875 178.946 81.8182 179.128 82.3636C179.316 82.9091 179.586 83.3352 179.938 83.642C180.296 83.9489 180.733 84.1023 181.25 84.1023ZM189.973 87V73.9091H194.022V76.2955H194.158C194.397 75.4318 194.786 74.7898 195.326 74.3693C195.865 73.9432 196.493 73.7301 197.209 73.7301C197.402 73.7301 197.601 73.7443 197.806 73.7727C198.01 73.7955 198.201 73.8324 198.377 73.8835V77.5057C198.178 77.4375 197.917 77.3835 197.593 77.3438C197.275 77.304 196.99 77.2841 196.74 77.2841C196.246 77.2841 195.8 77.3949 195.402 77.6165C195.01 77.8324 194.701 78.1364 194.473 78.5284C194.252 78.9148 194.141 79.3693 194.141 79.892V87H189.973ZM212.672 73.9091V76.9773H204.251V73.9091H212.672ZM206.007 87V73.2443C206.007 72.233 206.197 71.3949 206.578 70.7301C206.958 70.0597 207.487 69.5597 208.163 69.2301C208.839 68.8949 209.62 68.7273 210.507 68.7273C211.086 68.7273 211.632 68.7727 212.143 68.8636C212.66 68.9489 213.044 69.0256 213.294 69.0938L212.629 72.1449C212.475 72.0937 212.288 72.0511 212.066 72.017C211.85 71.983 211.646 71.9659 211.453 71.9659C210.964 71.9659 210.629 72.0739 210.447 72.2898C210.265 72.5057 210.174 72.8011 210.174 73.1761V87H206.007ZM217.851 87.2216C217.016 87.2216 216.275 87.0824 215.627 86.804C214.985 86.5199 214.476 86.0937 214.101 85.5256C213.732 84.9517 213.547 84.233 213.547 83.3693C213.547 82.642 213.675 82.0284 213.931 81.5284C214.186 81.0284 214.539 80.6222 214.988 80.3097C215.436 79.9972 215.953 79.7614 216.539 79.6023C217.124 79.4375 217.749 79.3267 218.414 79.2699C219.158 79.2017 219.757 79.1307 220.212 79.0568C220.667 78.9773 220.996 78.8665 221.201 78.7244C221.411 78.5767 221.516 78.3693 221.516 78.1023V78.0597C221.516 77.6222 221.365 77.2841 221.064 77.0455C220.763 76.8068 220.357 76.6875 219.846 76.6875C219.294 76.6875 218.851 76.8068 218.516 77.0455C218.181 77.2841 217.968 77.6136 217.877 78.0341L214.033 77.8977C214.147 77.1023 214.439 76.392 214.911 75.767C215.388 75.1364 216.042 74.642 216.871 74.2841C217.706 73.9205 218.709 73.7386 219.88 73.7386C220.715 73.7386 221.485 73.8381 222.189 74.0369C222.894 74.2301 223.507 74.5142 224.03 74.8892C224.553 75.2585 224.956 75.7131 225.24 76.2528C225.53 76.7926 225.675 77.4091 225.675 78.1023V87H221.755V85.1761H221.652C221.419 85.6193 221.121 85.9943 220.757 86.3011C220.4 86.608 219.976 86.8381 219.488 86.9915C219.005 87.1449 218.459 87.2216 217.851 87.2216ZM219.138 84.4943C219.587 84.4943 219.99 84.4034 220.348 84.2216C220.712 84.0398 221.002 83.7898 221.218 83.4716C221.434 83.1477 221.542 82.7727 221.542 82.3466V81.1023C221.422 81.1648 221.277 81.2216 221.107 81.2727C220.942 81.3239 220.76 81.3722 220.561 81.4176C220.363 81.4631 220.158 81.5028 219.948 81.5369C219.738 81.571 219.536 81.6023 219.343 81.6307C218.951 81.6932 218.615 81.7898 218.337 81.9205C218.064 82.0511 217.854 82.2216 217.706 82.4318C217.564 82.6364 217.493 82.8807 217.493 83.1648C217.493 83.5966 217.647 83.9261 217.953 84.1534C218.266 84.3807 218.661 84.4943 219.138 84.4943ZM240.453 73.9091L235.962 87H231.189L226.706 73.9091H231.096L233.507 82.9261H233.644L236.064 73.9091H240.453ZM247.74 87.2472C246.365 87.2472 245.184 86.9659 244.195 86.4034C243.212 85.8352 242.453 85.0455 241.919 84.0341C241.391 83.017 241.127 81.8381 241.127 80.4972C241.127 79.1506 241.391 77.9716 241.919 76.9602C242.453 75.9432 243.212 75.1534 244.195 74.5909C245.184 74.0227 246.365 73.7386 247.74 73.7386C249.115 73.7386 250.294 74.0227 251.277 74.5909C252.266 75.1534 253.025 75.9432 253.553 76.9602C254.087 77.9716 254.354 79.1506 254.354 80.4972C254.354 81.8381 254.087 83.017 253.553 84.0341C253.025 85.0455 252.266 85.8352 251.277 86.4034C250.294 86.9659 249.115 87.2472 247.74 87.2472ZM247.766 84.1023C248.266 84.1023 248.689 83.9489 249.036 83.642C249.382 83.3352 249.647 82.9091 249.828 82.3636C250.016 81.8182 250.11 81.1875 250.11 80.4716C250.11 79.7443 250.016 79.108 249.828 78.5625C249.647 78.017 249.382 77.5909 249.036 77.2841C248.689 76.9773 248.266 76.8239 247.766 76.8239C247.249 76.8239 246.811 76.9773 246.453 77.2841C246.101 77.5909 245.831 78.017 245.644 78.5625C245.462 79.108 245.371 79.7443 245.371 80.4716C245.371 81.1875 245.462 81.8182 245.644 82.3636C245.831 82.9091 246.101 83.3352 246.453 83.642C246.811 83.9489 247.249 84.1023 247.766 84.1023ZM256.489 87V73.9091H260.537V76.2955H260.674C260.912 75.4318 261.301 74.7898 261.841 74.3693C262.381 73.9432 263.009 73.7301 263.725 73.7301C263.918 73.7301 264.117 73.7443 264.321 73.7727C264.526 73.7955 264.716 73.8324 264.892 73.8835V77.5057C264.694 77.4375 264.432 77.3835 264.108 77.3438C263.79 77.304 263.506 77.2841 263.256 77.2841C262.762 77.2841 262.316 77.3949 261.918 77.6165C261.526 77.8324 261.216 78.1364 260.989 78.5284C260.767 78.9148 260.657 79.3693 260.657 79.892V87H256.489ZM269.343 84.6136L269.267 85.5597C269.199 86.3437 269.059 87.108 268.849 87.8523C268.645 88.6023 268.426 89.2756 268.193 89.8722C267.96 90.4688 267.775 90.9318 267.639 91.2614H265.014C265.105 90.9318 265.227 90.4688 265.38 89.8722C265.539 89.2756 265.687 88.6023 265.824 87.8523C265.96 87.1023 266.037 86.3409 266.054 85.5682L266.071 84.6136H269.343ZM280.289 87.2216C279.453 87.2216 278.712 87.0824 278.064 86.804C277.422 86.5199 276.914 86.0937 276.539 85.5256C276.169 84.9517 275.985 84.233 275.985 83.3693C275.985 82.642 276.113 82.0284 276.368 81.5284C276.624 81.0284 276.976 80.6222 277.425 80.3097C277.874 79.9972 278.391 79.7614 278.976 79.6023C279.561 79.4375 280.186 79.3267 280.851 79.2699C281.596 79.2017 282.195 79.1307 282.65 79.0568C283.104 78.9773 283.434 78.8665 283.638 78.7244C283.848 78.5767 283.953 78.3693 283.953 78.1023V78.0597C283.953 77.6222 283.803 77.2841 283.502 77.0455C283.201 76.8068 282.794 76.6875 282.283 76.6875C281.732 76.6875 281.289 76.8068 280.953 77.0455C280.618 77.2841 280.405 77.6136 280.314 78.0341L276.471 77.8977C276.584 77.1023 276.877 76.392 277.348 75.767C277.826 75.1364 278.479 74.642 279.309 74.2841C280.144 73.9205 281.147 73.7386 282.317 73.7386C283.152 73.7386 283.922 73.8381 284.627 74.0369C285.331 74.2301 285.945 74.5142 286.468 74.8892C286.99 75.2585 287.394 75.7131 287.678 76.2528C287.968 76.7926 288.113 77.4091 288.113 78.1023V87H284.192V85.1761H284.09C283.857 85.6193 283.559 85.9943 283.195 86.3011C282.837 86.608 282.414 86.8381 281.925 86.9915C281.442 87.1449 280.897 87.2216 280.289 87.2216ZM281.576 84.4943C282.025 84.4943 282.428 84.4034 282.786 84.2216C283.15 84.0398 283.439 83.7898 283.655 83.4716C283.871 83.1477 283.979 82.7727 283.979 82.3466V81.1023C283.86 81.1648 283.715 81.2216 283.544 81.2727C283.38 81.3239 283.198 81.3722 282.999 81.4176C282.8 81.4631 282.596 81.5028 282.385 81.5369C282.175 81.571 281.973 81.6023 281.78 81.6307C281.388 81.6932 281.053 81.7898 280.775 81.9205C280.502 82.0511 280.292 82.2216 280.144 82.4318C280.002 82.6364 279.931 82.8807 279.931 83.1648C279.931 83.5966 280.084 83.9261 280.391 84.1534C280.703 84.3807 281.098 84.4943 281.576 84.4943ZM296.763 92.1818C295.519 92.1818 294.453 92.0085 293.567 91.6619C292.681 91.3153 291.985 90.8409 291.479 90.2386C290.973 89.6364 290.669 88.9545 290.567 88.1932L294.513 87.9716C294.587 88.2386 294.723 88.4716 294.922 88.6705C295.127 88.8693 295.391 89.0227 295.715 89.1307C296.044 89.2386 296.431 89.2926 296.874 89.2926C297.573 89.2926 298.15 89.1222 298.604 88.7812C299.064 88.446 299.294 87.858 299.294 87.017V84.7159H299.15C298.985 85.1193 298.735 85.4801 298.4 85.7983C298.064 86.1165 297.647 86.3665 297.147 86.5483C296.652 86.7301 296.084 86.821 295.442 86.821C294.488 86.821 293.613 86.5994 292.817 86.1562C292.027 85.7074 291.394 85.0142 290.917 84.0767C290.445 83.1335 290.209 81.9205 290.209 80.4375C290.209 78.9091 290.453 77.6506 290.942 76.6619C291.431 75.6676 292.07 74.9318 292.86 74.4545C293.655 73.9773 294.51 73.7386 295.425 73.7386C296.113 73.7386 296.701 73.858 297.189 74.0966C297.684 74.3295 298.09 74.6307 298.408 75C298.726 75.3693 298.968 75.7528 299.132 76.1506H299.252V73.9091H303.402V87.0511C303.402 88.1591 303.124 89.0938 302.567 89.8551C302.01 90.6165 301.232 91.1932 300.232 91.5852C299.232 91.983 298.076 92.1818 296.763 92.1818ZM296.891 83.7869C297.397 83.7869 297.828 83.6534 298.186 83.3864C298.544 83.1193 298.82 82.7358 299.013 82.2358C299.206 81.7358 299.303 81.1364 299.303 80.4375C299.303 79.7273 299.206 79.1165 299.013 78.6051C298.826 78.0881 298.55 77.6903 298.186 77.4119C297.828 77.1335 297.397 76.9943 296.891 76.9943C296.374 76.9943 295.936 77.1364 295.578 77.4205C295.221 77.7045 294.948 78.1051 294.76 78.6222C294.578 79.1335 294.488 79.7386 294.488 80.4375C294.488 81.1364 294.581 81.7358 294.769 82.2358C294.956 82.7358 295.226 83.1193 295.578 83.3864C295.936 83.6534 296.374 83.7869 296.891 83.7869ZM314.505 81.3494V73.9091H318.664V87H314.693V84.5625H314.556C314.267 85.3636 313.772 86 313.074 86.4716C312.38 86.9375 311.542 87.1705 310.559 87.1705C309.667 87.1705 308.883 86.9659 308.207 86.5568C307.531 86.1477 307.005 85.5767 306.63 84.8438C306.255 84.1051 306.065 83.2415 306.059 82.2528V73.9091H310.227V81.4347C310.233 82.1449 310.42 82.7045 310.789 83.1136C311.159 83.5227 311.662 83.7273 312.298 83.7273C312.713 83.7273 313.085 83.6364 313.414 83.4545C313.75 83.267 314.014 82.9972 314.207 82.6449C314.406 82.2869 314.505 81.8551 314.505 81.3494ZM325.007 87.2216C324.172 87.2216 323.431 87.0824 322.783 86.804C322.141 86.5199 321.632 86.0937 321.257 85.5256C320.888 84.9517 320.703 84.233 320.703 83.3693C320.703 82.642 320.831 82.0284 321.087 81.5284C321.343 81.0284 321.695 80.6222 322.144 80.3097C322.593 79.9972 323.11 79.7614 323.695 79.6023C324.28 79.4375 324.905 79.3267 325.57 79.2699C326.314 79.2017 326.914 79.1307 327.368 79.0568C327.823 78.9773 328.152 78.8665 328.357 78.7244C328.567 78.5767 328.672 78.3693 328.672 78.1023V78.0597C328.672 77.6222 328.522 77.2841 328.221 77.0455C327.919 76.8068 327.513 76.6875 327.002 76.6875C326.451 76.6875 326.007 76.8068 325.672 77.0455C325.337 77.2841 325.124 77.6136 325.033 78.0341L321.189 77.8977C321.303 77.1023 321.596 76.392 322.067 75.767C322.544 75.1364 323.198 74.642 324.027 74.2841C324.863 73.9205 325.865 73.7386 327.036 73.7386C327.871 73.7386 328.641 73.8381 329.346 74.0369C330.05 74.2301 330.664 74.5142 331.186 74.8892C331.709 75.2585 332.113 75.7131 332.397 76.2528C332.686 76.7926 332.831 77.4091 332.831 78.1023V87H328.911V85.1761H328.809C328.576 85.6193 328.277 85.9943 327.914 86.3011C327.556 86.608 327.132 86.8381 326.644 86.9915C326.161 87.1449 325.615 87.2216 325.007 87.2216ZM326.294 84.4943C326.743 84.4943 327.147 84.4034 327.505 84.2216C327.868 84.0398 328.158 83.7898 328.374 83.4716C328.59 83.1477 328.698 82.7727 328.698 82.3466V81.1023C328.578 81.1648 328.434 81.2216 328.263 81.2727C328.098 81.3239 327.917 81.3722 327.718 81.4176C327.519 81.4631 327.314 81.5028 327.104 81.5369C326.894 81.571 326.692 81.6023 326.499 81.6307C326.107 81.6932 325.772 81.7898 325.493 81.9205C325.221 82.0511 325.01 82.2216 324.863 82.4318C324.721 82.6364 324.65 82.8807 324.65 83.1648C324.65 83.5966 324.803 83.9261 325.11 84.1534C325.422 84.3807 325.817 84.4943 326.294 84.4943ZM335.38 87V73.9091H339.428V76.2955H339.564C339.803 75.4318 340.192 74.7898 340.732 74.3693C341.272 73.9432 341.9 73.7301 342.615 73.7301C342.809 73.7301 343.007 73.7443 343.212 73.7727C343.417 73.7955 343.607 73.8324 343.783 73.8835V77.5057C343.584 77.4375 343.323 77.3835 342.999 77.3438C342.681 77.304 342.397 77.2841 342.147 77.2841C341.652 77.2841 341.206 77.3949 340.809 77.6165C340.417 77.8324 340.107 78.1364 339.88 78.5284C339.658 78.9148 339.547 79.3693 339.547 79.892V87H335.38ZM349.583 87.1875C348.617 87.1875 347.739 86.9375 346.949 86.4375C346.159 85.9375 345.529 85.1875 345.057 84.1875C344.586 83.1875 344.35 81.946 344.35 80.4631C344.35 78.9233 344.594 77.6562 345.083 76.6619C345.571 75.6676 346.211 74.9318 347 74.4545C347.796 73.9773 348.651 73.7386 349.566 73.7386C350.253 73.7386 350.841 73.858 351.33 74.0966C351.819 74.3295 352.222 74.6307 352.54 75C352.858 75.3693 353.1 75.7528 353.265 76.1506H353.35V69.5455H357.517V87H353.392V84.8778H353.265C353.088 85.2812 352.838 85.6591 352.515 86.0114C352.191 86.3636 351.784 86.6477 351.296 86.8636C350.813 87.0795 350.242 87.1875 349.583 87.1875ZM351.032 83.9403C351.537 83.9403 351.969 83.7983 352.327 83.5142C352.685 83.2244 352.961 82.8182 353.154 82.2955C353.347 81.7727 353.444 81.1591 353.444 80.4545C353.444 79.7386 353.347 79.1222 353.154 78.6051C352.966 78.0881 352.691 77.6903 352.327 77.4119C351.969 77.1335 351.537 76.9943 351.032 76.9943C350.515 76.9943 350.077 77.1364 349.719 77.4205C349.361 77.7045 349.088 78.1051 348.901 78.6222C348.719 79.1392 348.628 79.75 348.628 80.4545C348.628 81.1591 348.722 81.7727 348.909 82.2955C349.097 82.8182 349.367 83.2244 349.719 83.5142C350.077 83.7983 350.515 83.9403 351.032 83.9403ZM366.272 87.2472C364.903 87.2472 363.721 86.9773 362.727 86.4375C361.738 85.892 360.977 85.1165 360.443 84.1108C359.914 83.0994 359.65 81.8977 359.65 80.5057C359.65 79.1534 359.917 77.9716 360.451 76.9602C360.985 75.9432 361.738 75.1534 362.71 74.5909C363.681 74.0227 364.826 73.7386 366.145 73.7386C367.076 73.7386 367.929 73.8835 368.701 74.1733C369.474 74.4631 370.142 74.892 370.704 75.4602C371.267 76.0284 371.704 76.7301 372.017 77.5653C372.329 78.3949 372.485 79.3466 372.485 80.4205V81.4602H361.108V79.0398H368.608C368.602 78.5966 368.497 78.2017 368.292 77.8551C368.088 77.5085 367.806 77.2386 367.449 77.0455C367.096 76.8466 366.69 76.7472 366.23 76.7472C365.764 76.7472 365.346 76.8523 364.977 77.0625C364.608 77.267 364.315 77.5483 364.099 77.9062C363.883 78.2585 363.77 78.6591 363.758 79.108V81.571C363.758 82.1051 363.863 82.5739 364.074 82.9773C364.284 83.375 364.582 83.6847 364.968 83.9062C365.355 84.1278 365.815 84.2386 366.349 84.2386C366.718 84.2386 367.054 84.1875 367.355 84.0852C367.656 83.983 367.914 83.8324 368.13 83.6335C368.346 83.4347 368.508 83.1903 368.616 82.9006L372.443 83.0114C372.284 83.8693 371.934 84.6165 371.395 85.2528C370.86 85.8835 370.159 86.375 369.289 86.7273C368.42 87.0739 367.414 87.2472 366.272 87.2472ZM376.958 87.2472C376.344 87.2472 375.819 87.0312 375.381 86.5994C374.949 86.1676 374.736 85.6449 374.742 85.0312C374.736 84.429 374.949 83.9148 375.381 83.4886C375.819 83.0568 376.344 82.8409 376.958 82.8409C377.537 82.8409 378.049 83.0568 378.492 83.4886C378.941 83.9148 379.168 84.429 379.174 85.0312C379.168 85.4403 379.06 85.8125 378.85 86.1477C378.645 86.483 378.375 86.75 378.04 86.9489C377.711 87.1477 377.35 87.2472 376.958 87.2472Z" fill="white"/>
<defs>
<linearGradient id="paint0_linear_2135_4407" x1="269.5" y1="0" x2="269.5" y2="328.467" gradientUnits="userSpaceOnUse">
<stop stop-color="#00B2FF"/>
<stop offset="1" stop-color="#1E0094"/>
</linearGradient>
</defs>
</svg>
